<svg xmlns="http://www.w3.org/2000/svg" data-name="Layer 1" viewBox="0 0 64 64" id="brain-process"><path d="M39.289 58h-4.247a1 1 0 0 1-1-1v-5.747a1 1 0 0 1 2 0V56h2.247v-4.271a1 1 0 0 1 .789-.977 19 19 0 0 0 6.292-2.615 1 1 0 0 1 1.249.134l3.026 3.029 4.655-4.655-3.025-3.026a1 1 0 0 1-.134-1.248 19.031 19.031 0 0 0 2.615-6.294 1 1 0 0 1 .977-.788H59v-6.578h-4.271a1 1 0 0 1-.977-.788 18.93 18.93 0 0 0-.862-2.862 1 1 0 1 1 1.863-.727 20.834 20.834 0 0 1 .767 2.377H60a1 1 0 0 1 1 1v8.578a1 1 0 0 1-1 1h-4.48a21.008 21.008 0 0 1-2.276 5.476l3.173 3.173a1 1 0 0 1 0 1.414l-6.065 6.066a1.029 1.029 0 0 1-1.414 0l-3.174-3.174a20.976 20.976 0 0 1-5.475 2.277V57a1 1 0 0 1-1 1zm-4.247-10.747a1 1 0 0 1-1-1v-3.839a1 1 0 0 1 1-1 9.381 9.381 0 0 0 8.95-6.6 9.419 9.419 0 0 0-8.95-12.229 1 1 0 0 1-1-1V7a1 1 0 0 1 1-1h4.247a1 1 0 0 1 1 1v4.479a20.976 20.976 0 0 1 5.475 2.277l3.174-3.174a1.029 1.029 0 0 1 1.414 0l6.065 6.066a1 1 0 0 1 0 1.415L53.35 21.13a1 1 0 1 1-1.414-1.414l2.36-2.361-4.651-4.655-3.026 3.026a1 1 0 0 1-1.249.134 19 19 0 0 0-6.292-2.615 1 1 0 0 1-.789-.977V8h-2.247v12.633A11.419 11.419 0 0 1 45.9 35.414a11.366 11.366 0 0 1-9.854 7.953v2.886a1 1 0 0 1-1.004 1zM19.511 52.33a1 1 0 0 1-.876-.516c-.113-.2-.216-.418-.317-.645s-.191-.427-.264-.629a1.489 1.489 0 0 1-.066-.175 1.245 1.245 0 0 1-.061-.177 3.941 3.941 0 0 1-.154-.464 2.908 2.908 0 0 1-.1-.354l-.051-.177c-.01-.033-.018-.067-.026-.1a7.685 7.685 0 0 1-.143-.673 4.053 4.053 0 0 1-.065-.363l-.022-.143a6.016 6.016 0 0 1-.051-.477 6.61 6.61 0 0 1-.041-.46 14.485 14.485 0 0 1-.022-.716 1 1 0 1 1 2 0c0 .2.009.407.019.6.007.112.015.24.032.368.014.161.021.264.037.369l.025.157c.015.1.028.191.05.285.042.25.085.419.127.589l.012.052.05.175a2.529 2.529 0 0 0 .077.27 3 3 0 0 0 .131.382 1.062 1.062 0 0 1 .049.144c.013.033.024.067.034.1a.744.744 0 0 1 .031.078c.058.165.133.329.207.494.089.2.167.364.253.521a1 1 0 0 1-.873 1.484zm.4-2.5zm-.1-.272zM8.7 40.64a1 1 0 0 1-.865-1.5 8.107 8.107 0 0 1 .557-.841 5.666 5.666 0 0 1 .458-.559 1.966 1.966 0 0 1 .226-.252c.119-.134.246-.262.381-.389a1.39 1.39 0 0 1 .194-.179c.088-.079.178-.155.269-.233l.153-.13a.857.857 0 0 1 .11-.083 9.286 9.286 0 0 1 1.5-.939l.071-.035.032-.017a8.29 8.29 0 0 1 .709-.308 8.527 8.527 0 0 1 .849-.281 1 1 0 1 1 .514 1.931 6.923 6.923 0 0 0-.652.22 5.609 5.609 0 0 0-.53.229 1.48 1.48 0 0 1-.079.04l-.018.009a7.488 7.488 0 0 0-1.12.689q-.06.051-.12.093l-.129.111c-.081.067-.16.135-.236.2-.022.02-.045.04-.068.058s-.03.03-.045.044a4.019 4.019 0 0 0-.31.317.97.97 0 0 1-.111.111 1.011 1.011 0 0 1-.091.114 4.042 4.042 0 0 0-.346.419 6.264 6.264 0 0 0-.436.656 1 1 0 0 1-.867.505zm2.283-2.253zm1.687-1.116-.015.01zm0 0z"></path><path d="M28.945 20.56a1 1 0 0 0-1 1v30.389A2.866 2.866 0 0 1 25.08 54.8a2.823 2.823 0 0 1-1.594-.5 9.9 9.9 0 0 1-3.086-3.41c-.007-.014-.006-.03-.014-.044a7.13 7.13 0 0 1-.253-.521c-.074-.165-.149-.329-.207-.494a.744.744 0 0 0-.031-.078 1.068 1.068 0 0 0-.034-.1 1.062 1.062 0 0 0-.049-.144 3 3 0 0 1-.131-.382 2.529 2.529 0 0 1-.077-.27l-.05-.175-.012-.052c-.042-.17-.085-.339-.127-.589-.022-.094-.035-.188-.05-.285l-.025-.157c-.016-.1-.023-.208-.037-.369-.017-.128-.025-.256-.032-.368-.01-.194-.019-.4-.019-.6a9.806 9.806 0 0 1 .136-1.633 1 1 0 0 0-1.972-.334 11.769 11.769 0 0 0-.164 1.967c0 .237.01.473.022.716.011.17.024.343.041.46.012.155.025.311.051.477l.022.143c.023.15.046.3.065.363a7.685 7.685 0 0 0 .169.773l.051.177a2.908 2.908 0 0 0 .1.354 3.941 3.941 0 0 0 .154.464 1.245 1.245 0 0 0 .061.177 1.489 1.489 0 0 0 .066.175c.031.086.075.18.112.268a7.142 7.142 0 0 1-2.314.391 7.332 7.332 0 0 1-7.333-7.313 7.15 7.15 0 0 1 1.019-3.71c.009-.013.02-.023.028-.036a6.264 6.264 0 0 1 .434-.657 4.042 4.042 0 0 1 .346-.419 1.011 1.011 0 0 0 .091-.114.97.97 0 0 0 .111-.111 4.019 4.019 0 0 1 .31-.317l.045-.044c.014-.015.046-.038.068-.058.076-.07.155-.138.236-.2l.129-.111a1.389 1.389 0 0 0 .12-.093 7.4 7.4 0 0 1 1.12-.688l.019-.01a6.346 6.346 0 0 1 .64-.283 4.857 4.857 0 0 1 .634-.209c.225-.063.467-.116.7-.162a1 1 0 0 0-.384-1.963 9.254 9.254 0 0 0-.845.2 6.549 6.549 0 0 0-.849.281c-.241.092-.48.2-.709.308l-.032.017-.071.035a9.286 9.286 0 0 0-1.5.939.857.857 0 0 0-.11.083l-.153.13c-.091.077-.181.154-.269.233a1.39 1.39 0 0 0-.194.179 5.346 5.346 0 0 0-.38.389 1.9 1.9 0 0 0-.227.252 5.747 5.747 0 0 0-.384.469A9.7 9.7 0 0 1 9.159 22.8a1 1 0 1 0-1.142-1.641A11.712 11.712 0 0 0 7.4 39.937 9.307 9.307 0 0 0 15.852 53.2a9.137 9.137 0 0 0 3.241-.593 11.876 11.876 0 0 0 3.267 3.347 4.806 4.806 0 0 0 2.72.849 4.865 4.865 0 0 0 4.865-4.853V21.56a1 1 0 0 0-1-1Z"></path><path d="M25.087 7.2a4.631 4.631 0 0 0-2.552.772 11.639 11.639 0 0 0-2.316 2 9.328 9.328 0 0 0-1.2-.072 11 11 0 0 0-10.244 7.088 1 1 0 1 0 1.871.705 8.985 8.985 0 0 1 8.171-5.775 4.216 4.216 0 0 0-.247.453 5.191 5.191 0 0 0-.256.518l-.02.046a7.77 7.77 0 0 0-.336.817c0 .014-.009.028-.014.042l-.023.063a7.3 7.3 0 0 0-.273.877 6.246 6.246 0 0 0-.128.519l-.091.451a.939.939 0 0 0-.016.117v.015a3.466 3.466 0 0 0-.045.264l-.025.175a7.28 7.28 0 0 0-.05.493v.037a.953.953 0 0 0-.008.16 9.78 9.78 0 0 0-.033.8 11.581 11.581 0 0 0 .482 3.347 11.8 11.8 0 0 0 2.59 4.558 1 1 0 0 0 1.476-1.35 9.807 9.807 0 0 1-2.151-3.784 9.594 9.594 0 0 1-.4-2.771c0-.212.009-.424.026-.723.006-.035.01-.12.012-.156.008-.124.023-.242.038-.367l.022-.145a1.119 1.119 0 0 1 .023-.139.984.984 0 0 0 .026-.164v-.026l.081-.405c.024-.124.058-.247.1-.391.015-.06.039-.119.055-.179a7.618 7.618 0 0 1 .193-.606l.011-.033a5.808 5.808 0 0 1 .272-.664.707.707 0 0 0 .036-.084 2.99 2.99 0 0 1 .171-.345.923.923 0 0 0 .06-.117 3.5 3.5 0 0 1 .184-.339 1.093 1.093 0 0 0 .066-.1 7.46 7.46 0 0 1 .348-.543 6.6 6.6 0 0 1 .416-.546.372.372 0 0 0 .019-.034 9.722 9.722 0 0 1 2.222-2.017 2.622 2.622 0 0 1 1.457-.442 2.911 2.911 0 0 1 2.858 2.882v4.478a1 1 0 0 0 2 0v-4.474A4.876 4.876 0 0 0 25.087 7.2Z"></path></svg>