<svg xmlns="http://www.w3.org/2000/svg" width="64" height="64" id="business"><path d="M10.156.86a.5.5 0 0 0-.465.37l-.445 1.666a4.997 4.997 0 0 0-.144.02L8.24 1.422a.5.5 0 0 0-.683-.184L5.895 2.2a.5.5 0 0 0-.182.682l.861 1.494c-.03.037-.058.075-.086.113L4.82 4.043a.5.5 0 0 0-.611.353L3.711 6.25a.5.5 0 0 0 .353.611l1.666.448.02.142-1.494.863a.5.5 0 0 0-.182.682l.96 1.662a.5.5 0 0 0 .683.184l1.492-.862c.038.03.076.06.115.088l-.447 1.666a.5.5 0 0 0 .353.612l1.854.496a.5.5 0 0 0 .613-.354l.448-1.666c.047-.006.095-.012.142-.02l.861 1.495a.5.5 0 0 0 .684.183l1.662-.959a.5.5 0 0 0 .182-.683l-.862-1.492c.03-.038.06-.077.088-.116l1.666.446a.5.5 0 0 0 .614-.354l.496-1.853a.5.5 0 0 0-.354-.612l-1.666-.445c-.005-.048-.01-.096-.017-.144l1.492-.862a.5.5 0 0 0 .181-.683l-.959-1.662a.5.5 0 0 0-.683-.184l-1.492.861a4.184 4.184 0 0 0-.116-.088l.448-1.664a.5.5 0 0 0-.354-.613L10.305.877a.5.5 0 0 0-.149-.018zm41.737.283v.003a5.667 5.667 0 0 0-1.772.211c-1.401.397-2.572 1.353-3.367 2.61-.702-.125-1.421-.173-2.111.021h-.002c-2.044.582-3.424 2.463-3.586 4.625-.463-.043-.93-.102-1.381.026-2.12.6-3.354 2.88-2.797 5.08.465 1.829 2.073 3.03 3.857 3.021.014.067.02.135.036.201.558 2.2 2.743 3.544 4.863 2.944h.002c.175-.05.339-.132.506-.207 1.412 1.231 3.28 1.761 5.074 1.256h.002c1.89-.535 3.287-2.092 3.869-4.02.517.013 1.036 0 1.537-.139h.002c2.911-.824 4.616-3.964 3.846-7v-.002c-.416-1.631-1.536-2.93-2.992-3.646-.023-.118-.042-.236-.07-.352v-.002c-.636-2.5-2.697-4.282-5.14-4.55-.261-.067-.263-.056-.376-.08zm-41.364.828.887.238-.402 1.504a.5.5 0 0 0 .228.56c.202.12.386.262.555.424a.5.5 0 0 0 .598.073l1.345-.776.46.795-1.346.777a.5.5 0 0 0-.237.557c.058.227.09.46.094.693a.5.5 0 0 0 .371.475l1.5.402-.238.889-1.502-.404a.5.5 0 0 0-.56.228c-.12.202-.262.388-.425.557a.5.5 0 0 0-.074.598l.778 1.343-.795.461-.78-1.35a.5.5 0 0 0-.556-.234c-.227.058-.46.09-.694.094a.5.5 0 0 0-.474.371l-.4 1.502-.89-.238.403-1.504a.5.5 0 0 0-.227-.559 3.027 3.027 0 0 1-.556-.426.5.5 0 0 0-.598-.072l-1.346.778-.459-.797 1.348-.778a.5.5 0 0 0 .234-.558 3.004 3.004 0 0 1-.093-.692.5.5 0 0 0-.37-.474l-1.501-.403.238-.886 1.504.402a.5.5 0 0 0 .558-.229c.12-.2.262-.388.424-.556a.5.5 0 0 0 .074-.596l-.777-1.346.797-.459.777 1.348a.5.5 0 0 0 .557.235c.227-.058.46-.09.693-.094a.5.5 0 0 0 .475-.371l.402-1.502zm41.325.172v.002c2.155.087 4.017 1.646 4.584 3.878.037.151.069.302.093.456l.045.275.256.107c1.305.544 2.3 1.714 2.67 3.164.642 2.536-.785 5.122-3.15 5.791a4.194 4.194 0 0 1-1.52.137l-.436-.04-.097.425c-.41 1.781-1.703 3.17-3.356 3.637-1.57.442-3.24 0-4.427-1.192l-.264-.263-.326.175a2.89 2.89 0 0 1-.567.23c-1.574.446-3.186-.525-3.619-2.224a3.32 3.32 0 0 1-.082-.476l-.05-.52-.518.07c-1.465.204-2.852-.76-3.244-2.304-.431-1.7.527-3.426 2.101-3.871a2.78 2.78 0 0 1 1.418-.028l.63.155-.01-.649c-.032-1.94 1.186-3.633 2.93-4.129a3.72 3.72 0 0 1 1.95-.02l.371.096.19-.334c.663-1.174 1.729-2.022 2.967-2.373a4.676 4.676 0 0 1 1.46-.175zm-1.995 2.5a4.393 4.393 0 0 0-4.384 4.384c0 1.498.826 2.822 2.072 3.623v1.493h-.303a.5.5 0 0 0-.5.5v2a.5.5 0 0 0 .5.5h1v.498a.499.499 0 1 0 1 0v-.498h1v.498a.499.499 0 1 0 1 0v-.498h1a.5.5 0 0 0 .5-.5v-2a.5.5 0 0 0-.5-.5h-.072V12.65c1.245-.8 2.071-2.125 2.072-3.623a4.393 4.393 0 0 0-4.385-4.384zm-40.002.22A2.049 2.049 0 0 0 7.764 6.37a2.05 2.05 0 0 0 1.443 2.5 2.05 2.05 0 0 0 2.5-1.443 2.045 2.045 0 0 0-1.85-2.563zm40.002.78a3.377 3.377 0 0 1 3.385 3.382 3.385 3.385 0 0 1-1.806 2.993.5.5 0 0 0-.266.443v1.682h-.928v-3h.361c.677.01.677-1.01 0-1h-1.722c-.676-.01-.676 1.01 0 1h.361v3h-.697V12.46a.5.5 0 0 0-.268-.443 3.383 3.383 0 0 1-1.804-2.99v-.003a3.377 3.377 0 0 1 3.384-3.382zm-40.27.224c.135-.018.275-.01.415.028.56.15.887.712.736 1.273-.15.56-.712.887-1.273.736A1.034 1.034 0 0 1 8.73 6.63a1.03 1.03 0 0 1 .86-.762zm4.905 5.791a.5.5 0 0 0-.5.5v2.881c-.19.068-.375.147-.556.234l-2.04-2.039a.5.5 0 0 0-.707 0l-2.12 2.121a.5.5 0 0 0 0 .707l2.036 2.038a6.003 6.003 0 0 0-.23.558H7.494a.5.5 0 0 0-.5.5v3a.5.5 0 0 0 .5.5h2.881c.068.19.147.375.234.557L8.57 25.254a.5.5 0 0 0 0 .707l2.121 2.121a.5.5 0 0 0 .707 0l2.038-2.037c.182.086.368.163.558.23v2.883a.5.5 0 0 0 .5.5h3a.5.5 0 0 0 .5-.5v-2.88c.19-.069.375-.148.557-.235l2.039 2.039a.5.5 0 0 0 .707 0l2.121-2.121a.5.5 0 0 0 0-.707l-2.037-2.037a5.96 5.96 0 0 0 .23-.559h2.883a.5.5 0 0 0 .5-.5v-3a.5.5 0 0 0-.5-.5h-2.88a6.004 6.004 0 0 0-.233-.558l2.037-2.038a.5.5 0 0 0 0-.707l-2.121-2.12a.5.5 0 0 0-.707 0l-2.037 2.036a5.951 5.951 0 0 0-.559-.228v-2.885a.5.5 0 0 0-.5-.5h-3zm.5 1h2v2.715a.5.5 0 0 0 .365.482 5 5 0 0 1 1.073.44.5.5 0 0 0 .595-.084l1.916-1.918 1.414 1.414-1.918 1.92a.5.5 0 0 0-.084.6c.19.338.341.697.448 1.07a.5.5 0 0 0 .48.36h2.711v2H21.28a.5.5 0 0 0-.482.366 4.981 4.981 0 0 1-.44 1.07.5.5 0 0 0 .084.596l1.916 1.918-1.414 1.413-1.92-1.918a.5.5 0 0 0-.6-.082c-.337.19-.695.338-1.068.445a.5.5 0 0 0-.36.482v2.71h-2v-2.714a.5.5 0 0 0-.366-.482 5 5 0 0 1-1.072-.441.5.5 0 0 0-.596.085l-1.916 1.915-1.414-1.413 1.92-1.921a.5.5 0 0 0 .082-.596 5.01 5.01 0 0 1-.447-1.07.5.5 0 0 0-.48-.364H7.993v-2h2.715a.5.5 0 0 0 .48-.363c.105-.373.254-.735.442-1.074a.5.5 0 0 0-.084-.596L9.63 15.707l1.414-1.414 1.92 1.922a.5.5 0 0 0 .598.082 5.02 5.02 0 0 1 1.07-.45.5.5 0 0 0 .361-.478v-2.71zm32.75 2.485h4v1h-4v-1zm-9.887 1.507a2.256 2.256 0 0 0-2.037 2.826 2.255 2.255 0 0 0 2.754 1.588 2.253 2.253 0 0 0 1.588-2.752 2.257 2.257 0 0 0-2.305-1.662zm.063.996a1.24 1.24 0 0 1 1.277.924c.18.672-.21 1.35-.883 1.53a1.241 1.241 0 0 1-1.529-.883 1.241 1.241 0 0 1 1.135-1.57zm-21.926.012c-1.65 0-3 1.35-3 3 0 1.651 1.35 3 3 3 1.651 0 3-1.349 3-3 0-1.65-1.349-3-3-3zm0 1c1.11 0 2 .89 2 2 0 1.11-.89 2-2 2-1.11 0-2-.89-2-2 0-1.11.89-2 2-2zm18.315 2.156c-.11.007-.222.024-.332.053a1.673 1.673 0 0 0-1.176 2.041 1.67 1.67 0 0 0 2.037 1.176 1.674 1.674 0 0 0 1.18-2.04 1.675 1.675 0 0 0-1.71-1.23zm.193 1c.257.035.476.22.549.49a.655.655 0 0 1-.47.813.654.654 0 0 1-.813-.469.656.656 0 0 1 .468-.814.677.677 0 0 1 .266-.02zm-5.232 4.713c-3.874 0-7.024 3.157-7.024 7.035a7.038 7.038 0 0 0 1.305 4.053v1.11c0 1.72.759 3.258 1.957 4.308v2.608l-1.592.789a.5.5 0 0 0-.11.054c-1.916.946-4.74 2.337-5.673 2.815-.607.31-1.418.675-2.11 1.226-.69.552-1.279 1.35-1.279 2.41v10.208h29.053V52.936c0-1.032-.498-1.816-1.158-2.358-.66-.542-1.47-.901-2.237-1.281l-7.369-3.656v-2.61a5.712 5.712 0 0 0 1.957-4.306V37.61a7.028 7.028 0 0 0 1.305-4.047c0-3.878-3.152-7.035-7.025-7.035v-.002zm0 1a6.023 6.023 0 0 1 6.025 6.035 6.038 6.038 0 0 1-.305 1.868v-1.926a.5.5 0 0 0-.418-.492 3.398 3.398 0 0 1-2.203-1.373.5.5 0 0 0-.79-.028 7.842 7.842 0 0 1-1.642 1.49 7.82 7.82 0 0 1-5.794 1.2.5.5 0 0 0-.592.49v.639a6.032 6.032 0 0 1-.305-1.867c0-3.34 2.691-6.036 6.024-6.036zm14.218 4.774c-.09 0-.183.008-.275.025h-.002c-.737.14-1.246.813-1.246 1.565-.01.676 1.01.676 1 0 0-.306.198-.538.433-.582.235-.044.47.087.565.369.096.282-.02.596-.236.73-.235.145-.497.322-.713.59-.2.247-.342.585-.364.969a.5.5 0 0 0-.007.097v.727c-.01.676 1.01.676 1 0v-.693a.5.5 0 0 0 0-.034.61.61 0 0 1 .15-.437c.098-.122.26-.244.459-.367.637-.395.9-1.191.658-1.903-.211-.622-.787-1.052-1.422-1.056zm-11.529.3a4.318 4.318 0 0 0 2.031 1.239v4.885a4.704 4.704 0 0 1-4.72 4.728 4.702 4.702 0 0 1-4.72-4.728V35.277c2.077.24 4.188-.162 5.946-1.347.556-.375 1.015-.849 1.463-1.328zm-21.215 2.663a1.5 1.5 0 0 0-1.195.742 1.507 1.507 0 0 0 .549 2.049 1.507 1.507 0 0 0 2.048-.55 1.507 1.507 0 0 0-.548-2.048 1.487 1.487 0 0 0-.854-.193zm16.242.086c-.708 0-1.368.363-1.73.966a.5.5 0 1 0 .857.514c.176-.292.507-.48.873-.48.367 0 .7.188.875.48a.5.5 0 1 0 .858-.514 2.017 2.017 0 0 0-1.733-.966zm4.569 0a1.999 1.999 0 0 0-1.732.967.5.5 0 1 0 .857.513 1.02 1.02 0 0 1 .875-.48c.366 0 .697.188.873.48a.5.5 0 1 0 .857-.514 2.013 2.013 0 0 0-1.73-.966zm-20.649.908c.065.008.13.031.192.066a.49.49 0 0 1 .181.682.491.491 0 0 1-.681.183.493.493 0 0 1-.184-.683.49.49 0 0 1 .492-.248zm16.08.57a.326.326 0 1 0 0 .653.326.326 0 0 0 0-.653zm4.569 0a.326.326 0 1 0 0 .653.326.326 0 0 0 0-.653zm-2.291.479a.5.5 0 0 0-.494.507v1.307c-.01.676 1.01.676 1 0v-1.307a.5.5 0 0 0-.506-.507zm13.828.437c-.667.034-.616 1.034.05 1 .677.01.677-1.01 0-1a.5.5 0 0 0-.05 0zm-12.24 2.824a.5.5 0 0 0-.344.149c-.69.681-1.779.69-2.48.023-.484-.46-1.173.265-.69.725a2.789 2.789 0 0 0 3.873-.035.5.5 0 0 0-.36-.862zm1.181 3.17v1.85l-2.701 1.201a.488.488 0 0 0-.12 0l-2.704-1.201V43.74c.819.453 1.76.713 2.762.713 1.003 0 1.944-.26 2.763-.715zm-28.19.678a.5.5 0 0 0-.347.86l.707.706c.473.476 1.184-.237.707-.709l-.707-.707a.5.5 0 0 0-.36-.15zm2.829 0a.5.5 0 0 0-.344.15l-.707.71c-.48.472.238 1.188.71.706l.706-.709a.5.5 0 0 0-.365-.857zm51.008.852v.002a1.639 1.639 0 0 0-.961.47c-.491.471.236 1.198.707.707.216-.216.52-.24.717-.105.197.134.27.395.138.662s-.435.406-.683.348c-.268-.063-.577-.123-.92-.086a1.7 1.7 0 0 0-.938.422.5.5 0 0 0-.08.068.5.5 0 0 0-.035.035l-.479.479c-.49.47.236 1.197.708.707l.513-.514v-.002a.607.607 0 0 1 .416-.201c.156-.017.358.011.586.064.73.172 1.476-.207 1.809-.88.332-.675.149-1.508-.471-1.93a1.496 1.496 0 0 0-1.027-.246zm-31.621 1.214 2.308 1.028-.42.441-1.254 1.219-1.812-2.104 1.178-.584zm6.421 0 1.178.584-1.81 2.104-1.237-1.201-.437-.461 2.306-1.026zm-27.933.061a.5.5 0 0 0-.344.15l-.707.707c-.49.472.236 1.198.707.707l.707-.707a.5.5 0 0 0-.363-.857zm1.424 0a.5.5 0 0 0-.35.857l.71.707c.47.491 1.197-.235.706-.707l-.709-.707a.5.5 0 0 0-.357-.15zm17.986.982 2.324 2.7a.5.5 0 0 0 .729.03l.59-.573.06.064-1.168 8.62a.5.5 0 0 0 .09.359l2.283 3.164a.5.5 0 0 0 .81 0l2.284-3.164a.5.5 0 0 0 .09-.36l-1.17-8.619.06-.064.592.576a.5.5 0 0 0 .729-.033l2.324-2.7 5.373 2.666c.785.39 1.536.741 2.047 1.16.51.42.793.848.793 1.585v9.207h-3.74V56.4h-.653v5.743H20.137V56.4h-.653v5.743h-3.74v-9.207c0-.708.347-1.186.902-1.63.556-.442 1.302-.79 1.942-1.117.851-.436 3.378-1.68 5.369-2.664zm5.313.534.628.61.313.329-.07.072h-1.743L28.33 49l.36-.377.58-.564zm21.966 1.084a.5.5 0 0 0-.345.146l-1.608 1.606c-.088-.146-.103-.33-.224-.452a2.138 2.138 0 0 0-3.014 0 2.14 2.14 0 0 0 0 3.016c.122.122.307.136.453.225l-1.607 1.607a.5.5 0 0 0 0 .707l6 6a.5.5 0 0 0 .707 0l6-6a.5.5 0 0 0 0-.707l-2.078-2.078a.5.5 0 0 0-.85.283 1.13 1.13 0 0 1-1.918.64 1.125 1.125 0 0 1 0-1.6c.173-.173.399-.285.64-.32a.5.5 0 0 0 .284-.847l-2.078-2.078a.5.5 0 0 0-.362-.146v-.002zm3.22.002a.5.5 0 0 0-.429.279c-.303.594.588 1.049.891.455a.5.5 0 0 0-.463-.734zm-25.831.927h1.291l1.115 8.23-1.761 2.44-1.76-2.44 1.115-8.23zm22.62.278 1.251 1.252c-.146.088-.329.103-.451.224a2.14 2.14 0 0 0 0 3.016 2.138 2.138 0 0 0 3.014 0c.122-.123.136-.307.224-.453l1.254 1.254-5.293 5.293-5.293-5.293 1.725-1.725a.5.5 0 0 0-.283-.85 1.133 1.133 0 0 1-.641-.318 1.125 1.125 0 0 1 0-1.602 1.123 1.123 0 0 1 1.6 0c.173.174.284.398.318.641a.5.5 0 0 0 .85.285l1.724-1.724zm-40.571 4.2a.5.5 0 0 0-.494.509v.5h-.5c-.676-.01-.676 1.01 0 1h.5v.5c-.01.676 1.01.676 1 0v-.5h.5c.676.01.676-1.01 0-1h-.5v-.5a.5.5 0 0 0-.506-.508z" color="#000" font-family="sans-serif" font-weight="400" overflow="visible" style="line-height:normal;text-indent:0;text-align:start;text-decoration-line:none;text-decoration-style:solid;text-decoration-color:#000;text-transform:none;block-progression:tb;white-space:normal;isolation:auto;mix-blend-mode:normal;solid-color:#000;solid-opacity:1"></path></svg>