<svg width="23" height="18" viewBox="0 0 23 18" fill="none" xmlns="http://www.w3.org/2000/svg">
<path d="M18.8943 2.34399C17.5183 1.71467 16.057 1.256 14.5317 1C14.3396 1.33067 14.1263 1.77866 13.977 2.13067C12.3546 1.89599 10.7439 1.89599 9.14391 2.13067C8.99457 1.77866 8.77056 1.33067 8.58922 1C7.05325 1.256 5.59191 1.71467 4.22552 2.34399C1.46286 6.41865 0.716188 10.3973 1.08952 14.3226C2.92418 15.6559 4.69486 16.4666 6.4346 17C6.86126 16.424 7.24527 15.8053 7.57594 15.1546C6.9466 14.92 6.34927 14.632 5.77327 14.2906C5.9226 14.184 6.07194 14.0667 6.21061 13.9493C9.68793 15.5387 13.4543 15.5387 16.889 13.9493C17.0383 14.0667 17.177 14.184 17.3263 14.2906C16.7503 14.632 16.153 14.92 15.5236 15.1546C15.8543 15.8053 16.2383 16.424 16.665 17C18.4036 16.4666 20.185 15.6559 22.01 14.3226C22.4687 9.77867 21.2836 5.83202 18.8943 2.34399ZM8.05593 11.9013C7.01058 11.9013 6.15725 10.952 6.15725 9.78934C6.15725 8.62668 6.98925 7.67731 8.05593 7.67731C9.11191 7.67731 9.97588 8.62668 9.95454 9.78934C9.95454 10.952 9.11191 11.9013 8.05593 11.9013ZM15.065 11.9013C14.0196 11.9013 13.1652 10.952 13.1652 9.78934C13.1652 8.62668 13.9983 7.67731 15.065 7.67731C16.121 7.67731 16.985 8.62668 16.9636 9.78934C16.9636 10.952 16.1317 11.9013 15.065 11.9013Z" stroke="black" stroke-linejoin="round"/>
</svg>
