<svg xmlns="http://www.w3.org/2000/svg" data-name="Layer 1" viewBox="0 0 128 128" id="group"><path d="M79.23535,73.30438A19.13148,19.13148,0,0,1,75.6189,77H76.25A10.762,10.762,0,0,1,87,87.75V113H41V87.75A10.762,10.762,0,0,1,51.75,77h.6311a19.13148,19.13148,0,0,1-3.61646-3.69562A14.77463,14.77463,0,0,0,37,87.75v25.9751A3.27877,3.27877,0,0,0,40.2749,117H87.7251A3.27877,3.27877,0,0,0,91,113.7251V87.75A14.77463,14.77463,0,0,0,79.23535,73.30438Z"></path><path d="M49 62A15 15 0 1 0 64 47 15.017 15.017 0 0 0 49 62zM64 51A11 11 0 1 1 53 62 11.01245 11.01245 0 0 1 64 51zM4 65A18.02031 18.02031 0 0 1 22 47h2.11407a21.05289 21.05289 0 0 1-5.49646-3.7395A22.03427 22.03427 0 0 0 0 65V89a4.00458 4.00458 0 0 0 4 4H33V89H4zM41.88593 47H44a17.88931 17.88931 0 0 1 6.81555 1.34918 19.09749 19.09749 0 0 1 3.59552-2.7243 21.8476 21.8476 0 0 0-7.03821-2.35571A21.053 21.053 0 0 1 41.88593 47zM50 28A17 17 0 1 0 33 45 17.019 17.019 0 0 0 50 28zM33 41A13 13 0 1 1 46 28 13.01442 13.01442 0 0 1 33 41zM84 47h2.11407a21.053 21.053 0 0 1-5.48694-3.73083 21.8476 21.8476 0 0 0-7.03821 2.35571 19.09749 19.09749 0 0 1 3.59552 2.7243A17.88931 17.88931 0 0 1 84 47zM109.38239 43.2605A21.05289 21.05289 0 0 1 103.88593 47H106a18.02031 18.02031 0 0 1 18 18l.00244 24H95v4h29a4.00458 4.00458 0 0 0 4-4V65A22.03427 22.03427 0 0 0 109.38239 43.2605zM95 45A17 17 0 1 0 78 28 17.019 17.019 0 0 0 95 45zm0-30A13 13 0 1 1 82 28 13.01442 13.01442 0 0 1 95 15z"></path></svg>