<svg width="170" height="68" viewBox="0 0 170 68" fill="none" xmlns="http://www.w3.org/2000/svg">
<g filter="url(#filter0_d_1_5)">
<rect x="32.4706" y="14.3077" width="11.3842" height="11.2393" rx="5.61966" fill="url(#paint0_linear_1_5)"/>
<rect width="9.16886" height="36.0213" rx="4.58443" transform="matrix(0.74739 -0.664386 0.673855 0.738864 41.8668 26.019)" fill="url(#paint1_linear_1_5)"/>
<rect width="9.16886" height="36.0213" rx="4.58443" transform="matrix(0.74739 0.664386 -0.673855 0.738864 27.2731 19.9029)" fill="url(#paint2_linear_1_5)"/>
<rect width="9.16886" height="35.6601" rx="4.58443" transform="matrix(0.74739 0.664386 -0.673855 0.738864 37.4359 28.6237)" fill="url(#paint3_linear_1_5)"/>
<g filter="url(#filter1_b_1_5)">
<path d="M34.3042 37.4352C33.1794 36.2379 32.916 34.4815 33.6414 33.0161C34.0444 32.2023 34.7189 31.5505 35.5517 31.1704L35.8163 31.0497C37.7336 30.1746 40.0062 30.636 41.4212 32.1876L60.1976 52.7754C61.8454 54.5821 61.5819 57.391 59.6265 58.8635C57.9027 60.1617 55.4604 59.9532 53.984 58.3818L34.3042 37.4352Z" fill="url(#paint4_linear_1_5)"/>
</g>
<path d="M83.426 13.37V37H79.55V13.37H83.426ZM92.3908 16.498V23.434H100.551V26.596H92.3908V33.838H101.571V37H88.5148V13.336H101.571V16.498H92.3908ZM114.063 13.37C116.579 13.37 118.778 13.8573 120.659 14.832C122.563 15.784 124.025 17.1667 125.045 18.98C126.088 20.7707 126.609 22.8673 126.609 25.27C126.609 27.6727 126.088 29.758 125.045 31.526C124.025 33.294 122.563 34.654 120.659 35.606C118.778 36.5353 116.579 37 114.063 37H106.345V13.37H114.063ZM114.063 33.838C116.828 33.838 118.948 33.09 120.421 31.594C121.894 30.098 122.631 27.99 122.631 25.27C122.631 22.5273 121.894 20.3853 120.421 18.844C118.948 17.3027 116.828 16.532 114.063 16.532H110.221V33.838H114.063ZM129.158 25.134C129.158 22.822 129.691 20.748 130.756 18.912C131.844 17.076 133.306 15.648 135.142 14.628C137.001 13.5853 139.03 13.064 141.228 13.064C143.744 13.064 145.977 13.6873 147.926 14.934C149.898 16.158 151.326 17.9033 152.21 20.17H147.552C146.94 18.9233 146.09 17.994 145.002 17.382C143.914 16.77 142.656 16.464 141.228 16.464C139.664 16.464 138.27 16.8153 137.046 17.518C135.822 18.2207 134.859 19.2293 134.156 20.544C133.476 21.8587 133.136 23.3887 133.136 25.134C133.136 26.8793 133.476 28.4093 134.156 29.724C134.859 31.0387 135.822 32.0587 137.046 32.784C138.27 33.4867 139.664 33.838 141.228 33.838C142.656 33.838 143.914 33.532 145.002 32.92C146.09 32.308 146.94 31.3787 147.552 30.132H152.21C151.326 32.3987 149.898 34.144 147.926 35.368C145.977 36.592 143.744 37.204 141.228 37.204C139.007 37.204 136.978 36.694 135.142 35.674C133.306 34.6313 131.844 33.192 130.756 31.356C129.691 29.52 129.158 27.446 129.158 25.134Z" fill="#120253" fill-opacity="0.87"/>
<path d="M82.4903 58.3882C81.9613 58.3882 81.4937 58.2962 81.0873 58.1122C80.6887 57.9282 80.3743 57.6713 80.1443 57.3417C79.9143 57.012 79.7917 56.644 79.7763 56.2377H80.6273C80.6657 56.6287 80.8382 56.9737 81.1448 57.2727C81.4515 57.564 81.9 57.7097 82.4903 57.7097C83.0347 57.7097 83.464 57.5717 83.7783 57.2957C84.1003 57.012 84.2613 56.6555 84.2613 56.2262C84.2613 55.8812 84.1732 55.6052 83.9968 55.3982C83.8205 55.1835 83.602 55.0263 83.3413 54.9267C83.0807 54.8193 82.7203 54.7043 82.2603 54.5817C81.7237 54.436 81.2982 54.2942 80.9838 54.1562C80.6695 54.0182 80.4012 53.8035 80.1788 53.5122C79.9565 53.2208 79.8453 52.826 79.8453 52.3277C79.8453 51.9137 79.9527 51.5457 80.1673 51.2237C80.382 50.894 80.6848 50.6372 81.0758 50.4532C81.4668 50.2692 81.9153 50.1772 82.4213 50.1772C83.165 50.1772 83.763 50.3612 84.2153 50.7292C84.6753 51.0895 84.9398 51.5572 85.0088 52.1322H84.1348C84.0812 51.8025 83.901 51.5112 83.5943 51.2582C83.2877 50.9975 82.8737 50.8672 82.3523 50.8672C81.8693 50.8672 81.4668 50.9975 81.1448 51.2582C80.8228 51.5112 80.6618 51.86 80.6618 52.3047C80.6618 52.642 80.75 52.9142 80.9263 53.1212C81.1027 53.3282 81.3212 53.4853 81.5818 53.5927C81.8502 53.7 82.2105 53.815 82.6628 53.9377C83.1842 54.0833 83.6058 54.229 83.9278 54.3747C84.2498 54.5127 84.522 54.7273 84.7443 55.0187C84.9667 55.31 85.0778 55.701 85.0778 56.1917C85.0778 56.5673 84.9782 56.9238 84.7788 57.2612C84.5795 57.5985 84.2843 57.8707 83.8933 58.0777C83.5023 58.2847 83.0347 58.3882 82.4903 58.3882ZM90.3479 50.2692V56.3527C90.3479 56.966 90.16 57.4605 89.7844 57.8362C89.4087 58.2042 88.9065 58.3882 88.2779 58.3882C87.6262 58.3882 87.1049 58.1927 86.7139 57.8017C86.3305 57.403 86.1389 56.8663 86.1389 56.1917H86.9554C86.963 56.6287 87.0704 56.9852 87.2774 57.2612C87.492 57.5372 87.8255 57.6752 88.2779 57.6752C88.7072 57.6752 89.0254 57.5487 89.2324 57.2957C89.4394 57.0427 89.5429 56.7283 89.5429 56.3527V50.2692H90.3479ZM92.0041 54.2827C92.0041 53.493 92.1766 52.7877 92.5216 52.1667C92.8666 51.538 93.3381 51.0512 93.9361 50.7062C94.5341 50.3535 95.2011 50.1772 95.9371 50.1772C96.8341 50.1772 97.6008 50.3918 98.2371 50.8212C98.8811 51.2428 99.3488 51.8408 99.6401 52.6152H98.6971C98.4671 52.0708 98.1145 51.6453 97.6391 51.3387C97.1715 51.032 96.6041 50.8787 95.9371 50.8787C95.3468 50.8787 94.814 51.0167 94.3386 51.2927C93.871 51.5687 93.503 51.9673 93.2346 52.4887C92.9663 53.0023 92.8321 53.6003 92.8321 54.2827C92.8321 54.965 92.9663 55.563 93.2346 56.0767C93.503 56.5903 93.871 56.9852 94.3386 57.2612C94.814 57.5372 95.3468 57.6752 95.9371 57.6752C96.6041 57.6752 97.1715 57.5257 97.6391 57.2267C98.1145 56.92 98.4671 56.4983 98.6971 55.9617H99.6401C99.3488 56.7283 98.8811 57.3225 98.2371 57.7442C97.5931 58.1658 96.8265 58.3767 95.9371 58.3767C95.2011 58.3767 94.5341 58.2042 93.9361 57.8592C93.3381 57.5065 92.8666 57.0197 92.5216 56.3987C92.1766 55.7777 92.0041 55.0723 92.0041 54.2827ZM106.78 50.2692C107.67 50.2692 108.433 50.4302 109.069 50.7522C109.705 51.0742 110.192 51.538 110.529 52.1437C110.867 52.7493 111.035 53.47 111.035 54.3057C111.035 55.1337 110.867 55.8505 110.529 56.4562C110.192 57.0542 109.705 57.5142 109.069 57.8362C108.433 58.1505 107.67 58.3077 106.78 58.3077H104.4V50.2692H106.78ZM106.78 57.6407C107.9 57.6407 108.751 57.3493 109.333 56.7667C109.924 56.1763 110.219 55.356 110.219 54.3057C110.219 53.2477 109.924 52.4235 109.333 51.8332C108.751 51.2352 107.9 50.9362 106.78 50.9362H105.205V57.6407H106.78ZM113.325 50.9247V53.9262H116.372V54.5932H113.325V57.6407H116.717V58.3077H112.52V50.2577H116.717V50.9247H113.325ZM124.674 50.2692L121.627 58.3077H120.707L117.659 50.2692H118.533L121.167 57.4337L123.823 50.2692H124.674ZM130.541 56.3987H126.884L126.183 58.3077H125.332L128.264 50.3727H129.173L132.094 58.3077H131.243L130.541 56.3987ZM130.3 55.7317L128.713 51.3847L127.126 55.7317H130.3ZM139.711 52.6152C139.481 52.0862 139.128 51.6722 138.653 51.3732C138.185 51.0665 137.633 50.9132 136.997 50.9132C136.399 50.9132 135.862 51.0512 135.387 51.3272C134.911 51.6032 134.536 51.998 134.26 52.5117C133.984 53.0177 133.846 53.608 133.846 54.2827C133.846 54.9573 133.984 55.5515 134.26 56.0652C134.536 56.5788 134.911 56.9737 135.387 57.2497C135.862 57.5257 136.399 57.6637 136.997 57.6637C137.556 57.6637 138.059 57.5448 138.503 57.3072C138.956 57.0618 139.316 56.7168 139.584 56.2722C139.86 55.8198 140.017 55.2947 140.056 54.6967H136.675V54.0412H140.907V54.6277C140.868 55.333 140.677 55.9732 140.332 56.5482C139.987 57.1155 139.523 57.564 138.94 57.8937C138.365 58.2233 137.717 58.3882 136.997 58.3882C136.253 58.3882 135.578 58.2157 134.973 57.8707C134.367 57.518 133.888 57.0312 133.535 56.4102C133.19 55.7815 133.018 55.0723 133.018 54.2827C133.018 53.493 133.19 52.7877 133.535 52.1667C133.888 51.538 134.367 51.0512 134.973 50.7062C135.578 50.3535 136.253 50.1772 136.997 50.1772C137.855 50.1772 138.607 50.3918 139.251 50.8212C139.895 51.2505 140.362 51.8485 140.654 52.6152H139.711ZM143.186 50.2692V58.3077H142.381V50.2692H143.186ZM149.287 58.3077L147.298 54.9497H145.814V58.3077H145.009V50.2692H147.424C148.321 50.2692 149 50.4838 149.46 50.9132C149.928 51.3425 150.161 51.906 150.161 52.6037C150.161 53.1863 149.993 53.6847 149.655 54.0987C149.326 54.505 148.835 54.7695 148.183 54.8922L150.253 58.3077H149.287ZM145.814 54.2942H147.436C148.065 54.2942 148.536 54.1408 148.85 53.8342C149.172 53.5275 149.333 53.1173 149.333 52.6037C149.333 52.0747 149.18 51.6683 148.873 51.3847C148.567 51.0933 148.084 50.9477 147.424 50.9477H145.814V54.2942ZM152.564 50.2692V58.3077H151.759V50.2692H152.564Z" fill="#120253" fill-opacity="0.87"/>
</g>
<defs>
<filter id="filter0_d_1_5" x="0.902161" y="13.064" width="155.662" height="54.6503" filterUnits="userSpaceOnUse" color-interpolation-filters="sRGB">
<feFlood flood-opacity="0" result="BackgroundImageFix"/>
<feColorMatrix in="SourceAlpha" type="matrix" values="0 0 0 0 0 0 0 0 0 0 0 0 0 0 0 0 0 0 127 0" result="hardAlpha"/>
<feOffset dy="4"/>
<feGaussianBlur stdDeviation="2"/>
<feComposite in2="hardAlpha" operator="out"/>
<feColorMatrix type="matrix" values="0 0 0 0 0 0 0 0 0 0 0 0 0 0 0 0 0 0 0.06 0"/>
<feBlend mode="normal" in2="BackgroundImageFix" result="effect1_dropShadow_1_5"/>
<feBlend mode="normal" in="SourceGraphic" in2="effect1_dropShadow_1_5" result="shape"/>
</filter>
<filter id="filter1_b_1_5" x="29.2357" y="26.6109" width="36.0456" height="37.1034" filterUnits="userSpaceOnUse" color-interpolation-filters="sRGB">
<feFlood flood-opacity="0" result="BackgroundImageFix"/>
<feGaussianBlur in="BackgroundImageFix" stdDeviation="2"/>
<feComposite in2="SourceAlpha" operator="in" result="effect1_backgroundBlur_1_5"/>
<feBlend mode="normal" in="SourceGraphic" in2="effect1_backgroundBlur_1_5" result="shape"/>
</filter>
<linearGradient id="paint0_linear_1_5" x1="38.1627" y1="14.3077" x2="38.1627" y2="25.547" gradientUnits="userSpaceOnUse">
<stop stop-color="#5328FF" stop-opacity="0.87"/>
<stop offset="1" stop-color="#FF3AC8" stop-opacity="0.74"/>
</linearGradient>
<linearGradient id="paint1_linear_1_5" x1="4.58443" y1="0" x2="4.58443" y2="36.0213" gradientUnits="userSpaceOnUse">
<stop stop-color="#FF3AC8"/>
<stop offset="1" stop-color="#4A3AFF" stop-opacity="0"/>
</linearGradient>
<linearGradient id="paint2_linear_1_5" x1="4.58443" y1="0" x2="4.58443" y2="36.0213" gradientUnits="userSpaceOnUse">
<stop stop-color="#FF3AC8"/>
<stop offset="1" stop-color="#4A3AFF" stop-opacity="0"/>
</linearGradient>
<linearGradient id="paint3_linear_1_5" x1="4.58443" y1="0" x2="4.58443" y2="35.6601" gradientUnits="userSpaceOnUse">
<stop stop-color="#4A3AFF"/>
<stop offset="1" stop-color="#4A3AFF" stop-opacity="0"/>
</linearGradient>
<linearGradient id="paint4_linear_1_5" x1="34.6986" y1="31.372" x2="59.598" y2="59.3821" gradientUnits="userSpaceOnUse">
<stop stop-color="#4A3AFF"/>
<stop offset="1" stop-color="#4A3AFF" stop-opacity="0"/>
</linearGradient>
</defs>
</svg>
