<svg width="380" height="208" viewBox="0 0 380 208" fill="none" xmlns="http://www.w3.org/2000/svg">
<rect width="380" height="208" rx="12" fill="#F3F1FE"/>
<path fill-rule="evenodd" clip-rule="evenodd" d="M199.997 96.0001C202.206 96.0001 203.997 94.2091 203.997 92C203.997 89.791 202.206 88 199.997 88C197.788 88 195.998 89.791 195.998 92C195.998 94.2091 197.788 96.0001 199.997 96.0001ZM172 120H208.001C208.714 120 209.373 119.62 209.731 119.004C210.088 118.387 210.09 117.626 209.737 117.007L201.732 103.007C201.205 102.086 200.051 101.738 199.103 102.21L192.883 105.317L185.787 91.1066C185.443 90.4186 184.731 90.0126 183.967 89.9996C183.199 90.0126 182.505 90.4636 182.183 91.1626L170.184 117.162C169.898 117.781 169.948 118.503 170.315 119.078C170.683 119.652 171.318 120 172 120Z" fill="#BCACF9"/>
</svg>
