<svg width="21" height="21" viewBox="0 0 21 21" fill="none" xmlns="http://www.w3.org/2000/svg">
<path d="M1.06168 6.24464C1.10845 5.22264 1.26847 4.56351 1.48488 4.00402L1.48779 3.99629C1.70224 3.42695 2.03819 2.91119 2.47225 2.48489L2.47834 2.47891L2.48432 2.47282C2.91097 2.0382 3.42692 1.70258 3.99576 1.4887L4.00557 1.48495C4.56379 1.26786 5.22163 1.10843 6.24448 1.06167M1.06168 6.24464C1.01251 7.33659 0.999981 7.67508 0.999981 10.5063C0.999981 13.3381 1.01182 13.6758 1.06165 14.768M1.06168 6.24464L1.06168 6.52008M1.48868 17.0168C1.70257 17.5856 2.03818 18.1015 2.4728 18.5282L2.47888 18.5342L2.48485 18.5402C2.91117 18.9743 3.42695 19.3103 3.9963 19.5247L4.00479 19.5279C4.56352 19.7446 5.22168 19.9041 6.24448 19.9509M1.48868 17.0168L1.48493 17.0069C1.26784 16.4487 1.10842 15.7909 1.06165 14.768M1.48868 17.0168L1.47586 16.9492M1.06165 14.768L1.0784 14.8562M1.06165 14.768L1.06165 14.4919M1.47586 16.9492L1.0784 14.8562M1.47586 16.9492C1.30706 16.5033 1.13323 15.881 1.0784 14.8562M1.47586 16.9492C1.48178 16.9649 1.4877 16.9803 1.4936 16.9955C1.70768 17.5726 2.04687 18.0952 2.4868 18.5256C2.9171 18.9655 3.43945 19.3046 4.01637 19.5187C4.47936 19.699 5.13174 19.8875 6.24432 19.9385C7.36711 19.9896 7.714 20 10.5062 20C13.2985 20 13.6457 19.9896 14.7685 19.9385C15.8824 19.8874 16.534 19.6979 16.9954 19.519C17.5726 19.305 18.0953 18.9657 18.5257 18.5256C18.9655 18.0953 19.3046 17.573 19.5187 16.9961C19.699 16.5331 19.8875 15.8808 19.9385 14.7682C19.9896 13.6454 20 13.2978 20 10.5063C20 7.71472 19.9895 7.36684 19.9384 6.24405C19.8871 5.12427 19.6959 4.47168 19.5161 4.00992C19.2811 3.40322 18.9831 2.94437 18.525 2.48627C18.0678 2.02999 17.6102 1.73179 17.003 1.49654C16.5396 1.31537 15.8866 1.12531 14.7685 1.07406C14.6712 1.06964 14.5798 1.06552 14.4921 1.06168M1.0784 14.8562C1.07685 14.8273 1.0754 14.7981 1.07405 14.7685C1.06962 14.6712 1.06549 14.5797 1.06165 14.4919M6.24448 1.06167C7.33669 1.01184 7.67506 1 10.5062 1C13.3374 1 13.6756 1.01252 14.7676 1.06168M6.24448 1.06167L6.52063 1.06167M14.7676 1.06168L14.4921 1.06168M14.7676 1.06168C15.7897 1.10844 16.449 1.26844 17.0085 1.48487L17.0162 1.48781C17.5856 1.70226 18.1013 2.03821 18.5276 2.47227L18.5335 2.4783L18.5396 2.48422C18.9737 2.91055 19.3096 3.42646 19.5239 3.99596L19.5276 4.00559C19.7446 4.56381 19.9041 5.22165 19.9508 6.2445M6.52063 1.06167L14.4921 1.06168M6.52063 1.06167C7.44549 1.02123 7.95667 1.01253 10.5062 1.01253C13.056 1.01253 13.5671 1.02124 14.4921 1.06168M6.52063 1.06167C6.43285 1.06551 6.34135 1.06964 6.24403 1.07406C5.13005 1.12512 4.47844 1.31464 4.01709 1.49358C3.43768 1.70837 2.91329 2.04936 2.48193 2.49186C2.02811 2.94756 1.73106 3.40422 1.49656 4.0094C1.31537 4.4728 1.12528 5.12614 1.07403 6.24434C1.06962 6.34135 1.06551 6.43257 1.06168 6.52008M19.9508 14.768C19.9041 15.7908 19.7446 16.449 19.5279 17.0077L19.5247 17.0162C19.3102 17.5856 18.9743 18.1013 18.5402 18.5276L18.5341 18.5336L18.5282 18.5397C18.1015 18.9743 17.5856 19.3099 17.0167 19.5238L17.0069 19.5276C16.4487 19.7447 15.7909 19.9041 14.768 19.9509M1.06165 14.4919C1.02121 13.567 1.01251 13.0558 1.01251 10.5063C1.01251 7.95591 1.02121 7.44544 1.06168 6.52008M1.06165 14.4919L1.06168 6.52008M8.81549 14.5881C9.35153 14.8101 9.92605 14.9244 10.5063 14.9244C11.678 14.9244 12.8018 14.4589 13.6304 13.6304C14.4589 12.8018 14.9244 11.678 14.9244 10.5063C14.9244 9.3345 14.4589 8.21072 13.6304 7.38215C12.8018 6.55359 11.678 6.0881 10.5063 6.0881C9.92605 6.0881 9.35153 6.20238 8.81549 6.42442C8.27946 6.64645 7.7924 6.97189 7.38214 7.38215C6.97188 7.79242 6.64644 8.27947 6.4244 8.81551C6.20237 9.35154 6.08809 9.92606 6.08809 10.5063C6.08809 11.0865 6.20237 11.661 6.4244 12.197C6.64644 12.7331 6.97188 13.2201 7.38214 13.6304C7.7924 14.0406 8.27946 14.3661 8.81549 14.5881ZM7.3723 7.37231C8.20347 6.54113 9.33079 6.07418 10.5063 6.07418C11.6817 6.07418 12.809 6.54113 13.6402 7.37231C14.4714 8.20349 14.9383 9.3308 14.9383 10.5063C14.9383 11.6817 14.4714 12.809 13.6402 13.6402C12.809 14.4714 11.6817 14.9383 10.5063 14.9383C9.33079 14.9383 8.20347 14.4714 7.3723 13.6402C6.54112 12.809 6.07417 11.6817 6.07417 10.5063C6.07417 9.3308 6.54112 8.20349 7.3723 7.37231ZM17.434 5.04229C17.434 5.37873 17.3004 5.70139 17.0625 5.93929C16.8246 6.17719 16.5019 6.31084 16.1655 6.31084C15.829 6.31084 15.5064 6.17719 15.2685 5.93929C15.0306 5.70139 14.8969 5.37873 14.8969 5.04229C14.8969 4.70585 15.0306 4.38319 15.2685 4.1453C15.5064 3.9074 15.829 3.77375 16.1655 3.77375C16.5019 3.77375 16.8246 3.9074 17.0625 4.1453C17.3004 4.38319 17.434 4.70585 17.434 5.04229Z" stroke="black" stroke-linejoin="round"/>
</svg>
