<svg width="21" height="20" viewBox="0 0 21 20" fill="none" xmlns="http://www.w3.org/2000/svg">
<path d="M13.8333 6.66675C15.1594 6.66675 16.4312 7.19353 17.3689 8.13121C18.3066 9.0689 18.8333 10.3407 18.8333 11.6667V17.5001H15.5V11.6667C15.5 11.2247 15.3244 10.8008 15.0118 10.4882C14.6993 10.1757 14.2754 10.0001 13.8333 10.0001C13.3913 10.0001 12.9674 10.1757 12.6548 10.4882C12.3423 10.8008 12.1667 11.2247 12.1667 11.6667V17.5001H8.83334V11.6667C8.83334 10.3407 9.36012 9.0689 10.2978 8.13121C11.2355 7.19353 12.5073 6.66675 13.8333 6.66675Z" fill="#424242"/>
<path d="M5.5 7.5H2.16666V17.5H5.5V7.5Z" fill="#424242"/>
<path d="M3.83333 5.00008C4.75381 5.00008 5.5 4.25389 5.5 3.33341C5.5 2.41294 4.75381 1.66675 3.83333 1.66675C2.91286 1.66675 2.16666 2.41294 2.16666 3.33341C2.16666 4.25389 2.91286 5.00008 3.83333 5.00008Z" fill="#424242"/>
</svg>
