<svg id="SvgjsSvg1116" width="360" height="360" xmlns="http://www.w3.org/2000/svg" version="1.1" xmlns:xlink="http://www.w3.org/1999/xlink" xmlns:svgjs="http://svgjs.com/svgjs"><defs id="SvgjsDefs1117"></defs><g id="SvgjsG1118"><svg xmlns="http://www.w3.org/2000/svg" fill="none" viewBox="0 0 3000 3000" width="360" height="360"><path fill="#e7e8ff" d="M2147.18 928.706C2147.18 970.523 2062.84 964.918 2004.46 948.458C1920.13 928.706 1861.74 889.201 1881.2 803.608C1881.2 734.475 1949.32 745.919 2030.41 777.272C2098.53 803.608 2147.18 886.888 2147.18 928.706Z" class="colorE7E8FF svgShape"></path><path fill="#e7e8ff" d="M189.678 2067.68C189.678 2159 231.551 2248.12 282.993 2321.86C362.944 2436.48 505.043 2479.99 644.725 2479.99H2310.38C2407.18 2479.99 2471.28 2343.18 2474.45 2246.38C2479.16 2102.47 2561.39 1939.45 2537.4 1697.3C2500.02 1319.92 2245.81 1204.61 1980.38 1061.35C1714.95 918.091 1886.92 708.441 1430.83 582.65C974.745 456.859 492.489 872.667 507.442 1260.52C522.396 1648.38 189.678 1704.28 189.678 2067.68Z" class="colorE7E8FF svgShape"></path><path fill="#ffffff" d="M1242.66 2479.99H1569.13C1746.2 2415.58 1923.27 2118.73 1760.03 2149.53C1596.8 2180.34 1436.33 2166.34 1649.36 2059.92C1862.4 1953.5 1746.2 1872.29 1649.36 1880.69C1552.53 1889.09 1569.13 1821.88 1607.86 1693.05C1646.6 1564.23 1607.86 1446.61 1499.96 1446.61C1392.06 1446.61 1477.83 1765.87 1392.06 1788.27C1306.29 1810.67 1347.79 1662.25 1242.66 1693.05C1137.52 1723.86 1309.06 2090.72 1242.66 2059.92C1176.26 2029.11 1184.56 1880.69 1065.59 1992.71C970.414 2082.32 1143.98 2354.9 1242.66 2479.99Z" class="colorfff svgShape"></path><path fill="#ffffff" d="M883.74 618.915C883.74 590.5 906.775 567.464 935.191 567.464H1845.68C1874.09 567.464 1897.13 590.5 1897.13 618.915V1786.9C1897.13 1815.32 1874.09 1838.35 1845.68 1838.35H935.191C906.775 1838.35 883.74 1815.32 883.74 1786.9V618.915Z" class="colorfff svgShape"></path><path fill="#280d4a" fill-rule="evenodd" d="M876.028 618.915C876.028 586.241 902.516 559.753 935.19 559.753H1845.68C1878.35 559.753 1904.84 586.241 1904.84 618.915V1786.9C1904.84 1819.58 1878.35 1846.06 1845.68 1846.06H935.19C902.516 1846.06 876.028 1819.58 876.028 1786.9V618.915ZM935.19 575.176C911.034 575.176 891.451 594.759 891.451 618.915V1786.9C891.451 1811.06 911.034 1830.64 935.19 1830.64H1845.68C1869.83 1830.64 1889.41 1811.06 1889.41 1786.9V618.915C1889.41 594.759 1869.83 575.176 1845.68 575.176H935.19Z" clip-rule="evenodd" class="color032068 svgShape"></path><path fill="#280d4a" d="M883.74 618.915C883.74 590.5 906.775 567.464 935.191 567.464H1845.68C1874.09 567.464 1897.13 590.5 1897.13 618.915V741.9H883.74V618.915Z" class="color032068 svgShape"></path><path fill="#ffffff" d="M1041.56 654.682C1041.56 675.326 1024.83 692.061 1004.18 692.061 983.54 692.061 966.805 675.326 966.805 654.682 966.805 634.038 983.54 617.303 1004.18 617.303 1024.83 617.303 1041.56 634.038 1041.56 654.682zM1166.17 654.682C1166.17 675.326 1149.43 692.061 1128.79 692.061 1108.14 692.061 1091.41 675.326 1091.41 654.682 1091.41 634.038 1108.14 617.303 1128.79 617.303 1149.43 617.303 1166.17 634.038 1166.17 654.682zM1290.76 654.682C1290.76 675.326 1274.02 692.061 1253.38 692.061 1232.74 692.061 1216 675.326 1216 654.682 1216 634.038 1232.74 617.303 1253.38 617.303 1274.02 617.303 1290.76 634.038 1290.76 654.682z" class="colorfff svgShape"></path><path fill="#e7e8ff" fill-rule="evenodd" d="M1556.56 882.515H1029.1V867.091H1556.56V882.515zM1556.56 1422.43H1029.1V1407.01H1556.56V1422.43zM1556.56 1571.95H1029.1V1556.53H1556.56V1571.95z" clip-rule="evenodd" class="colorE7E8FF svgShape"></path><path fill="#280d4a" fill-rule="evenodd" d="M1033.86 1042.54C1033.86 1009.87 1060.34 983.382 1093.02 983.382H1604.79C1637.47 983.382 1663.96 1009.87 1663.96 1042.54V1238.67C1663.96 1271.35 1637.47 1297.84 1604.79 1297.84H1093.02C1060.34 1297.84 1033.86 1271.35 1033.86 1238.67V1042.54ZM1093.02 998.805C1068.86 998.805 1049.28 1018.39 1049.28 1042.54V1238.67C1049.28 1262.83 1068.86 1282.41 1093.02 1282.41H1604.79C1628.95 1282.41 1648.53 1262.83 1648.53 1238.67V1042.54C1648.53 1018.39 1628.95 998.805 1604.79 998.805H1093.02Z" clip-rule="evenodd" class="color032068 svgShape"></path><path fill="#280d4a" d="M1340.6 1698.75C1340.6 1670.34 1363.64 1647.3 1392.06 1647.3H1397.14C1425.55 1647.3 1448.59 1670.34 1448.59 1698.75V1703.84C1448.59 1732.25 1425.55 1755.29 1397.14 1755.29H1392.06C1363.64 1755.29 1340.6 1732.25 1340.6 1703.84V1698.75Z" class="color032068 svgShape"></path><path fill="#e7e8ff" fill-rule="evenodd" d="M1532.25 1698.75C1532.25 1666.08 1558.74 1639.59 1591.41 1639.59H1596.49C1629.17 1639.59 1655.65 1666.08 1655.65 1698.75V1703.84C1655.65 1736.51 1629.17 1763 1596.49 1763H1591.41C1558.74 1763 1532.25 1736.51 1532.25 1703.84V1698.75ZM1591.41 1655.01C1567.25 1655.01 1547.67 1674.6 1547.67 1698.75V1703.84C1547.67 1727.99 1567.25 1747.58 1591.41 1747.58H1596.49C1620.65 1747.58 1640.23 1727.99 1640.23 1703.84V1698.75C1640.23 1674.6 1620.65 1655.01 1596.49 1655.01H1591.41Z" clip-rule="evenodd" class="colorE7E8FF svgShape"></path><path fill="#280d4a" fill-rule="evenodd" d="M1261.53 1071.22C1252.25 1056.58 1230.75 1056.96 1221.99 1071.93L1156.84 1183.22C1149.92 1195.05 1137.25 1202.31 1123.54 1202.31H1041.57V1186.89H1123.54C1131.77 1186.89 1139.38 1182.53 1143.53 1175.43L1208.68 1064.13C1223.27 1039.2 1259.09 1038.56 1274.56 1062.96L1332.15 1153.79C1340.69 1167.25 1359.95 1168.26 1369.86 1155.77L1416.3 1097.21C1430.88 1078.84 1458.35 1077.61 1474.5 1094.62L1519.8 1142.3C1524.18 1146.9 1530.25 1149.51 1536.59 1149.51H1652.09V1164.93H1536.59C1526.02 1164.93 1515.91 1160.59 1508.62 1152.92L1463.32 1105.24C1453.62 1095.03 1437.13 1095.77 1428.39 1106.8L1381.94 1165.36C1365.44 1186.16 1333.35 1184.47 1319.13 1162.05L1261.53 1071.22Z" clip-rule="evenodd" class="color032068 svgShape"></path><path fill="#ffffff" d="M2740.76 2125.25H1303.75C1276.22 2125.25 1253.91 2147.56 1253.91 2175.09C1253.91 2202.61 1276.22 2224.93 1303.75 2224.93H2740.76C2768.29 2224.93 2790.6 2202.61 2790.6 2175.09C2790.6 2147.56 2768.29 2125.25 2740.76 2125.25Z" class="colorfff svgShape"></path><path fill="#280d4a" fill-rule="evenodd" d="M1246.19 2175.09C1246.19 2143.3 1271.96 2117.54 1303.75 2117.54H2740.76C2772.55 2117.54 2798.31 2143.3 2798.31 2175.09C2798.31 2206.87 2772.55 2232.64 2740.76 2232.64H1303.75C1271.96 2232.64 1246.19 2206.87 1246.19 2175.09ZM1303.75 2132.96C1280.48 2132.96 1261.62 2151.82 1261.62 2175.09C1261.62 2198.35 1280.48 2217.21 1303.75 2217.21H2740.76C2764.03 2217.21 2782.89 2198.35 2782.89 2175.09C2782.89 2151.82 2764.03 2132.96 2740.76 2132.96H1303.75Z" clip-rule="evenodd" class="color032068 svgShape"></path><path fill="#ffffff" d="M1409.07 2453.34L1462.05 2229.7H1594.15L1495.76 2453.34H1409.07Z" class="colorfff svgShape"></path><path fill="#280d4a" fill-rule="evenodd" d="M1455.95 2221.99H1605.97L1500.79 2461.05H1399.32L1455.95 2221.99ZM1468.15 2237.41L1418.82 2445.63H1490.73L1582.33 2237.41H1468.15Z" clip-rule="evenodd" class="color032068 svgShape"></path><path fill="#ffffff" d="M2619.82 2453.34L2569.35 2229.7H2434.74L2531.49 2453.34H2619.82Z" class="colorfff svgShape"></path><path fill="#280d4a" fill-rule="evenodd" d="M2577.57 2219.41H2419.08L2524.73 2463.63H2632.69L2577.57 2219.41ZM2561.12 2239.99L2606.95 2443.05H2538.25L2450.4 2239.99H2561.12Z" clip-rule="evenodd" class="color032068 svgShape"></path><path fill="#e7e8ff" d="M631.559 544.762L602.301 583.998C600.521 586.385 597.618 587.534 594.774 586.976L558.613 579.881C550.833 578.354 546.14 588.593 552.144 593.993L580.564 619.552C582.639 621.418 583.619 624.293 583.142 627.113L576.012 669.258C574.672 677.181 583.988 682.085 589.263 676.233L618.457 643.845C620.171 641.943 622.656 641.024 625.13 641.377L658.917 646.195C666.528 647.28 670.838 637.348 665.051 632.06L639.924 609.101C637.906 607.257 636.942 604.453 637.375 601.686L645.298 551.059C646.593 542.779 636.49 538.149 631.559 544.762zM2037.39 540.166L2025.94 554.291C2025.25 555.15 2024.11 555.564 2023 555.363L2008.85 552.809C2005.8 552.259 2003.97 555.945 2006.32 557.889L2017.44 567.091C2018.25 567.762 2018.63 568.797 2018.44 569.812L2015.66 584.985C2015.13 587.837 2018.78 589.602 2020.84 587.496L2032.26 575.836C2032.93 575.151 2033.91 574.821 2034.88 574.948L2048.1 576.682C2051.07 577.073 2052.76 573.497 2050.5 571.594L2040.66 563.328C2039.87 562.665 2039.5 561.655 2039.67 560.659L2042.77 542.433C2043.27 539.452 2039.32 537.785 2037.39 540.166z" class="colorE7E8FF svgShape"></path><path fill="#ffffff" d="M2297.1 946.074L2280.49 1024.99V1074.82L2317.87 1108.05L2430.01 1095.59V1020.83L2425.85 933.614C2471.54 875.468 2488.15 763.332 2438.31 705.187C2388.47 647.042 2259.73 638.736 2234.81 775.792C2214.87 885.437 2268.03 934.999 2297.1 946.074Z" class="colorfff svgShape"></path><path fill="#280d4a" fill-rule="evenodd" d="M2328.64 674.869C2290.65 681.992 2254.36 711.366 2242.39 777.172C2223.05 883.562 2274.62 929.254 2299.85 938.868L2306.01 941.214L2288.2 1025.79V1071.36L2320.43 1100.01L2422.29 1088.69V1021.01L2418.01 931.109L2419.79 928.849C2441.55 901.148 2456.69 860.076 2460.22 818.744C2463.76 777.333 2455.54 737.134 2432.46 710.206C2409.35 683.242 2367.48 667.586 2328.64 674.869ZM2325.79 659.709C2370.01 651.418 2417.44 668.988 2444.17 700.168C2470.93 731.385 2479.32 776.327 2475.59 820.056C2471.94 862.773 2456.63 905.737 2433.69 936.076L2437.72 1020.65V1102.49L2315.31 1116.09L2272.78 1078.29V1024.18L2288.27 950.603C2255.2 934.172 2207.91 880.592 2227.22 774.413C2240.17 703.162 2280.72 668.161 2325.79 659.709Z" clip-rule="evenodd" class="color032068 svgShape"></path><path fill="#280d4a" d="M2027.14 2482.77L2069.69 2017.61H2665.32L2724.88 2482.77H2027.14Z" class="color032068 svgShape"></path><path fill="#ffffff" d="M1628.43 1149.58C1628.43 1162.87 1642.28 1185.58 1649.2 1195.27L1640.89 1245.11L1578.6 1253.41C1561.98 1232.65 1512.14 1224.34 1499.68 1191.11C1489.72 1164.53 1517.68 1135.74 1532.91 1128.82L1481.29 1056.54C1475.24 1048.09 1476.66 1036.41 1484.56 1029.65C1492.93 1022.47 1505.52 1023.39 1512.76 1031.71L1582.75 1112.2C1582.75 1114.97 1585.24 1114.7 1595.21 1091.44C1607.67 1062.36 1620.13 1074.82 1628.43 1078.98C1636.74 1083.13 1628.43 1132.97 1628.43 1149.58Z" class="colorfff svgShape"></path><path fill="#280d4a" fill-rule="evenodd" d="M1479.54 1023.79C1491.13 1013.86 1508.56 1015.14 1518.58 1026.65L1582.68 1100.38C1584.11 1097.48 1585.9 1093.58 1588.12 1088.4C1594.64 1073.18 1602.77 1065.04 1613.38 1065.04C1618.05 1065.04 1622.08 1066.72 1625.01 1068.22C1626.48 1068.98 1627.87 1069.79 1629 1070.46L1629.04 1070.48C1630.26 1071.2 1631.12 1071.7 1631.88 1072.08C1635.83 1074.05 1637.44 1077.9 1638.17 1080.19C1639.01 1082.83 1639.42 1085.87 1639.63 1088.88C1640.06 1094.96 1639.77 1102.55 1639.24 1110.14C1638.81 1116.36 1638.21 1122.86 1637.65 1128.84C1637.53 1130.2 1637.4 1131.53 1637.28 1132.83C1636.62 1140 1636.15 1145.85 1636.15 1149.58C1636.15 1154.23 1638.8 1161.78 1643.1 1170.29C1647.22 1178.44 1652.2 1186.2 1655.48 1190.79L1657.33 1193.39L1647.56 1252L1575.3 1261.63L1572.57 1258.23C1569.34 1254.18 1564.12 1250.35 1557.11 1246.25C1552.84 1243.74 1548.43 1241.42 1543.75 1238.97C1540.59 1237.31 1537.32 1235.59 1533.87 1233.7C1517.81 1224.89 1499.79 1213.35 1492.46 1193.82C1486.23 1177.2 1492.14 1160.66 1500.45 1148.29C1506.48 1139.32 1514.37 1131.59 1521.74 1126.45L1475.01 1061.03C1466.65 1049.32 1468.61 1033.16 1479.54 1023.79ZM1590.46 1112.2V1112.14C1590.46 1112.17 1590.46 1112.2 1590.46 1112.2ZM1506.94 1036.77C1502.48 1031.65 1494.73 1031.08 1489.58 1035.5C1484.72 1039.67 1483.84 1046.85 1487.56 1052.06L1544.63 1131.96L1536.1 1135.84C1530 1138.61 1520.24 1146.48 1513.25 1156.89C1506.26 1167.3 1503.17 1178.45 1506.91 1188.41C1512.04 1202.1 1525.16 1211.33 1541.29 1220.17C1544.18 1221.76 1547.26 1223.38 1550.37 1225.02C1555.37 1227.65 1560.44 1230.32 1564.91 1232.94C1570.94 1236.47 1576.88 1240.45 1581.61 1245.23L1634.22 1238.22L1641.08 1197.1C1637.59 1191.97 1633.16 1184.8 1629.34 1177.26C1624.99 1168.67 1620.72 1158.22 1620.72 1149.58C1620.72 1145.01 1621.28 1138.4 1621.92 1131.42C1622.05 1130.08 1622.17 1128.71 1622.3 1127.33C1622.86 1121.36 1623.44 1115.1 1623.86 1109.08C1624.37 1101.61 1624.6 1094.92 1624.25 1089.97C1624.08 1087.68 1623.82 1086.1 1623.55 1085.11C1622.77 1084.69 1622.02 1084.25 1621.36 1083.85L1621.23 1083.78C1620.04 1083.08 1619.01 1082.48 1617.97 1081.95C1615.84 1080.85 1614.42 1080.46 1613.38 1080.46C1612.56 1080.46 1608.24 1080.62 1602.3 1094.48C1597.32 1106.08 1593.93 1112.67 1591.53 1116.05C1590.91 1116.92 1590.14 1117.88 1589.23 1118.71C1588.62 1119.26 1586.51 1121.11 1583.29 1121.11C1578.77 1121.11 1576.49 1117.8 1575.75 1116.01C1575.72 1115.94 1575.7 1115.88 1575.67 1115.82L1506.94 1036.77ZM1623.26 1084.33C1623.26 1084.32 1623.29 1084.36 1623.32 1084.45C1623.28 1084.38 1623.26 1084.33 1623.26 1084.33Z" clip-rule="evenodd" class="color032068 svgShape"></path><path fill="#ffffff" d="M2346.95 1066.52C2290.46 1066.52 2276.34 1022.22 2276.34 1000.07C2236.47 1000.07 2210.36 1019.53 2202.05 1025.07L2135.13 1216.03L2122.67 2021.76C2262.22 2064.95 2438.32 2039.76 2508.92 2021.76L2554.61 1029.14C2527.15 1011.67 2487.05 1004.04 2458.22 1001.33C2444.12 999.998 2431.99 1009.98 2424.78 1022.18C2412.25 1043.37 2387.77 1066.52 2346.95 1066.52Z" class="colorfff svgShape"></path><path fill="#280d4a" fill-rule="evenodd" d="M2208.48 1030.03L2142.82 1217.4L2130.47 2016.06C2263.63 2055.28 2429.14 2033.12 2501.48 2015.66L2546.69 1033.36C2520.97 1018.49 2484.68 1011.56 2457.5 1009C2447.72 1008.08 2437.94 1015.06 2431.42 1026.1C2417.92 1048.95 2391.22 1074.23 2346.95 1074.23C2316.38 1074.23 2296.43 1062.1 2284.34 1046.28C2274.84 1033.87 2270.46 1019.58 2269.11 1008.01C2238.57 1009.95 2217.71 1023.77 2208.48 1030.03ZM2199.45 1017.52C2209.39 1010.75 2236.42 992.354 2276.34 992.354H2284.05V1000.07C2284.05 1009.81 2287.22 1024.68 2296.59 1036.91C2305.67 1048.79 2321.03 1058.81 2346.95 1058.81C2384.32 1058.81 2406.59 1037.8 2418.14 1018.25C2426.03 1004.9 2440.52 991.913 2458.95 993.648C2488.05 996.389 2529.69 1004.14 2558.75 1022.63L2562.52 1025.03L2516.36 2027.82L2510.83 2029.23C2439.66 2047.37 2261.92 2072.93 2120.39 2029.13L2114.87 2027.42L2127.44 1214.66L2195.62 1020.09L2197.77 1018.65C2198.26 1018.33 2198.82 1017.95 2199.45 1017.52Z" clip-rule="evenodd" class="color032068 svgShape"></path><path fill="#ffffff" d="M2201.58 1432C2207.39 1330.32 2239.02 1147.15 2259.84 1037.95C2263.78 1017.25 2246.34 998.644 2226.09 1004.46C2029.09 1061.08 1981.41 1320.13 1919.16 1324.02C1874.84 1326.79 1767.81 1252.8 1698.13 1199.22C1677.18 1183.11 1647.42 1184.58 1628.73 1203.27L1584.2 1247.81C1570.56 1261.45 1565.48 1281.58 1573.05 1299.33C1624.51 1419.96 1769.19 1610.36 1861.01 1656.28C1940.75 1696.15 2004.99 1639.66 2027.14 1606.44C2025.76 1713.04 2023.82 1940.36 2027.14 1996.84C2031.3 2067.44 2027.14 2125.59 2076.98 2133.9C2126.82 2142.2 2222.34 2125.59 2222.34 2108.98C2222.34 2092.36 2193.27 1577.36 2201.58 1432Z" class="colorfff svgShape"></path><path fill="#280d4a" fill-rule="evenodd" d="M2223.96 997.052C2250.74 989.355 2272.23 1014.11 2267.41 1039.39C2246.59 1148.66 2215.05 1331.35 2209.28 1432.44C2205.15 1504.65 2210.32 1669.3 2216.55 1818.45C2220.42 1910.86 2224.7 1997.38 2227.38 2051.66C2229.01 2084.68 2230.06 2105.76 2230.06 2108.98C2230.06 2114.86 2225.96 2118.94 2222.76 2121.33C2219.24 2123.97 2214.57 2126.25 2209.42 2128.24C2199.02 2132.26 2184.97 2135.74 2169.66 2138.38C2139.13 2143.64 2101.83 2145.86 2075.71 2141.5C2061.65 2139.16 2050.89 2133.16 2042.92 2123.95C2035.11 2114.92 2030.43 2103.33 2027.42 2090.49C2022.91 2071.23 2021.82 2047.21 2020.66 2021.59C2020.3 2013.62 2019.93 2005.48 2019.44 1997.29C2016.32 1944.19 2017.82 1741.94 2019.15 1628.8C2006.66 1642.28 1989.57 1656.23 1968.91 1665.77C1938.28 1679.91 1899.8 1684.29 1857.56 1663.17C1810.01 1639.4 1749.99 1579.11 1695.84 1510.6C1641.5 1441.85 1592.04 1363.5 1565.96 1302.35C1557 1281.36 1563.16 1257.94 1578.74 1242.36L1584.2 1247.81L1578.74 1242.36L1623.28 1197.82C1644.8 1176.3 1678.91 1174.72 1702.83 1193.11C1737.56 1219.81 1781.49 1251.51 1822.16 1276.15C1842.5 1288.48 1861.86 1298.94 1878.75 1306.12C1895.9 1313.42 1909.49 1316.89 1918.68 1316.32C1923.76 1316 1929.64 1313.01 1936.72 1306.01C1943.73 1299.07 1951.1 1289 1959.16 1276.28C1967.19 1263.61 1975.66 1248.72 1984.98 1232.32L1985.31 1231.74C1994.51 1215.55 2004.49 1197.97 2015.52 1179.98C2060.04 1107.34 2122.52 1026.21 2223.96 997.052ZM2252.26 1036.5C2255.33 1020.38 2241.94 1007.93 2228.22 1011.88C2132.66 1039.34 2072.8 1116.03 2028.67 1188.04C2017.78 1205.82 2007.9 1223.2 1998.68 1239.44L1998.39 1239.94C1989.12 1256.26 1980.46 1271.49 1972.19 1284.54C1963.95 1297.53 1955.84 1308.78 1947.56 1316.97C1939.35 1325.11 1930.12 1331.06 1919.64 1331.71C1906.66 1332.52 1890.26 1327.79 1872.71 1320.32C1854.88 1312.73 1834.83 1301.87 1814.16 1289.34C1772.81 1264.29 1728.39 1232.21 1693.43 1205.34C1675.45 1191.51 1650.05 1192.86 1634.19 1208.73L1589.65 1253.26C1577.95 1264.96 1573.96 1281.8 1580.14 1296.3C1605.52 1355.79 1654.13 1432.95 1707.94 1501.04C1761.96 1569.38 1820.19 1627.24 1864.46 1649.38C1901.97 1668.13 1935.48 1664.21 1962.44 1651.77C1989.71 1639.18 2010.28 1617.82 2020.73 1602.16L2035.19 1580.46L2034.85 1606.54C2033.47 1713.32 2031.54 1940.26 2034.84 1996.39C2035.36 2005.28 2035.76 2013.86 2036.13 2022.1C2037.28 2047.29 2038.29 2069.23 2042.44 2086.97C2045.14 2098.53 2049.03 2107.44 2054.58 2113.86C2059.98 2120.1 2067.39 2124.48 2078.25 2126.29C2101.97 2130.24 2137.35 2128.3 2167.04 2123.18C2181.84 2120.63 2194.79 2117.36 2203.86 2113.85C2208.44 2112.08 2211.62 2110.4 2213.52 2108.98C2214.06 2108.58 2214.41 2108.27 2214.62 2108.05C2214.49 2102.99 2213.52 2083.6 2212.07 2054.21C2209.4 2000.4 2205.07 1913.11 2201.14 1819.09C2194.92 1670.25 2189.7 1504.71 2193.88 1431.56C2199.72 1329.3 2231.46 1145.64 2252.26 1036.5ZM2214.91 2107.71C2214.91 2107.71 2214.9 2107.72 2214.88 2107.75C2214.9 2107.72 2214.91 2107.71 2214.91 2107.71Z" clip-rule="evenodd" class="color032068 svgShape"></path><path fill="#ffffff" d="M2400.93 1427.85C2403.99 1351.48 2442.38 1145.22 2465.77 1028.54C2468.98 1012.51 2484.24 1001.72 2500 1006.1C2715.26 1065.91 2886.17 1434.28 2870.25 1581.52C2856.96 1704.45 2759.5 1898.55 2712.43 1980.23C2715.2 2030.07 2715.75 2131.41 2695.81 2138.05C2670.89 2146.36 2454.93 2138.05 2442.47 2113.13C2430.01 2088.21 2396.78 1531.68 2400.93 1427.85Z" class="colorfff svgShape"></path><path fill="#280d4a" fill-rule="evenodd" d="M2497.94 1013.53C2487.07 1010.51 2475.78 1017.81 2473.33 1030.06C2449.89 1147 2411.66 1352.55 2408.64 1428.16C2406.58 1479.6 2413.81 1644.24 2423.17 1799.62C2427.84 1877.2 2433.03 1952.28 2437.82 2009.5C2440.22 2038.12 2442.52 2062.21 2444.59 2079.89C2445.63 2088.74 2446.61 2095.9 2447.5 2101.18C2447.95 2103.83 2448.37 2105.92 2448.74 2107.47C2449.06 2108.82 2449.28 2109.46 2449.35 2109.63C2449.44 2109.74 2449.89 2110.26 2451.19 2111.08C2452.83 2112.11 2455.25 2113.25 2458.54 2114.45C2465.11 2116.83 2474.19 2119.08 2485.21 2121.12C2507.19 2125.2 2535.81 2128.29 2565.01 2130.36C2594.18 2132.42 2623.72 2133.45 2647.47 2133.45C2659.35 2133.45 2669.7 2133.2 2677.8 2132.69C2686.16 2132.17 2691.27 2131.42 2693.33 2130.75C2693.32 2130.74 2694.21 2130.28 2695.57 2127.75C2697.02 2125.07 2698.43 2121.09 2699.71 2115.79C2702.26 2105.23 2703.94 2090.9 2704.94 2074.86C2706.92 2042.87 2706.1 2005.4 2704.73 1980.66L2704.6 1978.36L2705.74 1976.38C2729.15 1935.77 2765.14 1867.09 2796.92 1793.29C2828.78 1719.32 2856.07 1640.95 2862.58 1580.69C2866.4 1545.39 2859.03 1495.92 2842.01 1440.16C2825.04 1384.57 2798.68 1323.38 2765.13 1264.86C2697.76 1147.37 2602.55 1042.59 2497.94 1013.53ZM2458.21 1027.03C2462.18 1007.21 2481.41 992.927 2502.07 998.666C2612.72 1029.41 2710.58 1138.73 2778.51 1257.19C2812.6 1316.65 2839.43 1378.9 2856.76 1435.65C2874.03 1492.24 2882.06 1544.03 2877.92 1582.35C2871.14 1645.02 2843.05 1725.17 2811.09 1799.39C2779.56 1872.61 2743.93 1940.8 2720.25 1982.09C2721.57 2007.18 2722.3 2044 2720.33 2075.81C2719.32 2092.17 2717.57 2107.54 2714.7 2119.41C2713.28 2125.32 2711.49 2130.73 2709.15 2135.06C2706.92 2139.21 2703.52 2143.61 2698.25 2145.37C2694.04 2146.77 2686.97 2147.57 2678.76 2148.08C2670.23 2148.62 2659.53 2148.88 2647.47 2148.88C2623.32 2148.88 2593.42 2147.83 2563.92 2145.74C2534.46 2143.66 2505.19 2140.52 2482.4 2136.29C2471.03 2134.18 2461 2131.75 2453.27 2128.95C2449.42 2127.54 2445.89 2125.96 2442.99 2124.14C2440.2 2122.39 2437.26 2119.97 2435.57 2116.58C2434.76 2114.96 2434.18 2112.92 2433.74 2111.06C2433.26 2109.04 2432.78 2106.58 2432.3 2103.76C2431.34 2098.1 2430.33 2090.65 2429.28 2081.69C2427.17 2063.76 2424.86 2039.47 2422.45 2010.79C2417.64 1953.4 2412.45 1878.19 2407.77 1800.55C2398.44 1645.47 2391.13 1479.93 2393.23 1427.54C2396.31 1350.41 2434.88 1143.44 2458.21 1027.03Z" clip-rule="evenodd" class="color032068 svgShape"></path><path fill="#ffffff" d="M2448.17 1989.6C2422.08 1978.33 2410.07 1948.05 2421.34 1921.97L2503.16 1732.58C2514.42 1706.5 2544.71 1694.48 2570.79 1705.75L2848.88 1825.89C2874.97 1837.16 2886.98 1867.44 2875.71 1893.52L2793.89 2082.91C2782.62 2109 2752.34 2121.01 2726.26 2109.74L2448.17 1989.6Z" class="colorfff svgShape"></path><path fill="#280d4a" fill-rule="evenodd" d="M2445.11 1996.68C2415.11 1983.73 2401.3 1948.9 2414.26 1918.91L2496.08 1729.52C2509.03 1699.53 2543.85 1685.72 2573.85 1698.67L2851.94 1818.81C2881.93 1831.77 2895.75 1866.59 2882.79 1896.58L2800.97 2085.97C2788.02 2115.96 2753.19 2129.78 2723.2 2116.82L2445.11 1996.68ZM2428.42 1925.03C2418.84 1947.2 2429.05 1972.94 2451.23 1982.52L2729.32 2102.66C2751.49 2112.24 2777.23 2102.03 2786.81 2079.85L2868.63 1890.47C2878.21 1868.29 2868 1842.55 2845.82 1832.97L2567.73 1712.83C2545.56 1703.25 2519.81 1713.46 2510.23 1735.64L2428.42 1925.03Z" clip-rule="evenodd" class="color032068 svgShape"></path><path fill="#280d4a" d="M2849.48 1432C2823.18 1473.53 2783.03 1588.16 2832.87 1714.42 2857.79 1667.35 2896 1544.97 2849.48 1432zM1782.11 1593.98C1822.25 1584.29 1923.32 1578.2 2006.38 1631.36 1973.16 1668.74 1881.78 1713.59 1782.11 1593.98z" class="color032068 svgShape"></path><path fill="#280d4a" d="M2047.91 1373.86C2039.6 1448.61 2031.29 1544.14 2027.14 1614.74C2007.2 1638 1957.92 1660.43 1935.77 1668.74C1992.25 1605.61 2022.99 1465.23 2047.91 1373.86Z" class="color032068 svgShape"></path><path fill="#ffffff" d="M2526.06 2010.52C2529.38 2000.55 2563.44 1967.6 2580.05 1952.37C2614.66 1948.22 2681.39 1952.37 2671.43 2002.21C2658.97 2064.51 2646.51 2114.35 2580.05 2093.58C2526.89 2076.97 2532.98 2042.36 2542.68 2027.13C2535.75 2025.75 2522.74 2020.49 2526.06 2010.52Z" class="colorfff svgShape"></path><path fill="#280d4a" fill-rule="evenodd" d="M2672.43 1968.24C2679.3 1977.57 2681.84 1989.46 2678.99 2003.72C2675.88 2019.28 2672.7 2034.41 2668.62 2047.92C2664.55 2061.39 2659.44 2073.77 2652.2 2083.61C2644.84 2093.62 2635.24 2101.06 2622.52 2104.3C2609.97 2107.49 2595.2 2106.4 2577.75 2100.94C2549.65 2092.16 2535.33 2077.95 2530.43 2062.12C2526.98 2050.99 2528.55 2040.17 2531.83 2031.66C2529.81 2030.74 2527.79 2029.61 2525.95 2028.25C2523.43 2026.39 2520.83 2023.8 2519.25 2020.28C2517.58 2016.57 2517.32 2012.37 2518.75 2008.08C2519.51 2005.8 2520.89 2003.49 2522.28 2001.45C2523.75 1999.29 2525.58 1996.92 2527.63 1994.45C2531.73 1989.5 2536.97 1983.82 2542.53 1978.06C2553.67 1966.53 2566.46 1954.37 2574.84 1946.69L2576.67 1945.01L2579.14 1944.72C2596.99 1942.57 2623.63 1942.47 2644.95 1949.75C2655.66 1953.4 2665.76 1959.18 2672.43 1968.24ZM2583.42 1959.76C2600.01 1958.04 2622.62 1958.42 2639.97 1964.34C2649.02 1967.43 2655.89 1971.78 2660.01 1977.38C2663.94 1982.72 2666 1990.04 2663.87 2000.7C2660.75 2016.29 2657.7 2030.75 2653.86 2043.46C2650.01 2056.21 2645.51 2066.67 2639.78 2074.48C2634.15 2082.12 2627.4 2087.14 2618.71 2089.35C2609.84 2091.61 2598.13 2091.15 2582.35 2086.22C2557.3 2078.39 2548.08 2066.99 2545.16 2057.56C2542.11 2047.69 2545.16 2037.58 2549.18 2031.27L2555.22 2021.78L2544.19 2019.57C2541.37 2019 2537.58 2017.67 2535.11 2015.84C2533.92 2014.96 2533.46 2014.28 2533.32 2013.96C2533.32 2013.96 2533.31 2013.95 2533.31 2013.95C2533.26 2013.83 2533.16 2013.62 2533.38 2012.96C2533.38 2012.95 2533.39 2012.94 2533.4 2012.9C2533.42 2012.86 2533.44 2012.8 2533.48 2012.72C2533.55 2012.57 2533.65 2012.37 2533.79 2012.11C2534.08 2011.58 2534.49 2010.92 2535.03 2010.12C2536.13 2008.51 2537.63 2006.55 2539.5 2004.29C2543.24 1999.78 2548.18 1994.41 2553.62 1988.78C2563.7 1978.34 2575.23 1967.32 2583.42 1959.76Z" clip-rule="evenodd" class="color032068 svgShape"></path><path fill="#ffffff" d="M2366.63 2482.6L2327.7 2256.96V2482.6H2366.63Z" class="colorfff svgShape"></path><path fill="#280d4a" d="M2421.7 850.55L2425.86 925.308 2430.01 1000.06C2506.42 996.742 2569.83 1031.91 2591.98 1049.9 2621.06 929.459 2521.38 850.55 2521.38 804.864 2521.38 759.179 2500.61 617.97 2359.4 613.817 2253.48 610.701 2224.49 697.403 2222.42 759.584 2222.21 765.908 2227.99 770.559 2233.93 768.368 2262.37 757.87 2298.73 728.665 2320.36 705.713 2326.38 699.33 2338.78 701.372 2342.7 709.22 2352.7 729.249 2367.32 747.795 2377.8 760.471 2379.33 762.326 2380.16 764.633 2380.21 767.04 2380.43 778.816 2381.66 794.794 2383.55 810.575 2384.88 821.643 2400.26 821.602 2403.74 811.011 2407.65 799.104 2412.37 787.716 2417.55 779.945 2434.16 755.026 2459.08 775.792 2459.08 804.864 2459.08 828.122 2434.16 845.012 2421.7 850.55zM2197.43 1016.68C2214.04 1000.07 2232.04 918.387 2238.96 879.623 2245.61 912.849 2280.49 937.768 2297.11 946.074L2284.65 995.913C2251.42 995.913 2212.66 1009.76 2197.43 1016.68z" class="color032068 svgShape"></path><path fill="#ffffff" d="M2654.61 1990.55L2594.45 1966.85C2571.36 1957.76 2558.06 1933.49 2562.73 1909.12C2575.71 1841.52 2592.28 1752.73 2604.44 1681.63L2812.1 1772.57C2788.85 1835.7 2744.27 1923.47 2724.89 1959.46L2715.08 1972.94C2701.29 1991.9 2676.43 1999.15 2654.61 1990.55Z" class="colorfff svgShape"></path><path fill="#280d4a" d="M2621.05 1564.9C2621.05 1528.36 2555.99 1420.93 2525.53 1357.24 2592.43 1556.16 2596.32 1602.88 2565.18 1898.77 2584.64 1801.44 2621.05 1582.34 2621.05 1564.9zM2362.73 944.917C2334.7 957.375 2306.93 950.108 2296.55 944.917L2288.76 983.849C2326.14 983.849 2353.65 957.894 2362.73 944.917zM1368.94 2468.34C1319.1 2378.63 1098.98 2316.51 995.148 2295.75L907.743 2468.34H1368.94z" class="color032068 svgShape"></path><path fill="#ffffff" d="M619.487 1301.69L595.747 1376.02L736.719 1428.7L756.129 1321.43C778.812 1324.03 830.64 1308.28 856.483 1224.46C888.788 1119.67 846.218 987.033 756.496 973.693C666.774 960.354 601.315 1035.98 584.94 1134.48C571.841 1213.28 602.513 1278.78 619.487 1301.69Z" class="colorfff svgShape"></path><path fill="#280d4a" fill-rule="evenodd" d="M648.66 1017.61C620.41 1045.79 600.532 1087.72 592.548 1135.75C579.856 1212.09 609.7 1275.53 625.684 1297.09L628.036 1300.27L605.329 1371.37L730.774 1418.25L749.828 1312.94L757.009 1313.76C775.251 1315.86 824.125 1303.24 849.114 1222.18C864.758 1171.44 862.259 1113.83 845.022 1067.47C827.734 1020.98 796.37 987.418 755.363 981.321C713.171 975.048 676.752 989.587 648.66 1017.61ZM637.768 1006.69C668.929 975.605 710.1 958.999 757.631 966.065C806.345 973.308 841.127 1012.74 859.478 1062.1C877.88 1111.59 880.514 1172.69 863.853 1226.73C839.367 1306.15 791.256 1328.61 762.527 1329.38L742.665 1439.16L586.166 1380.67L610.97 1303.01C592.77 1276.36 564.392 1211.06 577.334 1133.22C585.725 1082.74 606.763 1037.61 637.768 1006.69Z" clip-rule="evenodd" class="color032068 svgShape"></path><path fill="#280d4a" d="M618.947 1297.57C633.423 1305.72 693.029 1308.78 721.022 1309.28C741.611 1306.58 751.799 1288.48 764.481 1257.49C774.627 1232.7 758.527 1212.2 749.209 1205.04C692.217 1153.89 750.745 1104.31 769.16 1101.89C787.884 1099.42 790.478 1135.61 790.936 1168.43C791.088 1179.29 803.554 1181.36 807.733 1171.34C817.194 1148.64 827.98 1124.98 836.842 1107.3C844.984 1091.05 860.145 1080.4 876.571 1072.63C962.263 1032.1 957.381 953.891 936.057 937.521C912.761 919.639 900.079 950.63 816.969 923.855C733.859 897.08 613.36 904.542 560.138 1041.4C506.916 1178.25 600.852 1287.38 618.947 1297.57Z" class="color032068 svgShape"></path><path fill="#ffffff" d="M1672.12 2121.31C1650.58 2029.15 1529.83 2011.06 1472.15 2013.54L1464.46 2121.31H1672.12Z" class="colorfff svgShape"></path><path fill="#280d4a" fill-rule="evenodd" d="M1479.34 2021.06L1472.74 2113.6H1661.94C1649.58 2076.5 1618.74 2053.19 1582.87 2039.11C1547.06 2025.06 1507.31 2020.71 1479.34 2021.06ZM1588.5 2024.76C1629.86 2040.98 1668.06 2070.04 1679.63 2119.56L1681.84 2129.02H1456.17L1464.94 2006.13L1471.82 2005.83C1501.45 2004.56 1547.18 2008.54 1588.5 2024.76Z" clip-rule="evenodd" class="color032068 svgShape"></path><path fill="#ffffff" d="M538.288 1352.96C468.514 1406.12 381.657 1551.36 350.997 1656.48C274.758 1917.88 172.959 2427.85 440.543 2468.34C667.911 2468.62 857.125 2468.46 923.311 2468.34C954.242 2421.7 1011.5 2315.04 993.066 2254.21L982.683 2162.84C1104.22 2216.2 1322.93 2178.76 1448.33 2145.49C1472.29 2139.13 1487.3 2115.91 1484.44 2091.28L1473.62 1998.27C1470.73 1973.38 1450.15 1954.3 1425.18 1952.19C1153.98 1929.24 1083.27 1838.58 1020.06 1751.67C953.611 1660.3 829.014 1460.95 775.022 1415.26C721.03 1369.58 625.506 1286.51 538.288 1352.96Z" class="colorfff svgShape"></path><path fill="#280d4a" fill-rule="evenodd" d="M666.024 1349.13C626.11 1331.66 583.628 1328.11 542.962 1359.1C509.213 1384.81 470.653 1433.44 436.556 1489.26C402.539 1544.94 373.491 1606.9 358.401 1658.64C320.346 1789.12 276.07 1981.16 274.548 2145.32C273.786 2227.46 283.746 2301.83 309.931 2357.9C335.849 2413.4 377.526 2450.82 441.132 2460.63C663.65 2460.9 849.53 2460.75 919.143 2460.64C934.223 2437.42 954.652 2401.33 969.528 2363.76C977.342 2344.02 983.546 2324.07 986.687 2305.49C989.84 2286.83 989.816 2270.08 985.686 2256.45L985.483 2255.78L973.507 2150.39L985.783 2155.78C1044.73 2181.66 1128.2 2185.79 1213.44 2178.96C1298.41 2172.16 1383.97 2154.59 1446.35 2138.03C1466.42 2132.71 1479.22 2113.19 1476.78 2092.17L1465.96 1999.16C1463.51 1978.08 1446.02 1961.69 1424.53 1959.87C1288.17 1948.33 1201.42 1919.71 1140.6 1882.49C1079.73 1845.24 1045.5 1799.76 1013.83 1756.21C993.227 1727.89 966.994 1689.12 939.081 1647.88C921.891 1622.48 904.063 1596.14 886.522 1570.71C863.442 1537.26 840.814 1505.33 820.618 1478.94C800.304 1452.39 782.836 1431.97 770.041 1421.15C769.297 1420.52 768.547 1419.88 767.789 1419.24C740.846 1396.43 705.232 1366.28 666.024 1349.13ZM777.271 1407.06C778.194 1407.84 779.105 1408.61 780.003 1409.37C794.204 1421.39 812.558 1443.02 832.867 1469.56C853.295 1496.26 876.093 1528.44 899.218 1561.96C916.972 1587.69 934.893 1614.17 952.112 1639.62C979.882 1680.65 1005.83 1718.99 1026.3 1747.14C1057.83 1790.49 1090.56 1833.79 1148.65 1869.34C1206.79 1904.91 1290.99 1933.09 1425.83 1944.5C1454.28 1946.91 1477.94 1968.67 1481.28 1997.38L1492.1 2090.39C1495.38 2118.63 1478.16 2145.55 1450.3 2152.94C1387.29 2169.66 1300.79 2187.44 1214.67 2194.34C1134.29 2200.77 1053.19 2197.82 991.811 2174.86L1000.65 2252.67C1005.52 2269.29 1005.21 2288.42 1001.9 2308.06C998.518 2328.04 991.931 2349.07 983.869 2369.43C967.749 2410.15 945.423 2448.95 929.738 2472.6L927.455 2476.05L923.324 2476.05C857.131 2476.17 667.909 2476.33 440.533 2476.05L439.958 2476.05L439.389 2475.97C369.521 2465.39 323.749 2423.94 295.956 2364.43C268.352 2305.32 258.355 2228.27 259.125 2145.18C260.667 1978.89 305.41 1785.24 343.594 1654.32C359.163 1600.94 388.873 1537.73 423.394 1481.22C457.833 1424.84 497.589 1374.28 533.615 1346.83C580.167 1311.36 629.055 1316.12 672.206 1335C713.527 1353.07 750.638 1384.5 777.271 1407.06Z" clip-rule="evenodd" class="color032068 svgShape"></path><path fill="#280d4a" d="M662.889 1847.2C742.631 2006.68 878.857 2117.16 986.841 2166.99L990.994 2245.91C758.413 2106.36 675.349 1921.95 662.889 1847.2Z" class="color032068 svgShape"></path><path fill="#280d4a" d="M1028.37 2179.46C1004.84 2128.23 922.049 2023.29 779.178 2013.33C822.095 2061.78 932.017 2162.84 1028.37 2179.46Z" class="color032068 svgShape"></path><path fill="#ffffff" d="M210.225 2215.24C256.814 2434.65 364.134 2468.42 434.851 2468.42H950.656C1042.17 2468.42 1029.69 2439.64 1029.69 2414.7C1000.57 2290.04 929.858 2240.17 717.712 2177.84C505.565 2115.51 459.808 1866.18 389.093 1704.12C318.377 1542.06 127.031 1537.9 102.072 1571.14C77.1138 1604.39 151.989 1940.98 210.225 2215.24Z" class="colorfff svgShape"></path><path fill="#280d4a" fill-rule="evenodd" d="M121.248 1567.93C114.104 1570.47 110.04 1573.38 108.239 1575.77C107.749 1576.43 106.851 1578.29 106.116 1582.25C105.415 1586.03 104.985 1591.02 104.875 1597.25C104.656 1609.7 105.722 1626.27 107.918 1646.4C112.306 1686.62 121.101 1740.15 132.531 1801.4C151.417 1902.59 177.397 2024.33 202.289 2140.98C207.522 2165.51 212.708 2189.8 217.769 2213.64C240.844 2322.31 278.717 2383.86 318.533 2418.28C358.249 2452.61 400.778 2460.71 434.85 2460.71H950.656C973.218 2460.71 988.854 2458.93 999.645 2456.08C1010.42 2453.24 1015.72 2449.5 1018.49 2446.07C1021.2 2442.71 1022.28 2438.65 1022.51 2433.29C1022.62 2430.58 1022.51 2427.73 1022.35 2424.57C1022.32 2424.13 1022.3 2423.69 1022.28 2423.24C1022.15 2420.82 1022.01 2418.21 1021.98 2415.62C1007.72 2355.13 983.602 2313.45 937.713 2279.07C891.081 2244.13 821.557 2216.39 715.537 2185.24C606.6 2153.23 540.783 2073.21 493.517 1981.93C469.891 1936.3 450.779 1887.62 433.212 1840.43C429.338 1830.03 425.542 1819.7 421.791 1809.5C408.478 1773.29 395.729 1738.61 382.024 1707.2C347.776 1628.71 284.382 1588.45 226.298 1571.8C197.221 1563.47 169.675 1561.12 148.102 1562.79C137.306 1563.63 128.207 1565.47 121.248 1567.93ZM230.549 1556.98C292.057 1574.61 359.694 1617.46 396.161 1701.03C410.067 1732.9 423.027 1768.16 436.367 1804.44C440.094 1814.58 443.851 1824.8 447.667 1835.05C465.197 1882.14 484.042 1930.08 507.214 1974.83C553.542 2064.31 616.677 2140.12 719.885 2170.44C826.012 2201.63 897.918 2229.98 946.961 2266.73C996.533 2303.87 1022.32 2349.23 1037.2 2412.95L1037.4 2413.82V2414.7C1037.4 2417.15 1037.53 2419.64 1037.68 2422.36C1037.7 2422.83 1037.73 2423.3 1037.75 2423.78C1037.91 2426.96 1038.06 2430.45 1037.92 2433.94C1037.62 2441 1036.1 2448.81 1030.49 2455.76C1024.94 2462.64 1016.21 2467.66 1003.58 2470.99C990.973 2474.32 973.851 2476.14 950.656 2476.14H434.85C398.207 2476.14 351.717 2467.35 308.447 2429.94C265.277 2392.63 226.195 2327.58 202.681 2216.84C197.629 2193.05 192.45 2168.78 187.221 2144.28C162.328 2027.63 136.295 1905.63 117.37 1804.23C105.922 1742.89 97.0382 1688.89 92.5858 1648.08C90.3622 1627.69 89.2184 1610.38 89.4543 1596.98C89.5721 1590.29 90.0363 1584.37 90.9514 1579.44C91.8335 1574.68 93.2749 1570.02 95.9049 1566.51C100.344 1560.6 107.719 1556.37 116.093 1553.4C124.651 1550.36 135.149 1548.33 146.906 1547.42C170.44 1545.59 199.83 1548.17 230.549 1556.98Z" clip-rule="evenodd" class="color032068 svgShape"></path></svg></g></svg>