<svg xmlns="http://www.w3.org/2000/svg" viewBox="0 0 128 128" id="quantum-computing"><path d="M27 42h8v2h-8zM31.985 5.994c4.464 0 8.646 2.493 10.46 8.638 1.37-.718 4.025-2.299 8.138-2.299 8.294 0 15.041 6.656 15.041 14.839 0 7.98-6.579 14.828-15.041 14.828H39v2h11.583c9.617 0 17.041-7.798 17.041-16.828 0-9.285-7.645-16.839-17.041-16.839-2.393 0-4.772.503-6.949 1.462-1.877-4.646-6.51-7.801-11.648-7.801-4.801 0-9.244 2.771-11.322 7.059l1.801.871c1.744-3.602 5.481-5.93 9.52-5.93z"></path><path d="m26.302 21.545 1.441-1.387c-8.666-9.015-23.695-2.64-23.695 9.812 0 7.736 6.201 14.03 13.824 14.03H22v-2h-4.128c-6.52 0-11.824-5.396-11.824-12.03 0-10.708 12.862-16.117 20.254-8.425zm72.469-5.015c3.148 0 5.785 1.773 7.107 6.392 1.354-.732 3.07-1.812 5.874-1.812 5.62 0 10.192 4.688 10.192 10.449 0 5.642-4.48 10.44-10.192 10.44H107v2h4.753c6.854 0 12.192-5.736 12.192-12.44 0-6.864-5.47-12.449-12.192-12.449-1.601 0-3.201.329-4.688.959-1.423-3.313-4.686-5.539-8.294-5.539-2.951 0-5.726 1.473-7.421 3.939l1.648 1.133c1.323-1.923 3.481-3.072 5.773-3.072zM97 42h5v2h-5zM94.591 28.138l1.447-1.379C89.79 20.204 78.97 24.83 78.97 33.85c0 5.597 4.467 10.15 9.957 10.15H92v-2h-3.073c-4.388 0-7.957-3.656-7.957-8.15 0-7.232 8.63-10.943 13.621-5.712zM56.219 92.399a4.004 4.004 0 0 0-4.725-1.794l-7.023-7.329-1.443 1.383 6.775 7.07a3.944 3.944 0 0 0-.509 4.667 4.004 4.004 0 0 0 5.461 1.463 3.994 3.994 0 0 0 1.464-5.46zm-2.464 3.728a1.997 1.997 0 1 1-1.999-3.457 1.997 1.997 0 0 1 1.999 3.457zm3.249 4.799a3.981 3.981 0 0 0-1.365 5.608l-2.072 2.743 1.596 1.205 1.949-2.58a3.994 3.994 0 0 0 5.354-5.513 4.003 4.003 0 0 0-5.462-1.463zm2.998 5.19a1.997 1.997 0 1 1-1.999-3.457 1.997 1.997 0 0 1 1.999 3.457zm2.269-20.555a3.995 3.995 0 0 0-1.463 5.46 3.996 3.996 0 0 0 5.462 1.463 3.993 3.993 0 0 0 1.463-5.459 3.95 3.95 0 0 0-1.456-1.438l2.143-5.242 5.354-3.405-1.074-1.688-5.891 3.747-2.469 6.042a3.956 3.956 0 0 0-2.069.52zm2.999 5.19a1.997 1.997 0 1 1 .73-2.727 1.992 1.992 0 0 1-.73 2.727zm5.826 5.975a4 4 0 0 0 4.539 1.848l3.73 6.321 1.723-1.016-3.729-6.319a3.953 3.953 0 0 0 .663-4.831 3.995 3.995 0 0 0-5.461-1.463 3.992 3.992 0 0 0-1.465 5.46zm2.464-3.728a1.997 1.997 0 1 1-.731 2.728 1.993 1.993 0 0 1 .731-2.728z"></path><path d="M39 78.102v28.149l25 14.196 25-14.196V78.102L64 63.905 39 78.102zm48 26.985-23 13.06-23-13.06V79.266l23-13.06 23 13.06v25.821zM11.535 100l-7.248 12.005L11.535 124h14.419l2.123-3.52-1.713-1.033L24.825 122H12.664l-6.041-9.995L12.664 102h12.161l6.041 10.005-2.59 4.281 1.711 1.035 3.215-5.316L25.954 100zM19 72h2v26h-2zM24.022 66c0-2.206-1.794-4-3.998-4-2.205 0-3.999 1.794-3.999 4s1.794 4 3.999 4a4.003 4.003 0 0 0 3.998-4zm-3.998 2a2.001 2.001 0 0 1 0-4 2 2 0 0 1 0 4zM32 74.242l-4 5.177V72h-2c0 2.125.005 16.019 0 26h2V82.291l5.978-7.238L34 63.004 32.021 63 32 74.242zm1.091-19.206c-1.63 0-2.955 1.354-2.955 3.02 0 1.664 1.335 3.019 2.976 3.019 1.618 0 2.935-1.354 2.935-3.019-.001-1.665-1.326-3.02-2.956-3.02zm.02 4.038c-.529 0-.976-.467-.976-1.019 0-.563.429-1.02.955-1.02s.955.457.955 1.02c.001.572-.409 1.019-.934 1.019zM12 98h2V72h-2v6.473l-4-8.751V68H6v2.157l6 13.127V98zM7.031 67c1.653 0 2.999-1.346 2.999-3s-1.346-3-2.999-3-2.999 1.346-2.999 3 1.346 3 2.999 3zm0-4a1 1 0 1 1-.002 2 1 1 0 0 1 .002-2zM19 48h2v11h-2zM32 48h2v5h-2zM6 48h2v11H6zM107 71h2v26h-2zM111.975 65c0-2.206-1.794-4-3.999-4-2.204 0-3.998 1.794-3.998 4s1.794 4 3.998 4a4.004 4.004 0 0 0 3.999-4zm-3.999 2a2 2 0 0 1 0-4 2.001 2.001 0 0 1 0 4zM100.008 97H102V71h-2v8.402l-4-5.153L95.979 63 94 63.004l.022 12.059L100 82.288zM97.872 58.056c0-1.665-1.327-3.02-2.959-3.02s-2.959 1.354-2.959 3.02c0 1.664 1.318 3.019 2.938 3.019 1.643-.001 2.98-1.355 2.98-3.019zm-3.918 0c0-.563.431-1.02.959-1.02s.959.457.959 1.02c0 .552-.448 1.019-.979 1.019-.527-.001-.939-.448-.939-1.019zM123.968 64c0-1.654-1.346-3-2.999-3s-2.999 1.346-2.999 3 1.346 3 2.999 3 2.999-1.346 2.999-3zm-2.999 1a1 1 0 1 1 .002-2 1 1 0 0 1-.002 2zM107 48h2v11h-2zM94 48h2v5h-2zM120 48h2v11h-2zM114 71v26h2V83.283l6-13.101V68h-2v1.747l-4 8.734V71h-2zM117.072 100h-13.909l-1.654 2.844 1.728 1.006 1.076-1.85h11.607l5.8 10.005-5.8 9.995h-11.606l-5.799-9.995 2.85-4.909-1.73-1.004-3.433 5.913 6.96 11.995h13.91l6.96-11.995z"></path></svg>