<svg xmlns="http://www.w3.org/2000/svg" enable-background="new 0 0 100 100" viewBox="0 0 100 100" id="rocket"><path d="M76.4,30.2c-2.1-2.6-8.1-1.7-12.8-0.5c-1.1,0.3-2.2,0.6-3.3,1c0,0,0,0,0,0c-4.1,1.4-8.2,3.2-10.6,4.8
		c-2.9,1.9-5.7,4.4-8.1,6.9c-0.9-0.7-2.7-1.7-5.1-1c-3.6,1.1-6.7,4-9,8.2c-1.7,3.1-2.4,5.9-2.4,6c-0.1,0.3,0,0.6,0.3,0.8
		c0.1,0.1,0.3,0.2,0.5,0.2c0.1,0,0.2,0,0.3-0.1l7.3-2.8c0,0.1,0.1,0.2,0.1,0.3c-2.8,1.7-4.1,4-4.6,5.4c-1.3-0.7-3.8-1.7-6.9-1.2
		c-3.6,0.5-5.9,2.8-6.8,3.8c-0.9-0.3-2.7-0.7-4.7-0.1c-1.3,0.4-2.3,1.3-2.9,2.6C7,65.9,7,67.3,7.5,68.4c0.4,0.9,6.9,11.5,10.5,14.4
		c2.2,1.8,4.3,2.7,6.3,2.7c0.4,0,0.9,0,1.3-0.1c2-0.4,3.3-1.7,4.1-2.4c0.1-0.1,0.1-0.1,0.2-0.2c1.5-1.4,2-3.2,1.6-5.3
		c-0.1-0.6-0.3-1.2-0.5-1.6c1.4-0.3,3.5-1.3,4.4-3.8c0.8-2.4,0.2-4.6-0.4-5.9c1.3-0.1,3.3-0.5,4.9-1.7c0.1,0.1,0.1,0.1,0.2,0.2
		c0.3,0.2,0.7,0.3,1.1,0.3c0,0,0.1,0,0.1,0L39,71.9c-0.1,0.3,0,0.6,0.1,0.8c0.2,0.2,0.4,0.3,0.6,0.3c0,0,0.1,0,0.1,0
		c0.1,0,3-0.4,6.5-1.6c4.8-1.6,8.2-3.9,10.3-6.7c1.3-1.8,1.2-3.6,0.7-4.8c2.4-1.1,4.7-2.3,6.7-3.7c2.3-1.6,5.2-5.2,7.9-9.7
		c2.8-4.6,4.7-9.1,5.1-12.2C77.3,32.5,77.1,31.1,76.4,30.2z M28.8,50.4c1.5-2.7,4.1-6.1,8.1-7.4c1.6-0.5,2.9,0.1,3.5,0.6
		c-2,2.2-3.7,4.2-4.9,5.8c-0.1,0.1-0.2,0.2-0.2,0.3c-0.8,1.1-1.4,1.9-1.6,2.2L27,54.5C27.4,53.5,28,52,28.8,50.4z M38.7,56.6
		c-0.6-0.7-1.8-1.7-3.7-2.8c-0.1-0.1-0.2-0.2-0.2-0.3c0-0.1,0-0.3,0.1-0.4c0.1-0.1,0.6-0.9,1.5-2.1c1.2,0.2,3.7,0.8,5.6,3.1
		L38.7,56.6z M33,65.9c0,0,1.9,2.7,0.9,5.6c-0.9,2.8-4,2.9-4.1,2.9c-0.3,0-0.5,0.2-0.7,0.4c-0.1,0.3-0.1,0.6,0,0.8
		c0,0,2.2,3.5-0.3,5.9c-0.1,0.1-0.1,0.1-0.2,0.2c-1.5,1.4-4.3,4.1-9.6-0.2c-3.3-2.7-9.6-13.1-10-13.9c-0.3-0.6-0.3-1.6,0.1-2.4
		c0.2-0.5,0.8-1.4,1.9-1.8c2.2-0.7,4.1,0.2,4.1,0.3c0.4,0.2,0.8,0.1,1-0.3c0,0,2.2-3.2,6-3.7c3.8-0.5,6.6,1.5,6.6,1.5
		c0.2,0.2,0.5,0.2,0.7,0.1c0.3-0.1,0.4-0.3,0.5-0.6c0,0,1-3.6,4.6-5.6c1.4,0.9,2.4,1.7,2.9,2.2L34.3,60c-0.4,0.3-0.4,0.8-0.1,1.1
		c0.2,0.2,0.4,0.3,0.6,0.3c0.2,0,0.3-0.1,0.5-0.2l2.9-2.2c0.3,1,0.7,2.3,1,4c-2.1,1.8-5.4,1.7-5.5,1.7c-0.3,0-0.6,0.1-0.7,0.4
		C32.8,65.3,32.8,65.7,33,65.9z M41,63.3c0,0-0.1-0.1-0.1-0.2c-0.3-1.7-0.8-3.7-1.3-5.1l3.4-2.6c1.3,2.1,2,4.6,2.1,7.1
		c-1.6,0.4-3,0.7-3.8,0.9C41.1,63.4,41,63.3,41,63.3z M55.4,63.7c-3.6,4.9-11.4,6.8-14.5,7.4l2.2-6.5c2.9-0.7,7.9-2,12.8-4.1
		C56.2,61.2,56.4,62.4,55.4,63.7z M63.1,54.9c-4.8,3.4-11.6,5.7-16.5,7.1c-0.2-2.7-1-5.4-2.4-7.6l3.3-2.6c0.4-0.3,0.4-0.8,0.1-1.1
		c-0.3-0.4-0.8-0.4-1.1-0.1L43.3,53c-1.9-2.3-4.2-3.2-5.8-3.5c1.2-1.5,2.7-3.4,4.5-5.3c0,0,0,0,0.1,0c0.1-0.1,0.1-0.1,0.2-0.2
		c2.4-2.5,5.2-5.1,8.2-7.1c2.3-1.5,6.2-3.2,10.1-4.6c3.4,0.3,6.3,1.6,8.4,3.7c2.5,2.5,2.8,6.7,2.7,7.8c-0.4,0.7-0.7,1.3-1.1,2
		C68,49.9,65.2,53.4,63.1,54.9z M75.5,34.1c-0.3,1.8-1.1,4.3-2.4,6.9c0-0.2-0.1-0.4-0.1-0.6c-0.5-2.3-1.5-4.2-2.8-5.6
		c-1.6-1.7-3.7-2.9-6.2-3.6c5.8-1.5,9.9-1.6,11.1-0.1C75.5,31.7,75.7,32.8,75.5,34.1z"></path><path d="M57.9 38.6c-3.2 0-5.7 2.6-5.7 5.7 0 3.2 2.6 5.7 5.7 5.7 3.2 0 5.7-2.6 5.7-5.7C63.7 41.1 61.1 38.6 57.9 38.6zM57.9 48.4c-2.3 0-4.1-1.9-4.1-4.1 0-2.3 1.9-4.1 4.1-4.1s4.1 1.9 4.1 4.1C62.1 46.6 60.2 48.4 57.9 48.4zM51.6 27.3c.2 0 .3 0 .5-.1L68.3 16c.4-.3.5-.8.2-1.1-.3-.4-.8-.5-1.1-.2L51.1 25.8c-.4.3-.5.8-.2 1.1C51.1 27.2 51.3 27.3 51.6 27.3zM92.7 16.2c-.3-.3-.8-.4-1.1-.1L80.8 25c-.3.3-.4.8-.1 1.1.2.2.4.3.6.3.2 0 .4-.1.5-.2l10.7-8.9C92.9 17 92.9 16.5 92.7 16.2zM90.8 38.8l-15.5 15c-.3.3-.3.8 0 1.1.2.2.4.2.6.2.2 0 .4-.1.6-.2l15.5-15c.3-.3.3-.8 0-1.1C91.7 38.5 91.1 38.5 90.8 38.8z"></path></svg>