<svg xmlns="http://www.w3.org/2000/svg" width="64" height="64" id="startup"><path style="line-height:normal;text-indent:0;text-align:start;text-decoration-line:none;text-decoration-style:solid;text-decoration-color:#000;text-transform:none;block-progression:tb;white-space:normal;isolation:auto;mix-blend-mode:normal;solid-color:#000;solid-opacity:1" d="M23.5 992.36a.5.5 0 0 0-.492.506v.5h-.5a.5.5 0 1 0 0 1h.5v.5a.5.5 0 1 0 1 0v-.5h.5a.5.5 0 1 0 0-1h-.5v-.5a.5.5 0 0 0-.508-.506Zm14.014 1.014c-.823 0-1.5.677-1.5 1.5 0 .822.677 1.5 1.5 1.5.822 0 1.5-.678 1.5-1.5 0-.823-.678-1.5-1.5-1.5zm0 1c.282 0 .5.218.5.5 0 .282-.218.5-.5.5a.493.493 0 0 1-.5-.5c0-.282.218-.5.5-.5zm-19.264 3.004c-.36.016-.645.11-.842.265-.526.415-.54 1.215-.193 2.364.347 1.148 1.087 2.66 2.238 4.525.318.515.664 1.046 1.026 1.586a14.922 14.922 0 0 0-2.479 8.248c0 1.106.13 2.19.367 3.242-1.82-.8-2.922-1.662-3.248-2.367-.236-.51-.19-.927.223-1.459.413-.532 1.25-1.118 2.535-1.644l-.404-.926c-1.376.564-2.35 1.197-2.928 1.941-.579.745-.706 1.665-.328 2.483.585 1.266 2.115 2.311 4.486 3.205a15.025 15.025 0 0 0 6.354 8.185c-.233.183-.47.375-.698.547-1.735 1.313-3.143 2.172-4.078 2.582-.467.205-.801.297-1.04.322-.24.025-.42 0-.577-.12-.316-.236-.421-.878-.11-1.932.313-1.054 1.01-2.504 2.126-4.319l-1.268.16c-1.142 1.86-1.873 3.363-2.21 4.503-.339 1.14-.315 1.932.226 2.335.27.202.701.29 1.248.233.546-.058 1.174-.254 1.838-.545 1.326-.582 2.855-1.548 4.685-2.934.175-.132.356-.28.533-.418v4.922H24.5a.5.5 0 0 0-.5.5v1.602c-.577.215-1 .755-1 1.398 0 .644.423 1.181 1 1.397v1.205c-.577.215-1 .755-1 1.398 0 .644.423 1.181 1 1.397v1.603a.5.5 0 0 0 .5.5H27v1.5a.5.5 0 0 0 .5.5H30v1h1v-1h4v1h1v-1h2.5a.5.5 0 0 0 .5-.5v-1.5h2.5a.5.5 0 0 0 .5-.5v-1.603c.577-.216 1-.753 1-1.397 0-.643-.423-1.183-1-1.398v-1.205c.577-.216 1-.753 1-1.397 0-.643-.423-1.183-1-1.398v-1.602a.5.5 0 0 0-.5-.5h-1.232v-4.922c.177.138.358.286.533.418 1.83 1.386 3.359 2.352 4.685 2.934.664.29 1.292.487 1.838.545.547.058.978-.031 1.248-.233.541-.403.565-1.196.227-2.335-.338-1.14-1.069-2.644-2.211-4.502l-1.268-.16c1.115 1.814 1.813 3.264 2.125 4.318.312 1.054.207 1.696-.11 1.931-.157.118-.336.147-.575.121-.24-.025-.574-.117-1.041-.322-.935-.41-2.343-1.269-4.078-2.582-.228-.172-.465-.364-.698-.547a15.051 15.051 0 0 0 5.899-6.927c1.55-.405 2.82-.879 3.777-1.422 1.061-.603 1.78-1.29 2.063-2.11.14-.41.15-.843.04-1.267a3.034 3.034 0 0 0-.665-1.221c-.66-.76-1.704-1.439-3.149-2.072l-.379.914c1.36.596 2.285 1.23 2.782 1.803.496.572.59 1.01.425 1.49-.165.48-.685 1.05-1.63 1.588-.717.407-1.67.793-2.84 1.138a14.82 14.82 0 0 0 .734-4.574c0-3.047-.915-5.88-2.479-8.248.362-.54.708-1.07 1.026-1.586 1.15-1.865 1.89-3.377 2.238-4.525.348-1.149.333-1.95-.193-2.364-.263-.207-.681-.304-1.223-.253-.541.05-1.173.24-1.834.527-1.322.572-2.842 1.53-4.668 2.906l.836.29c1.729-1.304 3.13-2.154 4.053-2.554.461-.2.788-.286 1.023-.308.236-.022.415.01.57.133.312.245.406.9.085 1.963-.322 1.063-1.029 2.52-2.153 4.341-.117.19-.251.389-.375.582-2.742-3.584-7.05-5.908-11.906-5.908-4.857 0-9.164 2.324-11.906 5.908-.124-.193-.258-.392-.375-.582-1.124-1.821-1.83-3.278-2.153-4.341-.321-1.064-.225-1.718.086-1.963.156-.123.335-.155.57-.133.236.022.563.109 1.024.308.923.4 2.322 1.25 4.05 2.553l.839-.289c-1.826-1.376-3.348-2.334-4.67-2.906-.661-.286-1.29-.476-1.832-.527a2.792 2.792 0 0 0-.383-.012zm-5.174 1.988a.5.5 0 0 0-.35.86l.354.353-.353.354a.5.5 0 1 0 .707.707l.353-.354.354.354a.5.5 0 1 0 .707-.707l-.354-.354.354-.353a.5.5 0 0 0-.364-.86.5.5 0 0 0-.343.152l-.354.354-.353-.354a.5.5 0 0 0-.358-.152zm19.924.996c4.669 0 8.79 2.288 11.332 5.797-2.532 3.786-6.17 8.172-9.99 12.207h-2.684c-3.248-3.43-6.35-7.101-8.765-10.459 2.13-3.33 5.855-5.54 10.107-5.54v-1c-4.455 0-8.387 2.246-10.73 5.667-.204-.293-.41-.589-.602-.875 2.543-3.509 6.663-5.797 11.332-5.797zm20.5 4.998a.5.5 0 0 0-.492.506v.5h-.5a.5.5 0 1 0 0 1h.5v.5a.5.5 0 1 0 1 0v-.5h.5a.5.5 0 1 0 0-1h-.5v-.5a.5.5 0 0 0-.508-.506Zm-32.404 1.657c.203.291.423.59.636.886a12.92 12.92 0 0 0-1.732 6.463h1c0-2.02.503-3.92 1.383-5.59 2.32 3.132 5.127 6.446 8.101 9.59H28v1h2v.746c-3.156-.266-6.196-.759-8.768-1.486a24.078 24.078 0 0 1-1.73-.565 13.983 13.983 0 0 1-.502-3.695c0-2.7.775-5.212 2.096-7.35zm23.808 0a13.932 13.932 0 0 1 2.096 7.35 13.979 13.979 0 0 1-.889 4.884c-.01 0-.02.01-.03.01-2.873.691-6.416 1.03-10.081 1.066v-.959h2v-1h-2.484c3.536-3.738 6.879-7.742 9.388-11.35zm11.172 10.35a.5.5 0 0 0-.35.859l.354.353-.353.354a.5.5 0 1 0 .707.707l.353-.354.354.354a.5.5 0 1 0 .707-.707l-.354-.354.354-.353a.5.5 0 0 0-.364-.86.5.5 0 0 0-.343.153l-.354.353-.353-.353a.5.5 0 0 0-.358-.153zm-36.185 1.888c.353.113.714.225 1.097.334 2.67.755 5.787 1.266 9.012 1.539v1.603a77.743 77.743 0 0 1-4.143 3.66 13.992 13.992 0 0 1-5.966-7.136zm11.109.111h.432c.287.297.568.595.857.887-.43-.021-.86-.037-1.289-.066v-.82zm1.605 0h.79c-.133.137-.262.28-.395.416-.133-.135-.262-.28-.395-.416zm1.963 0H35v.961c-.455 0-.905.01-1.361-.01.312-.315.619-.634.93-.955zm11.057 1.022a13.984 13.984 0 0 1-5.482 6.003 77.74 77.74 0 0 1-4.143-3.66v-1.392c3.446-.035 6.785-.339 9.625-.951zM31 1021.2c.178.012.357.017.535.027-.178.176-.357.35-.535.524v-.551zm1.654.084c.244.01.487.03.73.037.54.53 1.078 1.075 1.616 1.58v9.461h-4v-9.46c.55-.518 1.102-1.075 1.654-1.618zm1.926.057H35v.412l-.42-.412zm16.92 2.025c-.823 0-1.5.678-1.5 1.5 0 .823.677 1.5 1.5 1.5s1.5-.677 1.5-1.5c0-.822-.677-1.5-1.5-1.5zm-21.5.436v8.56h-3.268v-5.48l-.17-.09c1.115-.9 2.272-1.927 3.438-2.99zm6 0c1.166 1.063 2.323 2.09 3.438 2.99l-.17.09v5.48H36v-8.56zm-28.5.558a.5.5 0 0 0-.492.506v.5h-.5a.5.5 0 1 0 0 1h.5v.5a.5.5 0 1 0 1 0v-.5h.5a.5.5 0 1 0 0-1h-.5v-.5a.5.5 0 0 0-.508-.506Zm44 .01c.282 0 .5.218.5.5 0 .282-.218.5-.5.5a.493.493 0 0 1-.5-.5c0-.282.218-.5.5-.5zm-26.5 8.996h16v1H25v-1zm24.5.998a.5.5 0 0 0-.492.506v.5h-.5a.5.5 0 1 0 0 1h.5v.5a.5.5 0 1 0 1 0v-.5h.5a.5.5 0 1 0 0-1h-.5v-.5a.5.5 0 0 0-.508-.51Zm-24.945 1.002h16.89c.33 0 .555.23.555.5 0 .271-.224.5-.555.5h-16.89c-.33 0-.555-.229-.555-.5 0-.27.224-.5.555-.5zm-11.041.012c-.823 0-1.5.678-1.5 1.5 0 .823.677 1.5 1.5 1.5.822 0 1.5-.677 1.5-1.5 0-.822-.678-1.5-1.5-1.5zm0 1c.282 0 .5.218.5.5 0 .282-.218.5-.5.5a.493.493 0 0 1-.5-.5c0-.282.218-.5.5-.5zm11.486.984h16v1H25v-1zm-.445 2h16.89c.33 0 .555.23.555.5s-.224.5-.555.5h-16.89c-.33 0-.555-.23-.555-.5s.224-.5.555-.5zm.445 2h16v1h-2.45a.5.5 0 0 0-.05 0h-11a.5.5 0 0 0-.05 0H25v-1zm3 2h10v1H28v-1z" color="#000" enable-background="accumulate" font-family="sans-serif" font-weight="400" overflow="visible" transform="translate(0 -988.362)"></path></svg>