<svg id="SvgjsSvg1451" width="360" height="360" xmlns="http://www.w3.org/2000/svg" version="1.1" xmlns:xlink="http://www.w3.org/1999/xlink" xmlns:svgjs="http://svgjs.com/svgjs"><defs id="SvgjsDefs1452"></defs><g id="SvgjsG1453"><svg xmlns="http://www.w3.org/2000/svg" data-name="Layer 1" viewBox="0 0 517 516" width="360" height="360"><g data-name="team work" fill="#000000" class="color000 svgShape"><path d="M276.43 141.75a40.35 40.35 0 0 0-14.18-16.3 45.16 45.16 0 0 0-25.08-7.75 42.59 42.59 0 0 0-16.32 3.09 37.19 37.19 0 0 0-19.31 16.75 34.6 34.6 0 0 0-4.37 16.32 35.66 35.66 0 0 0 1.45 10.3 37.72 37.72 0 0 0 7.84 14.55 44.56 44.56 0 0 0 51 11.76 37.81 37.81 0 0 0 15.73-12.39 34.77 34.77 0 0 0 6.7-17.6 35.16 35.16 0 0 0-3.46-18.73Zm1.13 21.25a33.33 33.33 0 0 1-14.44 22.07 38.94 38.94 0 0 1-17.28 6.55 42.59 42.59 0 0 1-26.55-5.05 38.54 38.54 0 0 1-16.35-16.65 33 33 0 0 1 3.24-35.75 35.87 35.87 0 0 1 13.47-10.54c5.54-2.59 11.39-3.83 15.1-3.76 11.45.08 19.67 2.7 27.08 7.85a37.9 37.9 0 0 1 13.53 16.58 32.33 32.33 0 0 1 2.2 18.7Z" fill="#000000" class="color000 svgShape"></path><path fill="#050300" d="M510.33 185.6a196.2 196.2 0 0 0-21 12.52c-4.35 2.88-8.67 5.81-13.16 8.46a86 86 0 0 1-19.54 8.71 45.17 45.17 0 0 1-9.47 1.74 80.78 80.78 0 0 1-9.84.22c-2.07-.11-2.15-.07-3.12-1.87-1.64-3.06-3.18-6.18-4.73-9.29-.37-.73-.2-1 .56-1.1h.2a92.08 92.08 0 0 0 11.66-2.06 125.21 125.21 0 0 0 18.57-5.69c1.31-.52 2.57-1.15 3.83-1.76a3.76 3.76 0 0 0 1-.67.83.83 0 0 0 .09-1.1.77.77 0 0 0-.86-.39 7.69 7.69 0 0 0-1.31.5 95.45 95.45 0 0 1-13.73 5 124.6 124.6 0 0 1-14.65 3.44c-1.91.32-3.85.47-5.77.73a1.11 1.11 0 0 1-1.27-.72c-.36-.72-.72-1.44-1.12-2.14a2.07 2.07 0 0 0-2.37-1.08c-.92.17-1.88.17-2.77.42a4 4 0 0 1-4.1-1.35c1.57-.57 2.93-1.41 4.61-1.3 2.47.16 4.95.26 7.43.35a11.4 11.4 0 0 0 5.12-.83 7.12 7.12 0 0 0 4.31-7.82 5.07 5.07 0 0 0-1.07-2.36 1.85 1.85 0 0 1-.58-.92c2.33-1.81 2.55-4.46 2.46-7.13.4-.41.82-.23 1.2-.21a85.35 85.35 0 0 1 9.56 1.26c3.23.55 6.43 1.25 9.65 1.9a79.43 79.43 0 0 1 9.69 2.56c1 .34 2 .64 3.08.89a.8.8 0 0 0 .93-.59.85.85 0 0 0-.26-.91 1.39 1.39 0 0 0-.49-.34c-.36-.17-.73-.31-1.11-.46a57.72 57.72 0 0 0-8.83-2.61c-4.51-1-9-1.92-13.59-2.7a79 79 0 0 0-8.57-1.09c-1.59-.09-1.66.09-2-1.79-.51-2.49-1.16-4.95-1.75-7.42 0-.2-.1-.39-.14-.59-.16-.91 0-1.13.8-1.24 1.53-.2 3.06-.39 4.59-.54 3.68-.36 7.36-.37 11.05-.38 4.7 0 9.39 0 14.07.42 3.54.31 7.08.55 10.6 1.08 2.31.36 4.65.6 7 .84 5 .51 10 1 15 1.47 1.87.17 3.75.19 5.63.28a60.55 60.55 0 0 0 6.32.15c.5 0 1-.08 1.51 0a1.25 1.25 0 0 0 .42-1.16c-.08-1.06-.85-.82-1.47-.84-2.38-.1-4.77.17-7.15-.16q-9.12-.53-18.21-1.61-8.38-1-16.78-1.86c-2.67-.28-5.35-.49-8-.56-4.09-.11-8.18-.08-12.27-.08a62.49 62.49 0 0 0-8.43.44c-1.46.2-2.93.33-4.4.46-.91.09-.91.07-1.19-.89 0-.13-.07-.26-.12-.39a2.87 2.87 0 0 1 .23-2.66 9.23 9.23 0 0 0 1-5.66 40.24 40.24 0 0 0-3.77-13.67 43 43 0 0 0-6.46-9.88 74.68 74.68 0 0 0-9.09-8.78 111.45 111.45 0 0 0-11.19-8.16c-2.9-1.8-6-3.27-9-4.83a92.93 92.93 0 0 0-18.83-7.33 39.36 39.36 0 0 0-14.53-1.33 47.91 47.91 0 0 0-7.88 1.44 30.34 30.34 0 0 0-5.76 2.33 52.5 52.5 0 0 0-5.31 3.52 38.3 38.3 0 0 0-4.19 3.44c-3.09 2.88-6.12 5.81-9.16 8.74-1.31 1.25-2.68 2.43-4.05 3.6a2 2 0 0 1-2.35.39c-4.18-1.61-8.46-2.94-12.75-4.22-5.2-1.54-10.44-2.93-15.75-4-2.89-.58-5.79-1.12-8.7-1.55-3.24-.49-6.5-.88-9.78-1.11-2.07-.15-4.14-.42-6.21-.52-3.28-.18-6.56-.29-9.85-.37-3.75-.09-7.5-.1-11.25-.2a178.36 178.36 0 0 0-31.07 1.75A125.27 125.27 0 0 0 207.4 115c-4.6 1.19-9.15 2.54-13.62 4.18a89.27 89.27 0 0 0-13.8 6.44 145.37 145.37 0 0 0-15.8 10.68 80.85 80.85 0 0 0-11.58 10.53c-2.88 3.26-5.61 6.65-8.4 10a21.64 21.64 0 0 0-3.34 5.47 28.42 28.42 0 0 1-1.91 3.52 2.05 2.05 0 0 1-2.06 1.16c-4.35-.06-8.71 0-13.07-.06-.6 0-1.21 0-1.81.07a.87.87 0 0 0-.81.76 1 1 0 0 0 .65 1.1 5.83 5.83 0 0 0 1.38.14h12.67c2.34 0 2.32 0 3.6 2.06a60 60 0 0 0 4 5.75q4.1 5.07 8.23 10.13c.21.25.48.47.38.86a18.91 18.91 0 0 1-5.56.54l-10.05-.31a110.31 110.31 0 0 1-18.4-1.64 15.13 15.13 0 0 0-5.41-.09 6.75 6.75 0 0 0-4.61 2.57 5.78 5.78 0 0 0-.53 6.09 29.38 29.38 0 0 0 4.24 7c2.77 3.35 5.64 6.63 8.48 9.93a42.37 42.37 0 0 1 2.88 3.54c-.18.22-.29.39-.43.53a9.21 9.21 0 0 0-2.18 4.88c-.15 1-.18 1.89 1.1 2.22.26.06.45.46.66.71.62.71 1.24 1.41 1.84 2.13a5.51 5.51 0 0 0 4.34 2.15c.38 0 .81-.14 1.1.26a16.34 16.34 0 0 1-.9 3.71c-.63 2.67-1.12 5.37-1.62 8.06-.75 3.95-1.68 7.86-2.44 11.8q-1.26 6.51-2.31 13.06c-.46 2.84-1 5.66-1.68 8.47-1.09 4.69-2.07 9.41-2.84 14.17a23.49 23.49 0 0 1-4 10 2.49 2.49 0 0 1-.62.76 27.21 27.21 0 0 0-5 4 31.55 31.55 0 0 1-6 4.35c-4 2.27-8.14 4.05-12.27 6-4.8 2.2-9.75 4.07-14.46 6.47-3.93 2-8 3.78-11.87 5.87a50.88 50.88 0 0 0-6.78 4.28 7.9 7.9 0 0 0-2.52 3.07c-.6 1.34-1.09 2.73-1.68 4.07a8.11 8.11 0 0 0-.32 5.51c.61 2.26 1.24 4.52 2 6.74 1.6 4.69 3 9.42 4.3 14.21 1.53 5.89 3.16 11.76 4.33 17.75a80.52 80.52 0 0 1 1.75 16.16v9.45c.17 3.26 1.45 4.17 3.82 5a15.71 15.71 0 0 0 3 .58.38.38 0 0 1 .27.22.36.36 0 0 1-.09.33 5.72 5.72 0 0 1-2 .93A54.07 54.07 0 0 1 59 414.9c-1.81.08-3.61.18-5.41.42a6 6 0 0 0-4.08 2.32 10.8 10.8 0 0 0-2.06 6.59 5.08 5.08 0 0 0 4.09 5.22 29.42 29.42 0 0 0 5 .74c5.5.26 11 0 16.5 0a55.56 55.56 0 0 0 7.4-.64 21.23 21.23 0 0 0 3.53-.71 5.48 5.48 0 0 0 4-6.19 25.92 25.92 0 0 0-2.24-8.09c-.39-.78-.69-1.59-1-2.39a.85.85 0 0 1 .23-1.08l2.57-2.25a4.63 4.63 0 0 0 1.47-4.31c-.43-3.6-1.18-7.14-1.92-10.67A117.09 117.09 0 0 1 85 381.4a26.43 26.43 0 0 1 .06-6c.56-4.11 1.21-8.21 2.08-12.28a8.5 8.5 0 0 0-.13-4.36 24.66 24.66 0 0 0-1.11-3 2.55 2.55 0 0 1 .71-3.42 11.85 11.85 0 0 1 3.54-2.23 34 34 0 0 1 4.58-1.49c6.13-1.67 12.28-3.26 18.4-4.94 7.94-2.18 15.81-4.55 23.61-7.19.25-.08.51-.17.77-.23a1 1 0 0 1 1.26.68c.18.57.32 1.16.45 1.74.23 1 .39 2 .66 2.94 1.69 6.13 3.38 12.26 5.13 18.37.75 2.64 1.69 5.22 2.69 7.77 1.44 3.69 3.22 7.21 5 10.73a76.08 76.08 0 0 0 8.11 13.13c.74.94 1.35 2 2 3-.39.59-.74 1.16-1.14 1.7a3.77 3.77 0 0 0-.64 3 7.84 7.84 0 0 0 .42 1.75 12.41 12.41 0 0 1 .76 5.33c-.08 2.33.15 2.65 2.28 3.53v.19a19.72 19.72 0 0 1-7.6 3.93c-2.39.64-4.83 1.06-7.24 1.63a6.74 6.74 0 0 0-5.3 4.42 11.76 11.76 0 0 0-.46 1.95c-.48 2.89.49 4.79 3.14 6a14.78 14.78 0 0 0 5.44 1.28 72.71 72.71 0 0 0 11-.52c3.73-.35 7.44-1 11.17-1.38a19.81 19.81 0 0 0 4.28-1 6.66 6.66 0 0 0 3.62-2.73 7.31 7.31 0 0 0 .84-6c-.3-1.16-.62-2.33-1-3.47a12.06 12.06 0 0 1-.48-3.77.83.83 0 0 1 .57-.91 1.71 1.71 0 0 0 1.06-1.95c-.07-.8-.06-1.61-.14-2.41q-.78-7.29-1.59-14.58c-.24-2.2-.48-4.4-.75-6.6-.42-3.38-.88-6.77-1.32-10.16-.39-3-.49-6-1-9a12.47 12.47 0 0 1 .17-5.4 19.32 19.32 0 0 0 .55-5.77c-.05-2.9-.78-5.71-1-8.58-.12-1.41-.28-2.81-.46-4.2-.47-3.52-1-7-1.43-10.55-.23-1.8-.39-3.6-.6-5.4-.59-5.06-1.36-10.1-1.56-15.2 0-.31-.15-.66.23-1 .33.11.69.26 1.07.35.86.19 1.31-.11 1.36-.95s.08-1.88.06-2.82c-.12-5.1.13-10.19.41-15.28.24-4.41.66-8.82.66-13.25a18.87 18.87 0 0 1 .22-2.6 3.89 3.89 0 0 1 2.06-3c.4-.22.79-.48 1.17-.72a2.51 2.51 0 0 1 .72 1.24 58.23 58.23 0 0 0 2.61 6.08 47.43 47.43 0 0 0 3.05 5.88 8.68 8.68 0 0 0 2.17 2.35 4.59 4.59 0 0 0 4.94.39 7.33 7.33 0 0 0 2.23-1.68 16.94 16.94 0 0 0 2.66-4 26.66 26.66 0 0 0 1.92-7.15c.66-3.42 1.51-6.8 1.88-10.28a1.67 1.67 0 0 1 1-1.6 2.23 2.23 0 0 0 1-1.44 7.65 7.65 0 0 0 .44-2.56c0-2.21.05-4.43.08-6.64a26.16 26.16 0 0 0-.73-6.17 13.93 13.93 0 0 0-1.95-4.59 19.65 19.65 0 0 0-4.38-4.67c-1.68-1.33-3.41-2.6-5.11-3.91-.32-.24-.67-.5-.51-1a9.42 9.42 0 0 0 0-4.57 2.3 2.3 0 0 1 0-1.57 2.09 2.09 0 0 1 .55.18c3 1.86 6 3.78 9 5.6a109.84 109.84 0 0 0 16.44 8.34 87.33 87.33 0 0 0 18.87 5.34c3.12.45 6.24.87 9.38 1.13a138 138 0 0 0 14.66.54 107.55 107.55 0 0 0 15-1.41c4.24-.68 8.46-1.41 12.65-2.31 2.15-.47 4.3-1 6.46-1.43 3.73-.81 7.45-1.65 11.12-2.7 2.95-.85 5.88-1.76 8.81-2.69a1.77 1.77 0 0 1 1.85.22 130.09 130.09 0 0 0 11.4 7.49c2.79 1.73 5.45 3.64 8.07 5.62.63.48.69.66.28 1.3a7.72 7.72 0 0 0-1.05 2.16A3 3 0 0 0 339 256a8.78 8.78 0 0 0 3.32.74c1.67.08 3.34.25 5 .23a2.58 2.58 0 0 1 2.77 2.08c.11.39.24.77.33 1.16.51 2.15 1 4.3 1.52 6.45.83 3.44 1.7 6.88 2.5 10.34s1.53 6.79 2.23 10.2c.33 1.58.81 3.1 1.28 4.64a3.63 3.63 0 0 1-.71 3.75 10.52 10.52 0 0 0-1.17 1.63c-.89 1.46-.8 2.23.37 3.56a3.81 3.81 0 0 1 1 3.52 44.52 44.52 0 0 1-1.33 5c-.82 2.33-1.62 4.73-.58 7.24a.33.33 0 0 1 0 .19c-.07.17-.13.41-.27.48a2.8 2.8 0 0 1-.94.3 32.6 32.6 0 0 1-5.41.39 22 22 0 0 0-3.79.44 2 2 0 0 0-1.69 1.25 2.79 2.79 0 0 1-1.74 1.55c-.73.32-1.48.61-2.23.88a155 155 0 0 1-15.76 4.71 102.06 102.06 0 0 0-15 4.92 43.25 43.25 0 0 0-6.28 3.13 10.35 10.35 0 0 0-5.17 8.58c-.06 1-.18 2-.2 3a77.25 77.25 0 0 1-1 10.4c-.21 1.32-.54 2.62-.74 3.94-.52 3.31-1 6.63-1.49 9.94-.8 5.37-1.29 10.78-1.56 16.2-.31 6.43-.34 12.87-1 19.28a14.94 14.94 0 0 1-2.21 7 9.84 9.84 0 0 0-1.75 7.05c.11.84 0 .94-.74 1.15q-5 1.41-10.15 2.42c-1.64.32-3.26.74-4.9 1.08-2.62.55-5.15 1.45-7.79 1.91a6.4 6.4 0 0 0-3 1.2 2.38 2.38 0 0 0-.85 2.69 4.75 4.75 0 0 0 .32.73 29.3 29.3 0 0 1 1.55 3.92 3.57 3.57 0 0 0 2.56 2.59 14 14 0 0 0 1.55.37c1.26.23 2.52.41 3.77.64 1.51.28 3 .68 4.54.87a59.08 59.08 0 0 0 11.44.38c2.07-.14 4.15-.28 6.22-.44a23.05 23.05 0 0 1 5.81.31 24.23 24.23 0 0 0 6 .21 16.18 16.18 0 0 0 4.88-1.07 4.65 4.65 0 0 0 1.78-7.46 16.36 16.36 0 0 0-1.63-1.48 1.35 1.35 0 0 1-.57-1.2c0-.74 0-1.48.08-2.21a98.64 98.64 0 0 1 1.61-10.12c.46-2.16 1.1-4.29 1.43-6.47.64-4.18 1.87-8.22 2.67-12.36.34-1.78.8-3.53 1.29-5.27 1.51-5.34 3.12-10.65 5.09-15.85a21.52 21.52 0 0 0 1.74-10.2 1.88 1.88 0 0 1 1.39-2.32 3.13 3.13 0 0 0 2.15-2.89c.06-.53.17-1.06.28-1.58.4-2 .94-2.41 3.18-2.67.58 3.5 1.21 7 2.11 10.41.39 1.49.7 3 1.05 4.5 1.06 4.63 2.08 9.27 3.2 13.89 1.23 5 2.08 10.1 2.92 15.18a51.76 51.76 0 0 0 1.74 7.63 11.17 11.17 0 0 1 .6 5.33 10.6 10.6 0 0 0 .68 5.32 6.82 6.82 0 0 1 .54 2h-3a64.6 64.6 0 0 0-11.62.76c-4.42.79-6.9 3.38-7.53 7.24a5.71 5.71 0 0 0 0 2.18 6 6 0 0 0 2.89 3.94 11.63 11.63 0 0 0 5.13 1.59 48.94 48.94 0 0 0 8-.16 116.21 116.21 0 0 1 16.48 0c4.41.32 8.82.78 13.24.79.61 0 1.21.05 1.81 0a2.26 2.26 0 0 0 2.45-1.94 13.93 13.93 0 0 0-1.43-11.6 2.69 2.69 0 0 1-.41-1.69 23.51 23.51 0 0 0-.53-6.79c-.38-1.76-.86-3.51-1.28-5.26a24.06 24.06 0 0 1-.15-11q1.14-5.2 1.9-10.47c.13-.86.28-1.72.44-2.58a77.72 77.72 0 0 0 1.4-11.16c.22-5.15.25-10.32.1-15.48 0-1.34-.16-2.68-.27-4-.07-.81 0-.9.88-.81a19.16 19.16 0 0 1 9.29 3.47 71 71 0 0 1 6.41 5.17c1.9 1.74 2.09 1.15.43 3.64-.23.33-.41.69-.62 1a6.52 6.52 0 0 0-.42 6 17.26 17.26 0 0 0 1.21 2.53 68.2 68.2 0 0 1 7.11 19.54c.25 1.18.57 2.34.89 3.5a8.91 8.91 0 0 0 2 3.67c.49.55.95 1.12 1.48 1.64a8 8 0 0 1 2.28 4.58 46.26 46.26 0 0 0 1.52 7.27 8.35 8.35 0 0 1 .35 2.18c.21 3.14.36 6.29.58 9.43a1.43 1.43 0 0 1-.79 1.47 9.26 9.26 0 0 0-2.52 2.27 26.69 26.69 0 0 0-5 10.17c-.57 2.29 0 3.32 2.18 4.27a3.41 3.41 0 0 0 .74.31 25.16 25.16 0 0 0 4.55.77c4.62.07 9.25.16 13.87-.23s9.08-.81 13.62-1.11c1.1-.08 1.42-.53 1.71-1.49a21.18 21.18 0 0 0 1.05-6.11 11.85 11.85 0 0 0-1.78-6.5c-.32-.51-.73-1-1-1.49s.26-1.15.19-1.76-.09-1.34-.15-2c-.19-2.07-.62-4.1-.91-6.16-.63-4.51-1.13-9-1.67-13.56-.16-1.27-.37-2.53-.41-3.8-.06-2.27 0-4.55 0-6.83 0-.3-.13-.69.36-.88.37.21.79.4 1.17.65 1.63 1.06 3.23 2.15 4.86 3.21 6 3.91 12 7.77 18.31 11.22a74 74 0 0 1 7.05 4.24 16 16 0 0 1 4.85 5.28c.59 1.05 1.19 2.09 1.76 3.15a2.65 2.65 0 0 0 2.14 1.63c.59 0 .8.41.88.91a40.42 40.42 0 0 1 .48 6.41 10.72 10.72 0 0 1-.67 3.53 26.76 26.76 0 0 1-3.19 6.23c-.67 1-1.35 2-2 3a6.34 6.34 0 0 0-.75 4.45 1.13 1.13 0 0 0 1.19 1.12 6.81 6.81 0 0 0 1 0c1.33-.09 2.68-.12 4-.3a34.59 34.59 0 0 0 8-1.81 8.11 8.11 0 0 0 5.11-5.53c.48-1.6.85-3.23 1.22-4.86.66-2.87 1.2-5.77 2-8.62.52-1.94.92-3.91 1.34-5.87a36.07 36.07 0 0 1 1.71-5.56c.33-.87.62-1.76.88-2.66a5.6 5.6 0 0 0-1.53-5.72c-.56-.58-1.2-1.07-1.75-1.66a5.56 5.56 0 0 1-1.36-2.16 7.85 7.85 0 0 0-5.74-5.39 14.63 14.63 0 0 1-7.64-4.54c-.56-.66-1.19-1.27-1.78-1.91a80.41 80.41 0 0 1-6.6-8.35 21.58 21.58 0 0 0-10.26-8.36 24 24 0 0 1-6.92-4 6.27 6.27 0 0 0-3.44-1.51A4 4 0 0 1 438 370a36.78 36.78 0 0 1-2.71-5.35 36.28 36.28 0 0 1-2.11-4.29c-1.63-3.38-3.67-6.54-5.4-9.85a48.54 48.54 0 0 0-4.64-7.5 5.13 5.13 0 0 1-1.24-3.31c0-.93-.2-1.86-.24-2.8a6.55 6.55 0 0 0-2.18-4.59 42.12 42.12 0 0 0-5.12-4.21c-.21-.14-.41-.3-.67-.5a11.24 11.24 0 0 0 .77-6.56c.45-.45.87-.3 1.26-.32a14.66 14.66 0 0 0 5.26-1.15 4.3 4.3 0 0 0 .71-.36.49.49 0 0 0 .16-.69c-.14-.25-.34-.48-.63-.41a7.57 7.57 0 0 0-1.31.47 12.09 12.09 0 0 1-4.32.82c-1.39.07-1.45-.35-1.58-1.29-.17-1.19-.45-2.37-.67-3.55a1.1 1.1 0 0 1 .1-1c2.32.78 4.68 1.5 7.06 2.16a29.72 29.72 0 0 0 8.76.8c1.61-.05 3.22-.13 4.82-.31 2.25-.26 4.5-.65 6.75-.94a36.31 36.31 0 0 0 9.56-2.9c.61-.26 1.25-.45 1.89-.65 1-.29 1-.28 1.42.51a21.51 21.51 0 0 1 3 10.7 50.31 50.31 0 0 1-.48 8.41 53.39 53.39 0 0 1-2.25 8.74 89.76 89.76 0 0 1-4.83 11 31.54 31.54 0 0 1-7.38 9.17 33.38 33.38 0 0 1-5.5 4c.25 1.1.43 1.21 1.23.8a22.87 22.87 0 0 0 3.6-2.54 33.64 33.64 0 0 0 9.18-10.77 94 94 0 0 0 4.73-10.61 49.59 49.59 0 0 0 2.35-8.71 47.26 47.26 0 0 0 .45-12.23 12.56 12.56 0 0 0-.69-3.53 37 37 0 0 0-2.57-5.44 9.09 9.09 0 0 1-1.24-3.14c-.3-1.78-.7-3.54-1-5.33-.54-3.44-1-6.89-1.53-10.33-.82-5.36-1.55-10.73-1.85-16.15-.1-1.81-.22-3.62-.47-5.41-.48-3.45-.77-6.92-1-10.4s-.45-7.08-.79-10.62a73.79 73.79 0 0 0-2.48-12.59c-.37-1.35-.83-2.68-1.33-4a105.54 105.54 0 0 0-5.73-12.58c-.21-.38-.57-.77-.31-1.31h3.6a56.58 56.58 0 0 0 20.31-3.22 97.2 97.2 0 0 0 14.55-6.7c5-2.81 9.76-6.08 14.57-9.23 4.09-2.66 8.17-5.33 12.37-7.82 3.9-2.32 7.91-4.43 12-6.44v-2a17.87 17.87 0 0 0-3.88 1.65Zm-84 6.41c.16 1.48-.5 2.55-2.38 2.9-1 .19-2.14.13-3.16.38s-1.84.8-2.8 1.08a16.59 16.59 0 0 1-5.56.59 13.06 13.06 0 0 1-6.71-2.44 49.71 49.71 0 0 1-9.37-8.43 23 23 0 0 1-2.19-3.35 5.59 5.59 0 0 1-.65-2.71c0-.4-.05-.8 0-1.2a1.93 1.93 0 0 0-1.17-1.92c-1.6-.86-1.88-1.73-1.23-3.43a14.88 14.88 0 0 1 .62-1.48c.45-.82 1-1.41 2.09-1.05a1.06 1.06 0 0 0 1.33-.61 7.35 7.35 0 0 0 .66-1.46 7.3 7.3 0 0 1 2.81-3.8 22.54 22.54 0 0 1 3.75-2.32 5.61 5.61 0 0 1 4.46-.37c1.14.36 2.24.8 3.35 1.21 0 .48-.39.7-.54 1.06a1.34 1.34 0 0 0 .63 1.86 5.43 5.43 0 0 0 2.13.52c2 .1 4 .6 6 .87.2 0 .39.11.39.35a.54.54 0 0 1-.2.31 8.27 8.27 0 0 0-.92.74.8.8 0 0 0 .46 1.26c.6.07 1.2.09 1.8.1a3.09 3.09 0 0 1 2.33 1 23.2 23.2 0 0 1 4.69 6.45 22.35 22.35 0 0 1 1.66 6c.31 2.2-.58 4.08-1.65 5.87a3 3 0 0 0-.67 2.01Zm-19.5 11.06c1.28.07 1.68.93 1.9 2 .35 1.61 1 3.17 1 4.81-.39.4-.66.09-.94 0-1.48-.58-3-1.17-4.45-1.77-.81-.33-.86-.46-.69-1.38s.36-1.7.5-2.55a7.58 7.58 0 0 0-1.31-6.08 3.28 3.28 0 0 1-.72-1.57c.51-.27 1 0 1.43-.07a2 2 0 0 1 2.24 1.51 32.52 32.52 0 0 0 1.44 3c-.15.14-.22.27-.32.3-.47.14-.91.3-.92.89a.9.9 0 0 0 .8.91Zm2.9 10.33a14.25 14.25 0 0 1-1.1 4.45 20.36 20.36 0 0 1-2.08 3.87 1.05 1.05 0 0 1-1.17.51 47 47 0 0 1-4.83-1.27.56.56 0 0 1-.43-.76c.21-.7.39-1.41.64-2.1a12.16 12.16 0 0 0 .77-3.71c.06-1.72.95-3.15 1.3-4.82a9.88 9.88 0 0 1 1.12.34c1.65.7 3.31 1.42 5 2.14.72.35.78.45.74 1.35Zm-56.5 25.27c-3.1-1.87-6.19-3.73-9.25-5.66a40.23 40.23 0 0 1-4.07-2.92 19.26 19.26 0 0 1-5.56-7.75c-1-2.53-2.12-5.06-3.34-7.52-1.84-3.72-3.44-7.55-4.93-11.41-.87-2.25-1.65-4.53-2.39-6.82-.95-2.92-2.23-5.74-2.92-8.75a108.13 108.13 0 0 0-3.5-10.67 17.82 17.82 0 0 1 .3-12.38 28.32 28.32 0 0 0 2.05-6.28c.12-.93.21-1.86.36-2.79.48-3 1-5.95 1.47-8.92a1.89 1.89 0 0 1 .6-1.43c.23-.16.81.56 1 1.35a19.55 19.55 0 0 1 .25 7.19 18.59 18.59 0 0 0-.26 3.41c0 .39.08.82.58.93s.82-.14 1.08-.68a10.08 10.08 0 0 0 .8-2.9 36.52 36.52 0 0 1 2.07-8.15c.22-.55.53-1.07.8-1.61 1-.43 1.12.42 1.39 1-.14 1.13.17 2.29-.21 3.41a15.51 15.51 0 0 0-.61 2.94c-.4 1.56-.76 3.12-1.15 4.68a3.19 3.19 0 0 0-.12 1.59 1 1 0 0 0 .58.76c.37.13.63-.11.87-.36a4.16 4.16 0 0 0 .88-1.77c.64-2.05 1.3-4.08 2-6.12a15.92 15.92 0 0 1 2.55-4.75c.11-.15.23-.33.47-.28s.26.27.27.46a10.17 10.17 0 0 1-.42 3.37c-.85 2.68-1.67 5.36-2.49 8a5.44 5.44 0 0 0-.41 2 .79.79 0 0 0 1.16.68 2.52 2.52 0 0 0 1.21-1.3c.35-.86.67-1.74 1-2.62a22.23 22.23 0 0 1 1.73-4c.13-.21.25-.49.59-.38s.27.44.29.68a13.92 13.92 0 0 1-.95 5.1 41.43 41.43 0 0 1-4.31 9.69 5.84 5.84 0 0 0-.58 1.27.81.81 0 0 0 .27.91 1 1 0 0 0 .94.15 2.62 2.62 0 0 0 1.16-.76l1.55-1.57a11.71 11.71 0 0 1 3.6-2.52.57.57 0 0 1 .82.54 2 2 0 0 1-.28 1.16c-.35.49-.67 1-1.05 1.46a47.29 47.29 0 0 1-6.37 6.67 4.39 4.39 0 0 0-1.68 3.29 12.13 12.13 0 0 0 .28 3.4 51.1 51.1 0 0 0 2.06 6.5 84 84 0 0 0 5.48 11.59c1.46 2.57 2.65 5.26 4 7.88 1.67 3.28 3.31 6.57 5.22 9.71a15.85 15.85 0 0 0 2.49 3.15 7.63 7.63 0 0 0 2.45 1.71c2.28.95 4.41 2.25 6.83 2.87a5.68 5.68 0 0 1 .9.43 1.37 1.37 0 0 1 .84 1.6 29.25 29.25 0 0 1-1.62 6.41c-.7 1.95-1.51 3.87-2.26 5.8a2.68 2.68 0 0 1-.78 1.21 19 19 0 0 1-3.77-1.88Zm3.23 3.25a48.56 48.56 0 0 1-3 5.85.43.43 0 0 1-.34.14.39.39 0 0 1-.27-.21 15 15 0 0 1-.59-7.3c.07-.28.24-.53.56-.37 1.11.59 2.28 1.21 3.6 1.89Zm-8.86-105.48c-.05-.59 0-1.18 0-1.74.4-.21.55 0 .69.25a21.63 21.63 0 0 1 2.87 8.29 1.91 1.91 0 0 0 .33 1.13c.14.14.63.13.71-.05a1.51 1.51 0 0 0 .19-.55 9.61 9.61 0 0 0-.09-2 14.89 14.89 0 0 1-.09-5.2 12.87 12.87 0 0 1 .81-4.34c.18.13.44.22.48.37a20.57 20.57 0 0 1 1 3.87c.23 2.4.5 4.8.75 7.2 0 .27 0 .54.07.8.07.57.35.93.64.85.49-.14.52-.56.54-1s0-1.08 0-1.61a39.31 39.31 0 0 1 .63-6.4 11 11 0 0 1 .8-2.53 5.85 5.85 0 0 1 .88 3.14 35.65 35.65 0 0 1-.27 6 1.61 1.61 0 0 0 .14 1.35c.08.1.21.24.3.24a.85.85 0 0 0 .53-.19 2.6 2.6 0 0 0 .46-1.71 22.79 22.79 0 0 1 .47-3.58 10.09 10.09 0 0 1 1-2.62.65.65 0 0 1 .48-.3c.31 0 .43.25.49.52a1.75 1.75 0 0 1 0 .4 23.71 23.71 0 0 1-.78 7c-.67 2.38-1.37 4.75-2.18 7.09a12.94 12.94 0 0 0-.47 2.57c-.22 1.66-.39 3.32-.57 5a8 8 0 0 0 0 1.2.62.62 0 0 0 .46.59.56.56 0 0 0 .69-.25c.18-.28.3-.6.47-.89.55-1 1.07-2 1.67-3a6 6 0 0 1 2.94-2.33c.21-.09.58.23.51.45a26.61 26.61 0 0 1-1 2.62c-.76 1.63-1.56 3.25-2.44 4.83a9.84 9.84 0 0 0-1.09 3.42 4.62 4.62 0 0 0 1.2 3.71 16.41 16.41 0 0 0 3.38 2.96c1.34.88 2.74 1.66 4.16 2.41 5 2.67 10.22 5 15 8.14.16.1.31.23.44.33.06.35-.2.33-.37.34a31.16 31.16 0 0 0-16.5 6.69 6.19 6.19 0 0 1-1.93 1.29c-.54-.5-1.08-1-1.61-1.5-5.06-4.89-9.73-10.14-14.41-15.39a30.41 30.41 0 0 1-3.15-4.15 15.84 15.84 0 0 1-2.13-5.58 23.41 23.41 0 0 1 .75-11.12 96.72 96.72 0 0 0 1.54-5.61 20.15 20.15 0 0 0 .5-3.37 59.89 59.89 0 0 0 .11-8.04Zm45.66 30.78c.05.66.06 1.32.1 2.08a3.93 3.93 0 0 0-3.13 2.56.45.45 0 0 1-.74 0 12.52 12.52 0 0 0-3.7-7.18c-2.17-2.18-4.42-4.28-6.62-6.43-1.72-1.69-3.45-3.36-5.33-4.88a6.41 6.41 0 0 1-.56-.59 2.9 2.9 0 0 1 .4-.48 34.6 34.6 0 0 1 11.08-5 20.14 20.14 0 0 1 13.11 1.43c1.08.48 2.12 1.06 3.24 1.62a5.27 5.27 0 0 1-1.64 1.25 15.47 15.47 0 0 0-4.69 4.87A14.44 14.44 0 0 0 393 164c0 1.08.18 2.15.26 3.22Zm-1.57 11a.53.53 0 0 1 .3.66.4.4 0 0 1-.44.32c-1.81 0-3.61-.11-5.41-.18-.17 0-.43.11-.5-.37.62-.52 1.55-.76 2.15-1.46a13.78 13.78 0 0 0 1.49-2.16 4.72 4.72 0 0 1 .22.54 3.47 3.47 0 0 0 2.19 2.63Zm-16-20.55c.76.65 1.42 1.41 2.13 2.12a.34.34 0 0 1 0 .55c-2.32-.85-4.64-1.71-7-2.54a6 6 0 0 0-2.56-.42.85.85 0 0 0-.79.52.9.9 0 0 0 .31 1.06 3.73 3.73 0 0 0 1.48.58 45.65 45.65 0 0 1 12.33 5.23 43.08 43.08 0 0 1 4.06 2.93 6.11 6.11 0 0 1 1.32 2.16c-.25.38-.48.24-.72.12a52.12 52.12 0 0 0-12.6-4 5.32 5.32 0 0 0-.8-.12.9.9 0 0 0-.94.61 1 1 0 0 0 .5 1.19 14.2 14.2 0 0 0 1.71.55c1.37.33 2.75.6 4.11.94a39.9 39.9 0 0 1 8.45 3.12c.51.25.9.55.8 1.21-.06.44-.2.77-.7.82a23.24 23.24 0 0 1-6.61-.28 62 62 0 0 1-8.33-2.21c-1.29-.42-1.41-.35-1.93 1.19a22.63 22.63 0 0 1-6-3.65c-2.05-1.77-2.44-3.4-1.44-5.92a30.87 30.87 0 0 1 1.53-3 24 24 0 0 0 2-4.59 5.34 5.34 0 0 0 .24-2 1.11 1.11 0 0 0-1.36-1.1 5.75 5.75 0 0 0-3.16 1.63l-1.15 1.15c-.23-2-.23-2 2.05-8.83a2.16 2.16 0 0 1 .53.25q6.27 5.35 12.51 10.71Zm9.16 18.95c0 .12 0 .29-.08.35a8.56 8.56 0 0 1-3.37 1.68 1.48 1.48 0 0 1-1.13-.27c-1.9-1-3.81-1.94-5.71-2.9 0-.36.07-.62.51-.41 1.38.28 2.75.57 4.13.83a26.88 26.88 0 0 0 5.38.51c.14-.03.24.02.24.19ZM353.56 213c.13 1.31.8 1.81 2.17 1.66l.7-.08a21.38 21.38 0 0 0-.24 3.81 15.73 15.73 0 0 0 1 3.61 1 1 0 0 1-1.15.17 12.41 12.41 0 0 1-7-5.65c-2.21-3.82-4.15-7.78-6.2-11.68a8.25 8.25 0 0 1-.92-5.17c.29-2.18.38-4.39.56-6.59.08-1 .16-1.1 1.24-1.07s1.87.05 2.8.14c4.53.45 9.08.64 13.62.84 1.2 0 2.39.16 3.85.26-.81 1.14-1.42 2-2 2.87a10.48 10.48 0 0 0-2 4.73c-.09.65-.35 1-1.05.9-.5 0-.81.4-1.16.71a11.53 11.53 0 0 0-2.86 4.54 13.78 13.78 0 0 0-1.29 4.6 10.9 10.9 0 0 0-.07 1.4Zm-10.87-31.09c0-1 0-1.11 1.15-1.11h9.23a2.1 2.1 0 0 1 1.73.78q2.56 3 5.24 5.8c.91 1 1.91 1.87 2.87 2.8.22.23.55.4.54 1-2.88-.15-5.68-.28-8.48-.45-3.67-.23-7.34-.5-11-.74h-.4c-.72-.06-.87-.22-.88-1v-1.2c.01-2.03 0-3.97 0-5.91Zm2.18-30.75c-.59 1.77-.94 3.62-1.41 5.44a17.44 17.44 0 0 0-.08 7.37 27.24 27.24 0 0 0 1.72 5.76 10.6 10.6 0 0 0 1.46 2.61 52.24 52.24 0 0 0 4.7 5.48.9.9 0 0 1 .37.86h-9c-.54-5.71-.77-11.4-1.61-17s-1.89-11.36-3.23-17a155.85 155.85 0 0 0-4.89-16.23c.45-.49.71-.11 1 0 3.7 1.88 7.38 3.77 11.07 5.66.3.15.57.34.86.51a1.06 1.06 0 0 1 .53 1c.15 5.23.19 10.44-1.49 15.51ZM340.58 193q-.12 2.1-.27 4.2c0 .52.05 1.09-.49 1.54a22.11 22.11 0 0 1-2.19-4 68.6 68.6 0 0 1-4.18-11.46 23 23 0 0 1-.57-2.74 5.6 5.6 0 0 1 1-4.37 3.81 3.81 0 0 1 .24-.32l5.69-6.21a20.73 20.73 0 0 1 .49 3.55c.06 2.27.21 4.53.35 6.8a111.07 111.07 0 0 1-.07 13.01Zm20.53 30.1c.07.31.36.59 0 1a5.23 5.23 0 0 1-3-3.4 8.71 8.71 0 0 1-.49-3.16 19.81 19.81 0 0 1 .3-3.6 10.56 10.56 0 0 0 .17-1.39c0-.33 0-.69-.37-.85a.84.84 0 0 0-1 .35 13.17 13.17 0 0 1-.94 1 1 1 0 0 1-.54.15c-.27 0-.33-.25-.33-.42a8.74 8.74 0 0 1 .12-2 24.62 24.62 0 0 1 2.13-5.82 4.29 4.29 0 0 1 1.53-1.82.69.69 0 0 1 1 .52c.11.64-.33 1.16-.33 1.76a.68.68 0 0 0 .25.5.62.62 0 0 0 .56 0 2.22 2.22 0 0 0 .76-.63c1.84-2.76 4.54-4.49 7.34-6.08a23.38 23.38 0 0 1 5.13-2.23c.25-.07.61-.2.65.15.1.94.81 1 1.46 1.05a36.12 36.12 0 0 1 5.79 1.56 12.05 12.05 0 0 1 5.75 3.84c.12.07.16.15.13.23s-.08.12-.11.12c-.56-.22-1.11-.45-1.67-.65a3.4 3.4 0 0 0-.78-.18.63.63 0 0 0-.59.83 2.71 2.71 0 0 0 .42.67 9.2 9.2 0 0 0 1 .94 16.63 16.63 0 0 1 6 9 11.54 11.54 0 0 1 .43 6.71 5.76 5.76 0 0 0-.22 1.38.87.87 0 0 0 1.19.92c.13 0 .24-.13.36-.17 1.14-.37 1.77 0 1.87 1.24a4.77 4.77 0 0 1-.57 2.52 10.25 10.25 0 0 1-5.57 4.93 1.23 1.23 0 0 1-1.74-.48.82.82 0 0 0-1.22-.25c-.23.14-.48.24-.72.36a4 4 0 0 1-3.65 0q-4.9-2.28-9.72-4.73c-3-1.51-5.84-3.26-8.95-4.5-.31-.12-.61-.27-.93-.36-.64-.11-1.01.34-.9.99Zm31.75-36.82c-2-1.31-4.05-2.6-6.08-3.91-.49-.31-1-.64-1.43-.94.11-.51.44-.38.67-.37l5.43.12c.43 0 .79.09.93.56a16.57 16.57 0 0 0 3.45 5.83 1.92 1.92 0 0 1 .18.35.31.31 0 0 1-.47.1c-.89-.58-1.78-1.17-2.68-1.74Zm43.45 1.16a2.73 2.73 0 0 1 .68 1.64 5 5 0 0 1-4 5.67 14.61 14.61 0 0 1-5.78.19c-.05 0-.09-.1-.13-.15a12.29 12.29 0 0 1 .58-2.28c.38-.85 1.42-.5 2.13-.87a8.44 8.44 0 0 0 3.27-2.56 16.91 16.91 0 0 1 1.62-1.77c.73-.76.98-.55 1.63.13ZM342 111.73a42.18 42.18 0 0 1 11.85-8.16 30.51 30.51 0 0 1 6.95-1.92 36.83 36.83 0 0 1 8.39-.62 46 46 0 0 1 9.69 1.58 104.83 104.83 0 0 1 20 8.12 83.91 83.91 0 0 1 10.36 6.09 97 97 0 0 1 14.15 11.82 43.27 43.27 0 0 1 9.82 15.72 38.28 38.28 0 0 1 1.92 9 10.68 10.68 0 0 1-.33 3.38c0 .16-.1.25-.27.23s-.29 0-.35-.1c-.37-.48-.69-1-1.07-1.46a20.77 20.77 0 0 0-10.66-6.81 33.67 33.67 0 0 0-11.73-1.24 16.18 16.18 0 0 0-6.38 1.62 1.53 1.53 0 0 1-1.67-.06 42.06 42.06 0 0 0-5.41-2.61 21.84 21.84 0 0 0-15.89-.16 34.76 34.76 0 0 0-8.84 4.65c-.9.65-.92.65-1.69 0-2.31-1.93-4.59-3.89-6.93-5.8a1.68 1.68 0 0 1-.68-1.73c.22-1.52.37-3.06.56-4.58a9 9 0 0 0-.16-2.8 1.6 1.6 0 0 0-2.55-1.2 10.14 10.14 0 0 0-.94.66c-.3-.87-.53-1.71-.87-2.5-.44-1-1.27-1.14-2.07-.38a8.61 8.61 0 0 0-1.44 2.33c-.25-.71-.47-1.3-.69-1.9a6.21 6.21 0 0 0-.37-.93 1.78 1.78 0 0 0-1.54-1.12c-.81 0-1.18.63-1.43 1.24a25.67 25.67 0 0 0-.72 2.5.51.51 0 0 1-.8.23 3 3 0 0 1-.94-1 1.69 1.69 0 0 0-1.65-.92 2.79 2.79 0 0 1-1.7-.5c-5.36-2.88-10.74-5.71-16.32-8.15a2.5 2.5 0 0 1-.5-.4c4.48-3.92 8.58-8.14 12.9-12.12Zm-227.1 92a43.36 43.36 0 0 1-5.31-7.53 16.81 16.81 0 0 1-1.17-2.76 4.25 4.25 0 0 1 1.92-4.86 6.56 6.56 0 0 1 2.82-1 18.82 18.82 0 0 1 4.8.15 85 85 0 0 0 13.77 1.44c4.56.09 9.11.29 13.66.44a30.89 30.89 0 0 0 6.79-.49 5.48 5.48 0 0 0 3.8-2.38 20.32 20.32 0 0 0 1.73-3.38c.15-.37.26-.76.39-1.14a4.52 4.52 0 0 1 3.06-3.18 35.93 35.93 0 0 1 3.47-1c1.77-.36 3.56-.59 5.35-.85a7.37 7.37 0 0 1 1.41 0c1.09.07 1.34.36 1.38 1.51a4 4 0 0 1 0 .6 1 1 0 0 1-.78 1 21.47 21.47 0 0 1-3 .57l-1 .17c-3 .45-4 1.39-4.73 4.58-.64 2.87-1.18 5.77-2.05 8.58-.51 1.66-1.06 3.31-1.69 4.93a5.88 5.88 0 0 1-1.5 2.35 3.3 3.3 0 0 1-1.56.86 34.92 34.92 0 0 1-7.35.89c-5.22-.07-10.45-.06-15.67-.08h-4.43a5.44 5.44 0 0 0-1 .08.58.58 0 0 0-.49.55.52.52 0 0 0 .43.59 9.27 9.27 0 0 0 1.39.09c2.41 0 4.82 0 7.24.06.31 0 .68-.08 1 .39a143.51 143.51 0 0 1-11.24 12c-.63-.7-1.22-1.32-1.77-2-3.2-3.64-6.39-7.43-9.65-11.15Zm53.86-28a8.31 8.31 0 0 1 2.43-2.77c.29.56-.06 1-.15 1.4-.23 1.31-.3 1.87-2.26 1.44Zm.66 25a43.44 43.44 0 0 0 3.32 5.72c.24.32.53.68.34 1.09a4.41 4.41 0 0 0 0 2.76 10.65 10.65 0 0 1-.05 4.39c-.14.62-.33.77-1 .71a21.23 21.23 0 0 1-8.4-2.49 3.16 3.16 0 0 1-1.14-1.1 43 43 0 0 1-4.11-8 .8.8 0 0 1 .26-1 8.31 8.31 0 0 0 2.37-3.89c.59-1.77 1.24-3.52 1.86-5.29a1 1 0 0 1 .23-.92.94.94 0 0 1 .15.94 50 50 0 0 0 2.18 5.38c1 2.47 2 4.94 3.06 7.41.1.25.19.5.31.74s.37.56.77.47.56-.49.37-1c-.6-1.56-1.21-3.12-1.85-4.66-1-2.47-2.06-4.93-3.14-7.38a4.4 4.4 0 0 1 0-3.67 68.34 68.34 0 0 1 3.64-7.81 1.84 1.84 0 0 1 1.38-1 10.24 10.24 0 0 0 3.62-1.08A5.86 5.86 0 0 0 174 178a2 2 0 0 0-1.25-1.86 5.25 5.25 0 0 1-.66-.36 7.85 7.85 0 0 1 .69-2.44c1.08 0 1.69.88 2.61 1 2 .88 2 2 .32 4a4.51 4.51 0 0 0-.71 1.56 3.5 3.5 0 0 1-.74 1.33 24.3 24.3 0 0 1-2.77 6.2 42 42 0 0 0-2.33 4.88 9.58 9.58 0 0 0 .28 8.45Zm-9.26 9.74a.43.43 0 0 1-.56.09c-2.26-.59-4.48-1.3-6.76-1.81a5.64 5.64 0 0 1-2.81-1.84 7.9 7.9 0 0 1-1.41-2c.09-.31.19-.35.35-.35a42.25 42.25 0 0 0 7.35-.78.67.67 0 0 1 .82.37 8.92 8.92 0 0 1 .5 1.09 23.83 23.83 0 0 0 2.21 4.47 5.16 5.16 0 0 1 .33.79Zm3.5-20.47a2.7 2.7 0 0 1 .42-1.26 3.76 3.76 0 0 1 .41-2 5.71 5.71 0 0 1 .82-2.85 2.29 2.29 0 0 1 1.78-1.13c.06 0 .18.15.24.24s0 .14 0 .19c-.79 1.61-1.58 3.21-2.38 4.82l-.46 1.19-.36 1.19-.5 1.3a1.72 1.72 0 0 1 .07-1.69Zm-41.82 31.64a7.91 7.91 0 0 1 1.69-4.48c.33-.44.78-.42 1.17 0 .74.8.65 1 0 1.63-.87.77-1.7 1.63-2.86 2.8ZM86.38 421.06a15.09 15.09 0 0 1 .27 2 4.06 4.06 0 0 1-3 4.41 24.91 24.91 0 0 1-6.51 1.13c-3.67.23-7.36.29-9.95.38-4.85 0-8.6 0-12.35-.29a17.52 17.52 0 0 1-3.15-.6 3.75 3.75 0 0 1-3-4 10.79 10.79 0 0 1 1.07-4.46 5.49 5.49 0 0 1 5-3.11c1.94-.13 3.88-.19 5.82-.35a50.14 50.14 0 0 0 8.71-1.37c1.49-.39 3-.81 3.88-2.27a1 1 0 0 1 1-.52c1.54.05 3.1 0 4.62.21a17.92 17.92 0 0 0 3.8.2.81.81 0 0 1 .94.53 36.69 36.69 0 0 1 2.85 8.11Zm95.68-3.06a6 6 0 0 1-.2 4.12 5.3 5.3 0 0 1-3.13 2.92 21.3 21.3 0 0 1-4.46 1.13c-5.11.72-10.23 1.33-15.38 1.66a51.7 51.7 0 0 1-5.42.22 17.38 17.38 0 0 1-4.76-.73c-3.88-1.24-4.23-3.19-3.31-6.46.66-2.33 2.47-3.39 4.69-3.89 1.76-.4 3.52-.82 5.29-1.15a22.52 22.52 0 0 0 10.18-4.95 3.31 3.31 0 0 1 2.53-.87c1.87.16 3.75.16 5.68.22a39.94 39.94 0 0 0 6.17-.2c.38 0 .71.11.68.53-.18 2.61.81 5 1.44 7.45Zm-6.68-86.73c.45 3.66 1 7.3 1.47 11 .18 1.4.3 2.8.48 4.2.21 1.66.45 3.32.68 5a27.63 27.63 0 0 1 .18 5.22 3.48 3.48 0 0 1-.38 1.55 1.55 1.55 0 0 1-.52.28c-1.08.25-1.36 1.2-1.74 2a21.07 21.07 0 0 0-1.25 14.45c-.15-1.4-.18-2.81-.38-4.2-.53-3.78.55-7.25 2.05-10.64a1.32 1.32 0 0 1 1-.88c.35.06.6.2.48.62a36.67 36.67 0 0 0 .28 7.62c.36 2.45.51 4.93.8 7.39.32 2.73.72 5.45 1 8.18.39 3.26.73 6.52 1.09 9.78.33 2.93.66 5.86 1 8.79.21 1.87.41 3.73.57 5.6.09 1-.06 1.12-1.06 1.31a20.08 20.08 0 0 1-3.79.41 103.16 103.16 0 0 1-12.05-.39c-.26 0-.54 0-.8-.08-.76-.13-1-.43-1.06-1.22 0-.53 0-1.07.05-1.6a13.37 13.37 0 0 0-.56-4.17c-.12-.38-.26-.76-.4-1.13a3.72 3.72 0 0 1 .69-3.93c1.35-1.63 1.13-1.9 0-3.51-1.74-2.46-3.51-4.9-5.19-7.4a103 103 0 0 1-5.57-10.22 88.66 88.66 0 0 1-6.12-15.3c-.81-2.69-1.54-5.41-2.3-8.11q-1.49-5.33-3-10.65c-.25-.9-.43-1.82-.64-2.73a2.57 2.57 0 0 1 .4-2.44 3.16 3.16 0 0 0 .48-2.12c0-1.41 0-2.82-.1-4.23a90.46 90.46 0 0 1 .4-11.64 5.9 5.9 0 0 1 1-2.59c.43-.71.42-1.27 0-1.4-.59-.19-.82.28-1.1.65a6.59 6.59 0 0 0-1.22 3.35 87.85 87.85 0 0 0-.37 13.86 25.28 25.28 0 0 1 0 2.61c0 .7-.5.84-1.11.42a3 3 0 0 1-1.28-2.19c-.11-1-.2-2-.23-3-.13-3.22-.08-6.44-.5-9.64-.19-1.46-.33-2.93-.51-4.39a4.58 4.58 0 0 0-.55-1.91.5.5 0 0 0-.51-.23c-.24 0-.33.21-.38.4a.78.78 0 0 0 0 .4 28.5 28.5 0 0 1 .58 4.78 98.06 98.06 0 0 1 .62 10.84 11.34 11.34 0 0 0 .61 4.35.56.56 0 0 1-.33.81c-.87.33-1.75.67-2.64.95-5.37 1.66-10.72 3.39-16.13 4.94-5.79 1.66-11.63 3.13-17.45 4.7-2.71.73-5.42 1.49-8.12 2.25a16.77 16.77 0 0 0-4.75 2.12 9.49 9.49 0 0 0-2.25 2 3.28 3.28 0 0 0-.67 3 14.18 14.18 0 0 0 .52 1.51c.19.5.43 1 .59 1.49a9.34 9.34 0 0 1 .36 4.73q-1.19 5.91-2 11.88a29.51 29.51 0 0 0 0 8c.54 4.26 1.4 8.45 2.32 12.64.56 2.55 1 5.12 1.46 7.69a15.21 15.21 0 0 1 .19 2.61c0 1.11-.37 1.55-1.46 1.87-.76.23-1.56.36-2.33.57a2.39 2.39 0 0 0-1.28.53 1.08 1.08 0 0 0-.17.54.38.38 0 0 0 .35.41 7 7 0 0 0 .8.06c.1 0 .27.09.29.17a.48.48 0 0 1-.09.36 2.26 2.26 0 0 1-1.54.86 5.47 5.47 0 0 1-1.4 0c-3.13-.44-6.29-.43-9.43-.6a11.75 11.75 0 0 1-3.31-.78 3 3 0 0 1-2-2.33 11.44 11.44 0 0 1-.2-2.19v-9.05a81.32 81.32 0 0 0-1.8-16.13c-1-5.39-2.51-10.68-3.86-16s-2.95-10.57-4.72-15.77c-.71-2.09-1.22-4.25-1.85-6.36a7.72 7.72 0 0 1 .42-5.49c.45-1 .88-2.09 1.32-3.14a7.13 7.13 0 0 1 2.39-2.91 44.62 44.62 0 0 1 6.82-4.25c5.86-3 11.72-5.9 17.74-8.52 4.84-2.12 9.69-4.23 14.49-6.45a79.15 79.15 0 0 0 7.46-3.94 24.51 24.51 0 0 0 4.89-3.84c.37-.39.76-.76 1.16-1.11a13.81 13.81 0 0 1 2-1.68c.81-.48 1.65.17 2.49.24a26.09 26.09 0 0 1 5.77.7c.71.21 1.41.43 2.1.67a2 2 0 0 1 1.47 1.49 3.15 3.15 0 0 0 1.72 1.86 27.88 27.88 0 0 0 4.62 1.94 113.77 113.77 0 0 0 19 5 74 74 0 0 0 15.59 1.56c.4 0 .8 0 1.2-.05 2.91-.25 3.44-1.44 4.15-3.41.18-.49.21-1 .38-1.55a1.44 1.44 0 0 1 1.84-.72.72.72 0 0 1 .35.45 9.43 9.43 0 0 1 .17 1.59 70.39 70.39 0 0 0 .79 9.4c.49 3.84.85 7.71 1.33 11.56Zm5.34-61.72c-.49.35-1 .66-1.5 1a4.45 4.45 0 0 0-1.86 2.77 14.76 14.76 0 0 0-.36 2.37c-.14 2.55-.19 5.1-.34 7.64-.35 5.75-.68 11.51-.8 17.27v4.83a6 6 0 0 1-.11 2c-.52.21-.91-.12-1.32-.32a4.72 4.72 0 0 0-2.34-.43 2.46 2.46 0 0 0-2.47 1.95c-.15.51-.23 1-.38 1.56a2.89 2.89 0 0 1-2.87 2.34 36.91 36.91 0 0 1-4.82 0 120.3 120.3 0 0 1-20.19-3.33 124.79 124.79 0 0 1-12.24-3.83c-.69-.26-1.37-.53-2-.85-.86-.41-1.66-.89-1.82-2a1.73 1.73 0 0 0-1-1.2 9.86 9.86 0 0 0-3-1.18 26.7 26.7 0 0 0-6.16-.82.44.44 0 0 1-.39-.69c.1-.18.22-.34.32-.51.51-.86 1-1.72 1.53-2.59a21.4 21.4 0 0 0 2.34-7c.9-5.08 1.86-10.14 3-15.16 1.1-4.7 1.89-9.45 2.65-14.22.68-4.3 1.59-8.55 2.55-12.79.57-2.55 1-5.12 1.47-7.69s1-5.26 1.68-7.86a12.91 12.91 0 0 0 .43-2 1.44 1.44 0 0 1 1.27-1.32c3-.65 5.83-2 8.82-2.71a3.83 3.83 0 0 0 .56-.22c.55-.21.79-.52.64-.83-.21-.47-.64-.47-1-.38-.78.17-1.55.39-2.32.63l-6.48 2.1a12.72 12.72 0 0 1-4 .53 3.77 3.77 0 0 1-3-1.38c-.61-.71-1.25-1.39-1.86-2.11s-.49-.81 0-1.36c1.5-1.53 3-3.06 4.53-4.56a131.22 131.22 0 0 0 9.45-10.13c.34-.42.74-.78 1.06-1.21a2.9 2.9 0 0 1 2.75-1.28c1.54.1 3.08.06 4.62 0a1.63 1.63 0 0 1 1.52.78c.49.72 1 1.41 1.53 2.14-.21.62-.8.89-1.18 1.32a5.59 5.59 0 0 0-1.05 1.46c-.2.47-.16.87.18 1.05s.63-.12.78-.37a8.25 8.25 0 0 1 1.69-2 .91.91 0 0 1 .53-.25.8.8 0 0 1 .54.18c.13.11.26.39.2.51a18.5 18.5 0 0 1-1 1.75c-.33.5-.74 1-1.07 1.46a.49.49 0 0 0 .15.7.55.55 0 0 0 .72 0c.54-.33.76-.93 1.17-1.36.59-.62.6-1.83 1.48-2a5.55 5.55 0 0 1 2.33.47c1.48.41 2.94.85 4.68 1.36a5 5 0 0 0 .64 5.28c.32.43.65.85 1 1.27l.46.63c-1.36 1.58-1.37 2.32-.09 3.84a2.46 2.46 0 0 0 .41.44c.57.35.56.77.34 1.37a4.08 4.08 0 0 0-.27 2.17 3.93 3.93 0 0 0 2.52 3.13 11.37 11.37 0 0 1 2.55 1.25 7.94 7.94 0 0 1-1.52 3 103.52 103.52 0 0 1-6.79 10.18 4.36 4.36 0 0 0-.45.67 1.85 1.85 0 0 0 1 2.78c1.74.74 2.66.5 3.73-1.17 1-1.51 1.86-3.09 2.76-4.65a50.2 50.2 0 0 1 4.46-6.15 1.5 1.5 0 0 1 .79 1.15c.73 2.3 1.45 4.6 2.21 6.88.88 2.67 1.71 5.36 2.71 8s1.82 5.31 2.73 8 1.91 5.57 2.87 8.35c.38.86.4.86-.3 1.35Zm-13.86-35.85.9-1.48c.91.56 1.13 1.38 1.69 2-.37.48-.67.91-1 1.31a55.78 55.78 0 0 0-6.1 9.17 12.7 12.7 0 0 1-1 1.52c-.62.85-.9.91-1.86.48-.65-.28-.76-.63-.28-1.24a59.71 59.71 0 0 0 4.33-6.27c1.12-1.82 2.22-3.66 3.32-5.49Zm35.08 33.76c-.63 3.14-1.3 6.28-2 9.42a14.68 14.68 0 0 1-3.24 6.6 5.47 5.47 0 0 1-2.93 2 3.45 3.45 0 0 1-3.18-.76 9.08 9.08 0 0 1-2.22-2.83 94.92 94.92 0 0 1-5.71-13c-1.85-5.52-3.62-11.06-5.64-16.52-1.88-5.08-3.45-10.26-5.15-15.4a16.91 16.91 0 0 0-2-4.36 8.67 8.67 0 0 0-3.8-3.16c-.61-.27-1.24-.5-1.83-.82a2.7 2.7 0 0 1-1.12-3.62.66.66 0 0 1 .65-.37c.47 0 .93.06 1.4 0a.5.5 0 0 0 .48-.53.6.6 0 0 0-.44-.6 4.75 4.75 0 0 0-1-.16 3.47 3.47 0 0 1-2.69-1.87.86.86 0 0 1 .76-1.39 2.89 2.89 0 0 1 .59.08c.27.05.57.08.71-.19s-.06-.64-.32-.87l-1.06-.91a7.81 7.81 0 0 1-1.84-2.36 3 3 0 0 1-.43-2.31c.13-.47.43-.73.86-.61a9 9 0 0 1 1.5.55 16.31 16.31 0 0 1 1.57.9c2.49 1.61 5.34 2.06 8.18 2.49 1.27.19 1.81-.26 2.17-1.55a12.71 12.71 0 0 0 .19-5c0-.33-.16-.65-.2-1s-.19-.69.2-.87a1 1 0 0 1 .93.21 6.43 6.43 0 0 1 1.59 1.53 15.88 15.88 0 0 1 3.75 9.12c.09 1.47.34 2.93.5 4.4a17 17 0 0 1-.51 7.94 8.66 8.66 0 0 0 .46 6.64 102.66 102.66 0 0 0 5.13 9.31c2.08 3.66 4.13 7.34 6.19 11q1.14 2 2.25 4a1.12 1.12 0 0 0 1.14.64h2.21a14.26 14.26 0 0 0 3.79-.41c.5-.17.78.1.7.61-.15 1.38-.32 2.71-.59 4.03ZM193 221.64a16.73 16.73 0 0 1-7.89 2.64 1.23 1.23 0 0 0-.57.17.82.82 0 0 0-.33.45.56.56 0 0 0 .33.65 2.11 2.11 0 0 0 1.38.08 18 18 0 0 0 5.19-1.47c.29-.14.55-.41.92-.25s.22.46.25.71c.15 1.4.32 2.79.42 4.19a3.86 3.86 0 0 1-1.77 3.42c-.85.64-1.78 1.18-2.66 1.78a9.31 9.31 0 0 0-1.11.85.68.68 0 0 0 0 .55.46.46 0 0 0 .62.34 7.38 7.38 0 0 0 1.44-.7c1.27-.85 2.51-1.74 3.78-2.63 2.31 1.7 4.6 3.44 6.74 5.37a15.36 15.36 0 0 1 4.1 5.62 14.42 14.42 0 0 1 .88 3.49 33.62 33.62 0 0 1 .41 6c-.09 1.94-.2 3.88-.28 5.82a2.47 2.47 0 0 1-1.91 2.49 19.64 19.64 0 0 1-6.55.72c-.47 0-.67-.34-.88-.71-.93-1.69-1.88-3.38-2.83-5.07-.32-.58-.67-1.16-1-1.74-.15-.28-.32-.56-.16-.89-.54 0-.62-.54-.82-.88-.67-1.14-1.28-2.33-1.94-3.49-1.79-3.12-3.62-6.22-5.39-9.35a16.67 16.67 0 0 1-1.71-4.25 3.69 3.69 0 0 1 0-2.18c1.52-4 1.15-8.14.63-12.26-.15-1.2-.29-2.39-.42-3.58a30.77 30.77 0 0 0-1.2-4.22 9.73 9.73 0 0 1-1.36-2.36 2.42 2.42 0 0 1-.95-1.29.26.26 0 0 1-.18-.26.42.42 0 0 0-.39-.43A6.44 6.44 0 0 0 175 207a1.65 1.65 0 0 1-.9-.75 36.43 36.43 0 0 1-4.11-7.56 6.76 6.76 0 0 1 .06-4.91 23.93 23.93 0 0 1 1.6-3.89 6.73 6.73 0 0 1 1.19-1.6 21.61 21.61 0 0 1 9-5.49 13.52 13.52 0 0 1 3-.53 23.86 23.86 0 0 1 10.83 1.6 7.1 7.1 0 0 1 1.76 1c-.16.45-.54.24-.8.29s-.67 0-1 .1a1 1 0 0 0-.65 1.65 15.34 15.34 0 0 0 1.27 1.28 51.19 51.19 0 0 1 6.59 7.29 19.14 19.14 0 0 1 3.17 6.43 6.46 6.46 0 0 1 .09 2.77 14.53 14.53 0 0 1-1.63 5.13 12.72 12.72 0 0 1-1.68 2.24 1.26 1.26 0 0 0-.41.88c0 .36.1.7.47.78a12.83 12.83 0 0 0 1.39.14.58.58 0 0 1 .53.85 7.64 7.64 0 0 1-3.68 4.07 1.66 1.66 0 0 1-1 .06 3.83 3.83 0 0 1-1.14-.38 1.38 1.38 0 0 0-1.81.31 20.83 20.83 0 0 1-4.14 2.88Zm89.22 19.13a1.94 1.94 0 0 1-1.71 1.16c-2.8.34-5.58.8-8.37 1.14a107.59 107.59 0 0 1-15.85.61 140.83 140.83 0 0 1-14.23-1.09 86.49 86.49 0 0 1-16.78-3.93 109.68 109.68 0 0 1-20.1-9.45c-3.17-1.87-6.27-3.86-9.41-5.77-.43-.27-1-.45-1.2-1 1.06-.8 2.12-1.58 3.18-2.39a.9.9 0 0 1 .92-.18 5.62 5.62 0 0 0 .76.25 3.65 3.65 0 0 0 3.37-.83c.53-.5 1.12-.94 1.73-1.44.94 1.45 1.84 2.85 2.75 4.24a2.61 2.61 0 0 0 1.1 1.13.8.8 0 0 0 .93-.14.75.75 0 0 0 .24-.89 2 2 0 0 0-.3-.51c-.49-.72-1-1.42-1.46-2.16-.58-1-1.1-2-1.65-3a1.41 1.41 0 0 1-.24-1.15 2.52 2.52 0 0 0-.63-2.92 20.87 20.87 0 0 0 3.92-6.37A12.89 12.89 0 0 0 210 203a26.26 26.26 0 0 1 .77-5.34 4.89 4.89 0 0 0-.12-2.39 28.37 28.37 0 0 0-2.17-6.66c-.22-.47-.57-.91-.16-1.47a.68.68 0 0 0 0-.57 15.73 15.73 0 0 0-2.23-3.79 8.72 8.72 0 0 0-2.33-1.89c-1.17-.64-2.28-1.39-3.42-2.08a2.57 2.57 0 0 1-1-1c.27-.52 1-.67 1.16-1.29a1 1 0 0 0 0-.55.62.62 0 0 0-.64-.39 2.69 2.69 0 0 0-1.46.59 1.42 1.42 0 0 1-1.5.06 28.19 28.19 0 0 0-3.54-1.38 8.53 8.53 0 0 0-5.36.15c-.18.06-.43.09-.41.36s.37.36.59.34a14.7 14.7 0 0 1 3.8.27 1.07 1.07 0 0 1 .69.35c.08.89-.6.58-1 .62a13.75 13.75 0 0 0-2.48.13 24.13 24.13 0 0 0-7.45 2c-2.37 1.05-4.3 2.81-6.58 4.24a4.62 4.62 0 0 1 .53-2.43 4.23 4.23 0 0 0 .56-1.68 11.12 11.12 0 0 0 1.36-3.05c.37-1 .32-1.19-.49-1.85a4.11 4.11 0 0 0-.85-.47 15.57 15.57 0 0 0-3.28-1.9 2.41 2.41 0 0 0-3.36.77c-.67.91-1.46 1.75-2.07 2.71a2.27 2.27 0 0 1-1.76 1.13 26.08 26.08 0 0 0-5 1.29 6 6 0 0 0-3.86 4c-.4 1.14-.88 2.25-1.38 3.34a2.67 2.67 0 0 1-1.33 1.53c-5-6-10.16-11.9-14.28-18.64a50.76 50.76 0 0 0 3.26-6 22.45 22.45 0 0 1 3.49-5.06c2.42-3 4.82-5.92 7.38-8.75A92.31 92.31 0 0 1 167.93 136c4-2.93 8.1-5.69 12.37-8.22a87.3 87.3 0 0 1 15.06-7 158.53 158.53 0 0 1 17.73-5.07c3.46-.8 7-1.31 10.49-1.82s7.34-.68 11-1c2.73-.27 5.49-.21 8.24-.21 6.7 0 13.41-.07 20.1.19 4.35.17 8.71.19 13.05.64a2.69 2.69 0 0 1 2.14 1.21 59.34 59.34 0 0 1 5.37 9.39 92.33 92.33 0 0 1 4.89 13.15c1 3.53 1.88 7.12 2.62 10.72.92 4.47 1.64 9 2.19 13.48a181.79 181.79 0 0 1 1.27 24.68 173.31 173.31 0 0 1-1.45 19.8 124.87 124.87 0 0 1-3.36 16.93 67.31 67.31 0 0 1-7.24 17.55c-.05.12-.12.23-.18.35Zm28.17-5.6c-4.25 1.18-8.5 2.39-12.85 3.23-2.62.51-5.22 1.18-7.83 1.78a12.79 12.79 0 0 1-1.37.28 22.43 22.43 0 0 1-3.54.54c.08-1.3 1-2.24 1.5-3.34a75.26 75.26 0 0 0 3.39-8.15 120 120 0 0 0 4.87-20.51 168.73 168.73 0 0 0 1.82-30.45 119.93 119.93 0 0 0-.93-14c-.23-1.59-.29-3.2-.51-4.8a158.36 158.36 0 0 0-4.18-21.25 96.59 96.59 0 0 0-6.37-17.1 58.75 58.75 0 0 0-2.95-5.25c-.29-.45-.6-.89-.86-1.35a.85.85 0 0 1-.09-.56c.05-.23.3-.23.49-.21 1.2.12 2.4.21 3.59.38 2.39.35 4.77.74 7.15 1.12 4.24.66 8.41 1.63 12.56 2.68a213.41 213.41 0 0 1 18.07 5.44c2.15.74 4.24 1.67 6.37 2.47a3.1 3.1 0 0 1 2 2.09c.68 2 1.47 4 2.11 6.07.89 2.87 1.69 5.77 2.53 8.66a4.7 4.7 0 0 1 .26 1.82 3.2 3.2 0 0 0-2.53 1.69 26.87 26.87 0 0 0-2.11 4.1c-.44-.18-.24-.56-.29-.83a4.26 4.26 0 0 1 0-.8 6.36 6.36 0 0 0-.36-2.77 2.89 2.89 0 0 1-.63-.72l-.29-.39c-.43-.35-.84-.75-1.48-.54a3.32 3.32 0 0 0-1.32 1.72c-.38 1-.74 2-1.12 3a2.92 2.92 0 0 1-.77 1.54c-.13-.88-.29-1.67-.35-2.46a8.42 8.42 0 0 0-.88-2.86 3.69 3.69 0 0 0-.41-.69 1.13 1.13 0 0 0-2 0 4.28 4.28 0 0 0-.79 1.83c-.28 1.65-.57 3.3-.85 4.95-.4 2.44-.54 4.92-1.08 7.35a31.46 31.46 0 0 1-1.85 5.71c-.26.62-.47 1.26-.73 1.87a13.85 13.85 0 0 0-.75 6.72 4.73 4.73 0 0 0 .14 1c.73 2.72 1.49 5.42 2.2 8.14.84 3.18 2 6.24 3.11 9.33 1.57 4.56 3.29 9.06 4.9 13.6 1.51 4.23 3.22 8.37 5 12.51a46.7 46.7 0 0 0 3.33 6.63 1.43 1.43 0 0 1 0 1.83c-.37.48-.7 1-1 1.48a5.16 5.16 0 0 1-3.08 2.06c-6.51 1.73-12.86 3.63-19.24 5.41Zm27.07 11.43c-4-3.06-8.28-5.64-12.53-8.31-1.58-1-3.11-2.07-4.66-3.12a1 1 0 0 1-.5-.88l6-1.53c3.56-.92 7.11-1.84 10.66-2.81a1.69 1.69 0 0 1 1.82.41 27.75 27.75 0 0 0 4.61 3.53c1 .69 1.06.74.74 2s-.7 2.58-1.11 3.85c-.58 1.78-1.2 3.54-1.8 5.31a3.49 3.49 0 0 1-.38.93c-1.31 1.76-.63 2.32-2.85.62Zm-46.53 191c0 .59-.37.81-.89.86-1.81.14-3.61.31-5.41.41-1 .06-2 0-3 0a42.27 42.27 0 0 1-10-1c-1.69-.39-3.42-.59-5.14-.87l-.79-.14a3.07 3.07 0 0 1-2.93-2.58 30.68 30.68 0 0 0-1.46-3.73c-.29-.85-.22-1.28.51-1.68a7 7 0 0 1 1.66-.67c2.33-.59 4.69-1.08 7-1.71 1.87-.52 3.77-.92 5.67-1.29a81.6 81.6 0 0 0 8.57-2.07c.73-.22.93-.17 1.31.52 1.18 2.09 2.45 4.15 3.44 6.34a16.32 16.32 0 0 1 1.5 5.6c.03.64-.03 1.31-.04 1.98Zm19.1-4.05a3.24 3.24 0 0 1-1.32 4 6.24 6.24 0 0 1-1.84.77 20.65 20.65 0 0 1-8.57.44 27.44 27.44 0 0 0-5.2-.5c-.26 0-.52-.05-.9-.09a16.25 16.25 0 0 0-1.81-9.31c-1-2.1-2.27-4.09-3.41-6.12.31-.55 1-.47 1.38-.78a1.53 1.53 0 0 1 1.34-.2 26.69 26.69 0 0 1 10.05 4.35l4.75 3.36a8.65 8.65 0 0 0 2.29 1.21 5.75 5.75 0 0 1 3.21 2.84Zm57.44-8.44a13.33 13.33 0 0 1 1 10.11c-.24.9-.46 1.09-1.43 1.08a87.58 87.58 0 0 1-11.22-.45c-3.26-.45-6.54-.42-9.82-.58a3.13 3.13 0 0 1-1.9-.33c1.06-2.59.8-5.19.39-7.77-.23-1.45-.6-2.88-.9-4.32-.09-.41.14-.65.55-.57 2.43.47 4.82 1.1 7.21 1.7a34 34 0 0 0 15.09.72.78.78 0 0 1 1.03.38Zm.61-46.7c-.29 2.93-.76 5.83-1.26 8.74s-1 5.8-1.48 8.71c-.27 1.65-.72 3.26-1 4.92a29 29 0 0 0 .71 11.35c.37 1.49.75 3 1.1 4.48a20.86 20.86 0 0 1 .4 5.79c0 .92-.07.93-1.06 1.12a12.37 12.37 0 0 1-1.59.21 38.77 38.77 0 0 1-13.13-1.29 56.11 56.11 0 0 0-5.89-1.27c-1.74-.28-1.72-.37-2.31-2a11.23 11.23 0 0 1-.82-3.5c0-1 .36-1.34 1.34-1.24a7.47 7.47 0 0 1 2.66.85c.11.05.4-.08.5-.21a.74.74 0 0 0 .08-.55c-.11-.43-.5-.61-.85-.79a6.62 6.62 0 0 0-2.94-.53.54.54 0 0 1-.6-.62 14.94 14.94 0 0 0-.93-4.9 59 59 0 0 1-1.54-6.85c-.8-4.88-1.61-9.76-2.76-14.58-1.29-5.47-2.65-10.92-3.73-16.44-.42-2.16-1.08-4.28-1.57-6.43-.43-1.89-.79-3.8-1.14-5.7-.15-.84 0-1 1-1.07a20.41 20.41 0 0 1 3.41 0 40.88 40.88 0 0 0 7.42.19c2.55-.09 5.09-.16 7.63-.27a105 105 0 0 0 11.2-1 38.81 38.81 0 0 0 5.15-.79 3.77 3.77 0 0 1 1-.06c.81 0 1 .08 1.08.84a20.15 20.15 0 0 1 .29 2.79v8a110.19 110.19 0 0 1-.37 12.07Zm60.81 53.88a9.69 9.69 0 0 1 1.91 4.71 18.56 18.56 0 0 1-.42 6.17 3.39 3.39 0 0 1-.74 1.62.88.88 0 0 1-.53.2c-.23 0-.32-.17-.35-.38a.45.45 0 0 1 0-.2c.1-4-1.78-7-4.4-9.75a5.45 5.45 0 0 1-1.39-1.53 30.5 30.5 0 0 0 4.59-1.35c.7-.26.85-.17 1.33.48Zm-1.29-9.17c.22 1.59.45 3.18.65 4.77a7.29 7.29 0 0 1 .05 1.4 1.09 1.09 0 0 1-.61 1 12.71 12.71 0 0 1-6.77 1.51 7.27 7.27 0 0 1-1.74-.48c-1.69-.62-3.35-1.33-5.05-1.94a13.83 13.83 0 0 0-9.24-.15c-.13 0-.26.05-.61.12-.12-1.44-.23-2.71-.33-4-.14-2.07-.29-4.14-.41-6.22a12.79 12.79 0 0 0-.73-3.72 23.84 23.84 0 0 1-.76-3.74c-.17-.92-.35-1.83-.5-2.76a7.88 7.88 0 0 0-2.5-4.7 13.27 13.27 0 0 1-4-7.89 73.51 73.51 0 0 0-4.88-15.46c-.69-1.6-1.58-3.1-2.37-4.65-.42-.83-.85-1.67-1.2-2.53a4.88 4.88 0 0 1 .25-4.63c.58-1 1.18-1.91 1.74-2.82.74.09 1 .62 1.37 1 3.52 3.5 7.35 6.64 11.17 9.79 4 3.27 7.92 6.6 12.17 9.52 3.75 2.57 7.45 5.22 11.21 7.78a1.66 1.66 0 0 1 .8 1.66c-.08 1.61-.13 3.22-.14 4.82a43 43 0 0 0 .47 7.42c.34 2 .47 4.12.74 6.18.39 2.86.82 5.77 1.22 8.69Zm54.51 10.15c-.41 1.76-.77 3.52-1.18 5.28-.3 1.31-.66 2.6-1 3.9a7 7 0 0 1-4.92 5.35 39.11 39.11 0 0 1-11.46 1.78c-.4 0-.65-.18-.65-.58a5.31 5.31 0 0 1 .78-3.07c1-1.44 1.88-2.92 2.84-4.37a26.47 26.47 0 0 0 2.47-5.25 11.27 11.27 0 0 0 .57-4.16v-1.21a.61.61 0 0 1 .61-.65c.8-.05 1.6-.07 2.4-.11a23.17 23.17 0 0 1 8.23 1.64c.25.09.48.22.72.33a.86.86 0 0 1 .59 1.09Zm1.44-24.3a11.9 11.9 0 0 1 2.66 2.47 4.16 4.16 0 0 1 .85 3.41 8.47 8.47 0 0 1-.52 1.93c-1.65 3.76-2.4 7.77-3.33 11.74-.15.65-.33 1.29-.48 1.94-.09.39-.31.6-.7.42a23.33 23.33 0 0 0-11.75-1.88 7.3 7.3 0 0 1-.76-.06c-.15-1.18-.29-2.24-.44-3.3a.89.89 0 0 1 .5-1c1.75-.85 2.84-2.41 4.08-3.8s2.63-3 4.11-4.39a30.7 30.7 0 0 0 4.62-5.78Zm-70.12-79.77a36.13 36.13 0 0 1 5.15 4.17 5.73 5.73 0 0 1 .91 1.06 3.34 3.34 0 0 1 .54 2.84c-.47 1.74-.81 3.52-1.4 5.23a3.81 3.81 0 0 0-.3 1.76.76.76 0 0 0 .31.45.39.39 0 0 0 .52-.17 4.33 4.33 0 0 0 .44-.89c.18-.5.32-1 .48-1.53.17-.26.27-.65.72-.4a17.24 17.24 0 0 0 1.8 2.89 39 39 0 0 1 3.68 6c.88 1.73 1.91 3.38 2.87 5.06 1.63 2.85 3.05 5.81 4.45 8.78.83 1.75 1.71 3.48 2.59 5.21a15.16 15.16 0 0 0 .95 1.54 4.86 4.86 0 0 0 3.58 2.33 6.15 6.15 0 0 1 3.26 1.46 27.93 27.93 0 0 0 7.47 4.25c.19.08.36.19.55.26a17.31 17.31 0 0 1 7.64 6c1.81 2.41 3.73 4.74 5.44 7.22 1.55 2.26 2.89 4.66 4.31 7 .56.92 1.06 1.86 1.61 2.79a1.44 1.44 0 0 0 .67.71c.21.09.63-.08.63-.3a2.06 2.06 0 0 0-.05-.79c-.23-.55-.52-1.08-.79-1.62 0-.69.3-.76.82-.43a22.84 22.84 0 0 0 5.56 2.28 7 7 0 0 1 4 3.18 3.21 3.21 0 0 1 0 3.76 34.56 34.56 0 0 1-5.4 6.71c-1.8 1.63-3.24 3.58-4.87 5.36a10.57 10.57 0 0 1-2.06 1.89 4.28 4.28 0 0 1-1.67.65A1.4 1.4 0 0 1 466 423c-.58-1-1.13-2-1.67-3a17.49 17.49 0 0 0-6-6.37c-1.52-1-3.06-1.94-4.64-2.8-8.55-4.65-16.66-10-24.79-15.29q-9.51-6.21-18.63-13c-3.87-2.87-7.49-6.06-11.24-9.1-3.39-2.74-6.51-5.77-9.69-8.75a90.81 90.81 0 0 0-9.34-7.59 16.92 16.92 0 0 0-3.53-1.9 1.11 1.11 0 0 1-.74-1.07 76.4 76.4 0 0 0-2.2-12.45c-.53-2.28-1-4.58-1.47-6.87a8 8 0 0 0-.89-2.86.55.55 0 0 0-.69-.25.53.53 0 0 0-.34.64c.4 1.9.84 3.79 1.26 5.69.64 2.87 1.29 5.74 1.9 8.62.39 1.84.72 3.68 1.06 5.53.06.32.06.65.09 1-.53.22-.83-.1-1.14-.32a44.75 44.75 0 0 1-6.62-6.14 70.83 70.83 0 0 1-9-12.76 7.29 7.29 0 0 0-.66-1 .53.53 0 0 0-.71-.16.58.58 0 0 0-.24.7 5.6 5.6 0 0 0 .47 1.1 71.4 71.4 0 0 0 7.44 11 48.17 48.17 0 0 0 8 7.85c-.13.55-.51.42-.81.39a43.71 43.71 0 0 0-11 .59 103.27 103.27 0 0 1-12.42 1c-2.75.05-5.49.2-8.24.27a22.09 22.09 0 0 1-2.81-.12 37.67 37.67 0 0 0-5.82-.16 18.45 18.45 0 0 0-3.54.68 4.64 4.64 0 0 0-2.13 1.39 3.55 3.55 0 0 1-.58-.36c-2-2-4.1-4.05-6.11-6.11a24.31 24.31 0 0 1-2.05-2.48c-.44-.58-.24-1 .43-1.18.46-.09.93-.11 1.39-.2s.64-.31.57-.7a.75.75 0 0 0-.72-.59 3.49 3.49 0 0 0-1.78.2c-1.8.77-1.89 1.86-1 3.16a25.22 25.22 0 0 0 3.27 3.8 146.1 146.1 0 0 0 4.94 4.72c.81.74 1.37 1.46.88 2.6a3.42 3.42 0 0 0-.11.79 2.76 2.76 0 0 1-2.38 2.38 1.67 1.67 0 0 1-1.29-.41 75.71 75.71 0 0 1-6.75-5.07 10.88 10.88 0 0 0-1.28-.95.49.49 0 0 0-.7.19.65.65 0 0 0 0 .56 9.27 9.27 0 0 0 1.1 1.16 57.53 57.53 0 0 0 5.94 4.46c.22.14.44.3.68.43a1.76 1.76 0 0 1 1.1 2.09 6.14 6.14 0 0 0 0 1.6 18.66 18.66 0 0 1-1.18 7.69c-1 3-2.12 5.93-3.09 8.92a134.86 134.86 0 0 0-3.93 14.53c-.34 1.64-.79 3.25-1.14 4.89-.81 3.73-1.59 7.46-2.37 11.2-.36 1.7-.72 3.4-1.05 5.11a50.44 50.44 0 0 0-1 8.58c0 .25 0 .53-.21.72-.44.13-.75-.18-1.06-.4-1.49-1-3-2.05-4.43-3.14a26.3 26.3 0 0 0-11.69-5c-.94-.15-1.11-.31-1.15-1.28a7.32 7.32 0 0 1 .93-4 19.65 19.65 0 0 1 1-1.73 12.48 12.48 0 0 0 2-6c.49-4.13.72-8.28.84-12.43.16-5.5.4-11 .94-16.47.42-4.26 1-8.5 1.67-12.74.67-4.51 1.52-9 2.16-13.49.29-2.05.27-4.15.39-6.22a28.3 28.3 0 0 1 .35-4 8.71 8.71 0 0 1 3.46-5.46 29.5 29.5 0 0 1 6.18-3.33A103.7 103.7 0 0 1 324.8 328a140.63 140.63 0 0 0 16.3-5c1.45-.53 2.86-1.11 3.65-2.64a1 1 0 0 1 1.79-.07 4.83 4.83 0 0 1 .65 1.23c.31.95.56 1.93.84 2.89a7.46 7.46 0 0 0 .33.94.47.47 0 0 0 .49.24c.27 0 .35-.21.38-.39a4.27 4.27 0 0 0-.23-2.2c-.36-1.07-.75-2.14-1.13-3.23.19-.48.65-.29 1-.37a3 3 0 0 1 .6-.06 35.51 35.51 0 0 0 6-.56 2.91 2.91 0 0 1 2.42.57 67.29 67.29 0 0 0 8.81 5.21c3.59 1.81 7.16 3.65 10.74 5.47a11.65 11.65 0 0 0 1.12.42c.64 1.16-.42 2-.62 3-.15.71-.46 1.39-.65 2.11.13.08.16 0 .23-.16.29-.79.27-2 1.27-2.07 1.17-.07 1.22 1.23 1.55 2.05 2.46 6.21 4.68 12.49 5 19.27a45.74 45.74 0 0 0-3.59-16.28c-.75-1.93-1.47-3.87-2.2-5.81-.19-.51-.81-1.47.63-1.25.24.19.64.11.79.46a21 21 0 0 0 6.1 3 20.22 20.22 0 0 0 9.66 1.23c.79-.1.9 0 1.19.73.39 1.07.74 2.15 1.1 3.23.17.51.28 1 .48 1.54a4.87 4.87 0 0 0 3.52 3.26l6.05 1.44a2.73 2.73 0 0 0 .4.05c.6 0 1.15-.26 1.08-.61s-.48-.58-.89-.67c-1.9-.43-3.78-.89-5.67-1.3a4.47 4.47 0 0 1-3.54-3.19c-.5-1.52-1-3-1.44-4.57a2.14 2.14 0 0 1 1.29-.53 43.44 43.44 0 0 0 7.17-2.57 12.32 12.32 0 0 0 4.5-3.29c.64-.85.7-.83 1.46-.35Zm-.19-4.72a5.75 5.75 0 0 1-1.47 3.23 16.33 16.33 0 0 1-7.49 4.83 43.86 43.86 0 0 1-5.56 1.64 21.44 21.44 0 0 1-12.58-1.31c-2.92-1.2-5.58-2.89-8.41-4.26-3.67-1.77-7.28-3.66-10.91-5.52a90.45 90.45 0 0 1-7.95-4.68 4.9 4.9 0 0 1-2.34-5.34 14.83 14.83 0 0 1 .68-2.72 36.34 36.34 0 0 0 1.42-5c.51-2.15.28-4.13-1.45-5.72a.91.91 0 0 1-.18-1.26c.46-.74.95-1.47 1.47-2.16a4.59 4.59 0 0 0 .84-4.33c-.64-2.25-1.3-4.5-1.74-6.81-.52-2.76-1.18-5.49-1.81-8.23-.86-3.72-1.75-7.43-2.63-11.13-.5-2.09-1-4.16-1.51-6.24a7.93 7.93 0 0 0-1.12-2.56 2.22 2.22 0 0 0-1.63-1.06c-.53-.07-1.06-.11-1.6-.15-1.94-.15-3.87-.31-5.81-.43a5.05 5.05 0 0 1-2.28-.72 1.53 1.53 0 0 1-.83-1.86 4.4 4.4 0 0 1 .51-1.3 55.14 55.14 0 0 0 6-15.66.8.8 0 0 1 .12-.18c.12 0 .28-.05.38 0 1.72 1 3.43 2.05 5.15 3.09a1.12 1.12 0 0 1 .53 1.37c-.69 2.62-.2 5.18.33 7.75a3.89 3.89 0 0 0 1.69 2.41c.77.53 1.6 1 2.41 1.42 4.93 2.72 10.12 4.87 15.22 7.22 2.24 1 4.47 2.13 6.63 3.32a30.74 30.74 0 0 1 9.87 9c1.95 2.65 3.49 5.56 5.31 8.29 1.49 2.22 3 4.44 4.51 6.64a11.23 11.23 0 0 0 2.62 2.75.49.49 0 0 0 .71 0 .56.56 0 0 0 .08-.73 1.63 1.63 0 0 0-.11-.17c-2.86-2.7-4.7-6.15-6.82-9.39-1.65-2.52-3.17-5.13-4.87-7.61a33 33 0 0 0-12.92-11.16c-3.25-1.59-6.5-3.14-9.84-4.53-3.7-1.55-7.21-3.51-10.8-5.28a3.39 3.39 0 0 1-.5-.34.52.52 0 0 1-.18-.7c.57-1.14 1.1-2.3 1.75-3.39a66 66 0 0 0 3.84-8.38c.54-1.3 1-2.64 1.45-4a22.44 22.44 0 0 0 1.44-9 7.9 7.9 0 0 1 2.72 1.19c6.38 3.55 12.95 6.7 19.6 9.68 1 .44 2 .84 2.94 1.29a17 17 0 0 1 8.86 9.15c.68 1.6 1.24 3.25 1.79 4.9 1.42 4.25 2.57 8.58 3.59 13 .83 3.58 1.74 7.15 2.51 10.75.69 3.27 1.24 6.57 1.83 9.87.49 2.77.95 5.54 1.42 8.31.3 1.79.62 3.57.88 5.36.76 5.1 1.7 10.17 2.68 15.23.48 2.49 1 5 1.37 7.5a15.62 15.62 0 0 1 .19 4.09Zm24.17-100.28a77.37 77.37 0 0 1 6.35 16.66 87 87 0 0 1 2.13 15.9c.16 3.55.52 7.09.84 10.63.35 4 .84 8 1.11 12 .2 2.87.58 5.73 1 8.58.43 3.32.87 6.65 1.45 9.94.64 3.63.95 7.31 1.87 10.89.06.25.1.52.14.79a.65.65 0 0 1-.4.81c-4.17 1.64-8.32 3.31-12.84 3.86-2.92.35-5.85.64-8.78.92a26.46 26.46 0 0 1-9.94-.88 50.07 50.07 0 0 1-6.5-2.07 1.75 1.75 0 0 1-1.15-1.44c-.17-1-.42-2-.59-3-.81-4.89-1.58-9.79-2.41-14.67s-1.74-9.76-2.54-14.65c-1-6-2.59-11.9-4-17.83a133.25 133.25 0 0 0-4.15-13.79c-1.64-4.61-4.27-8.49-8.65-10.95-.82-.46-1.66-.87-2.49-1.3-.21-.76.6-.41.78-.73.9-.44 1.83-.84 2.7-1.34a9.81 9.81 0 0 0 4.88-6.34 2 2 0 0 1 .8-1.32 6.9 6.9 0 0 0 2-2.21.9.9 0 0 1 1.19-.42c1.35.4 2.69.8 4 1.23.5.15.6.49.27.91-1.11 1.43-2.24 2.83-3.35 4.26a23.84 23.84 0 0 0-1.64 2.28 1.77 1.77 0 0 0 .67 2.74 6.68 6.68 0 0 0 2.82 1 80.34 80.34 0 0 0 8.2.76 37.09 37.09 0 0 1 4.6.42c1.92.3 3.85.53 5.76.85a42.65 42.65 0 0 0 7.23.24 1.79 1.79 0 0 0 1.72-1.16c1.57-3.45 2.81-7 2.34-10.85-.11-.93-.3-1.85-.48-2.77a1.45 1.45 0 0 0-.65-1 .46.46 0 0 0-.37-.06.73.73 0 0 0-.4 1c1.3 3.76.75 7.39-.7 11-.08.19-.14.38-.23.56-1 2-.37 1.84-2.71 1.89a42.1 42.1 0 0 1-8-.54 73.38 73.38 0 0 0-9.59-1c-2-.08-4-.35-6-.55a10.7 10.7 0 0 1-1.37-.27c-2.09-.55-2.26-1-1-2.62 1.83-2.4 3.71-4.75 5.55-7.13a20.5 20.5 0 0 0 3.51-7 17.36 17.36 0 0 0 .51-6.77 33.42 33.42 0 0 0-3.73-11.38c-.18-.36-.47-.67-.44-1.11.31-.36.61-.05.89 0 .76.25 1.5.57 2.27.79a10 10 0 0 0 4.37.37 2.16 2.16 0 0 1 2 .66c.14.14.3.26.45.4a5.37 5.37 0 0 0 5.2 1.35 18.55 18.55 0 0 1 2.37-.36 1.21 1.21 0 0 1 1.32.71c.51 1 1 2 1.47 3.09a108 108 0 0 0 5.47 11.18c1.72 2.94 3.39 5.84 4.87 8.84Z" class="color050300 svgShape"></path><path fill="#0a0827" d="M420.8 341.69a17.24 17.24 0 0 0 1.8 2.89 39 39 0 0 1 3.68 6c.88 1.73 1.91 3.38 2.87 5.06 1.63 2.85 3.05 5.81 4.45 8.78.83 1.75 1.71 3.48 2.59 5.21a15.16 15.16 0 0 0 .95 1.54 4.86 4.86 0 0 0 3.58 2.33 6.15 6.15 0 0 1 3.26 1.46 27.93 27.93 0 0 0 7.47 4.25c.19.08.36.19.55.26a17.31 17.31 0 0 1 7.64 6c1.81 2.41 3.73 4.74 5.44 7.22 1.55 2.26 2.89 4.66 4.31 7 .56.92 1.06 1.86 1.61 2.79a1.44 1.44 0 0 0 .67.71c.21.09.63-.08.63-.3a2.06 2.06 0 0 0-.05-.79c-.23-.55-.52-1.08-.79-1.62 0-.69.3-.76.82-.43a23.25 23.25 0 0 0 5.56 2.28 7 7 0 0 1 4 3.18 3.21 3.21 0 0 1 0 3.76 34.56 34.56 0 0 1-5.4 6.71c-1.8 1.63-3.24 3.58-4.87 5.36a10.57 10.57 0 0 1-2.06 1.89 4.28 4.28 0 0 1-1.67.65A1.4 1.4 0 0 1 466 423c-.58-1-1.13-2-1.67-3a17.49 17.49 0 0 0-6-6.37c-1.52-1-3.06-1.94-4.64-2.81-8.55-4.64-16.66-10-24.79-15.28q-9.51-6.21-18.63-13c-3.87-2.87-7.49-6.06-11.24-9.1-3.39-2.74-6.51-5.77-9.69-8.75a90.81 90.81 0 0 0-9.34-7.59 16.92 16.92 0 0 0-3.53-1.9 1.11 1.11 0 0 1-.74-1.07 76.4 76.4 0 0 0-2.2-12.45c-.53-2.28-1-4.58-1.47-6.87a8 8 0 0 0-.89-2.86.55.55 0 0 0-.69-.25.53.53 0 0 0-.34.64c.4 1.9.84 3.79 1.26 5.69.64 2.87 1.29 5.74 1.9 8.62.39 1.84.72 3.68 1.06 5.53.06.32.06.65.09.95-.53.23-.83-.09-1.14-.31a44.75 44.75 0 0 1-6.62-6.14 70.83 70.83 0 0 1-9-12.76 7.29 7.29 0 0 0-.66-1 .53.53 0 0 0-.71-.16.58.58 0 0 0-.24.7 5.6 5.6 0 0 0 .47 1.1 71.4 71.4 0 0 0 7.44 11 48.17 48.17 0 0 0 8 7.85c-.13.55-.51.42-.81.39a43.71 43.71 0 0 0-11 .59 103.27 103.27 0 0 1-12.42 1c-2.75.05-5.49.2-8.24.27a22.09 22.09 0 0 1-2.81-.12 37.67 37.67 0 0 0-5.82-.16 18.45 18.45 0 0 0-3.54.68 4.64 4.64 0 0 0-2.13 1.39 3.55 3.55 0 0 1-.58-.36c-2-2-4.1-4.05-6.11-6.11a24.31 24.31 0 0 1-2.05-2.48c-.44-.58-.24-1 .43-1.18.46-.09.93-.11 1.39-.2s.64-.31.57-.7a.75.75 0 0 0-.72-.59 3.49 3.49 0 0 0-1.78.2c-1.8.77-1.89 1.86-1 3.16a25.22 25.22 0 0 0 3.27 3.8c1.62 1.61 3.26 3.19 4.94 4.72.81.74 1.37 1.46.88 2.6a3.42 3.42 0 0 0-.11.79 2.76 2.76 0 0 1-2.38 2.38 1.67 1.67 0 0 1-1.29-.41 75.71 75.71 0 0 1-6.75-5.07 10.88 10.88 0 0 0-1.28-.95.49.49 0 0 0-.7.19.65.65 0 0 0 0 .56 9.27 9.27 0 0 0 1.1 1.16 57.53 57.53 0 0 0 5.94 4.46c.22.14.44.3.68.43a1.76 1.76 0 0 1 1.1 2.09 6.14 6.14 0 0 0 0 1.6 18.66 18.66 0 0 1-1.18 7.69c-1 3-2.13 5.93-3.09 8.92a134.86 134.86 0 0 0-3.93 14.53c-.34 1.64-.79 3.25-1.14 4.89-.81 3.73-1.59 7.46-2.37 11.2-.36 1.7-.72 3.4-1.05 5.11a50.44 50.44 0 0 0-1 8.58c0 .25 0 .53-.21.72-.44.13-.75-.18-1.06-.4-1.49-1-3-2.05-4.43-3.14a26.3 26.3 0 0 0-11.69-5c-.94-.15-1.11-.31-1.15-1.28a7.32 7.32 0 0 1 .93-4 19.65 19.65 0 0 1 1-1.73 12.48 12.48 0 0 0 2-6c.49-4.13.72-8.28.84-12.43.16-5.5.4-11 .94-16.47.42-4.26 1-8.5 1.67-12.74.67-4.51 1.52-9 2.16-13.49.29-2.05.27-4.15.39-6.22a28.3 28.3 0 0 1 .35-4 8.71 8.71 0 0 1 3.46-5.46 29.5 29.5 0 0 1 6.18-3.33A103.37 103.37 0 0 1 324.8 328a140.63 140.63 0 0 0 16.3-5c1.45-.53 2.86-1.11 3.65-2.64a1 1 0 0 1 1.79-.07 4.83 4.83 0 0 1 .65 1.23c.31.95.56 1.93.84 2.89a7.46 7.46 0 0 0 .33.94.47.47 0 0 0 .49.24c.27 0 .35-.21.38-.39a4.27 4.27 0 0 0-.23-2.2c-.36-1.07-.75-2.14-1.13-3.23.19-.48.65-.29 1-.37a3 3 0 0 1 .6-.06 35.51 35.51 0 0 0 6-.56 2.91 2.91 0 0 1 2.42.57 67.29 67.29 0 0 0 8.81 5.21c3.59 1.81 7.16 3.65 10.74 5.47a11.65 11.65 0 0 0 1.12.42c.64 1.16-.42 2-.62 3-.15.71-.46 1.39-.65 2.11.13.08.16 0 .23-.16.29-.79.27-2 1.27-2.07 1.17-.07 1.22 1.23 1.55 2.05 2.46 6.21 4.68 12.49 5 19.27a45.74 45.74 0 0 0-3.59-16.28c-.75-1.93-1.47-3.87-2.2-5.81-.18-.51-.81-1.47.63-1.25.24.19.64.11.79.46a21 21 0 0 0 6.1 3 20.22 20.22 0 0 0 9.66 1.23c.79-.1.9 0 1.19.73.39 1.07.74 2.15 1.1 3.23.17.51.28 1 .48 1.53a4.87 4.87 0 0 0 3.52 3.27l6.05 1.44a2.73 2.73 0 0 0 .4.05c.6 0 1.15-.26 1.08-.61s-.48-.58-.89-.67c-1.9-.43-3.78-.89-5.67-1.3a4.47 4.47 0 0 1-3.54-3.19c-.5-1.52-1-3-1.44-4.57a2.14 2.14 0 0 1 1.29-.53 43.44 43.44 0 0 0 7.17-2.57 12.32 12.32 0 0 0 4.5-3.29c.66-.77.72-.75 1.48-.27a36.13 36.13 0 0 1 5.15 4.17 5.73 5.73 0 0 1 .91 1.06 3.34 3.34 0 0 1 .54 2.84c-.47 1.74-.81 3.52-1.4 5.23a3.81 3.81 0 0 0-.3 1.76.76.76 0 0 0 .31.45.39.39 0 0 0 .52-.17 4.33 4.33 0 0 0 .44-.89c.18-.5.32-1 .48-1.53.15-.34.25-.73.7-.48ZM177.45 359.82a37.37 37.37 0 0 0 .29 7.62c.36 2.45.51 4.93.8 7.39.32 2.73.72 5.45 1 8.18.39 3.26.73 6.52 1.09 9.78.33 2.93.66 5.86 1 8.79.21 1.87.41 3.73.57 5.6.09 1-.06 1.12-1.06 1.31a20.08 20.08 0 0 1-3.79.41 103.16 103.16 0 0 1-12.05-.39c-.26 0-.54 0-.8-.08-.76-.13-1-.43-1.06-1.22 0-.53 0-1.07.05-1.6a13.37 13.37 0 0 0-.56-4.17c-.12-.38-.26-.76-.4-1.13a3.72 3.72 0 0 1 .69-3.93c1.35-1.63 1.13-1.9 0-3.51-1.74-2.46-3.51-4.9-5.19-7.4a103 103 0 0 1-5.57-10.22 88.66 88.66 0 0 1-6.13-15.25c-.81-2.69-1.54-5.41-2.3-8.11q-1.49-5.33-3-10.65c-.25-.9-.43-1.82-.64-2.73a2.57 2.57 0 0 1 .4-2.44 3.16 3.16 0 0 0 .48-2.12c0-1.41 0-2.82-.1-4.23a90.46 90.46 0 0 1 .4-11.64 5.9 5.9 0 0 1 1-2.59c.43-.71.42-1.27 0-1.4-.59-.19-.82.28-1.1.65a6.59 6.59 0 0 0-1.22 3.35 87.79 87.79 0 0 0-.37 13.85 25.45 25.45 0 0 1 0 2.62c0 .7-.5.84-1.11.42a3 3 0 0 1-1.28-2.19c-.11-1-.2-2-.23-3-.13-3.22-.08-6.44-.5-9.64-.19-1.46-.33-2.93-.51-4.39a4.58 4.58 0 0 0-.55-1.91.5.5 0 0 0-.51-.23c-.24 0-.33.21-.38.4a.78.78 0 0 0 0 .4 28.5 28.5 0 0 1 .58 4.78 98.06 98.06 0 0 1 .62 10.84 11.34 11.34 0 0 0 .61 4.35.56.56 0 0 1-.33.81c-.87.33-1.75.67-2.64.95-5.37 1.66-10.72 3.39-16.13 4.94-5.79 1.66-11.63 3.13-17.45 4.7-2.71.73-5.42 1.49-8.12 2.25a16.77 16.77 0 0 0-4.75 2.12 9.49 9.49 0 0 0-2.25 2 3.28 3.28 0 0 0-.67 3 14.18 14.18 0 0 0 .52 1.51c.19.5.43 1 .59 1.49a9.34 9.34 0 0 1 .36 4.73q-1.19 5.91-2 11.88a29.51 29.51 0 0 0 0 8c.54 4.26 1.4 8.45 2.32 12.64.56 2.55 1 5.12 1.46 7.69a15.21 15.21 0 0 1 .19 2.61c0 1.11-.37 1.55-1.46 1.87-.76.23-1.56.36-2.33.57a2.39 2.39 0 0 0-1.28.53 1.08 1.08 0 0 0-.17.54.38.38 0 0 0 .35.41 7 7 0 0 0 .8.06c.1 0 .27.09.29.17a.48.48 0 0 1-.09.36 2.26 2.26 0 0 1-1.54.86 6 6 0 0 1-1.4 0c-3.13-.44-6.29-.43-9.43-.6a11.75 11.75 0 0 1-3.31-.78 3 3 0 0 1-2-2.33 11.44 11.44 0 0 1-.2-2.19v-9.05a81.32 81.32 0 0 0-1.8-16.13c-1-5.39-2.51-10.68-3.86-16s-2.95-10.57-4.72-15.77c-.71-2.09-1.22-4.25-1.85-6.36a7.72 7.72 0 0 1 .42-5.49c.45-1 .88-2.09 1.32-3.14a7.13 7.13 0 0 1 2.39-2.91 44.62 44.62 0 0 1 6.82-4.25c5.86-3 11.72-5.9 17.74-8.52 4.84-2.12 9.69-4.23 14.49-6.45a80.4 80.4 0 0 0 7.46-3.94 24.51 24.51 0 0 0 4.89-3.84c.37-.39.76-.76 1.16-1.11a13.81 13.81 0 0 1 2-1.68c.81-.48 1.65.17 2.49.24a26.09 26.09 0 0 1 5.77.7c.7.21 1.41.43 2.1.67a2 2 0 0 1 1.47 1.49 3.15 3.15 0 0 0 1.72 1.86 27.63 27.63 0 0 0 4.63 1.94 113.41 113.41 0 0 0 19 5 74 74 0 0 0 15.58 1.56c.4 0 .8 0 1.2-.05 2.91-.25 3.44-1.44 4.15-3.41.18-.49.21-1 .38-1.55a1.44 1.44 0 0 1 1.84-.72.72.72 0 0 1 .35.45 9.43 9.43 0 0 1 .17 1.59 70.39 70.39 0 0 0 .79 9.4c.49 3.86.85 7.73 1.33 11.58.45 3.66 1 7.3 1.47 11 .18 1.4.3 2.8.48 4.2.21 1.66.45 3.32.68 5a27.63 27.63 0 0 1 .18 5.22 3.48 3.48 0 0 1-.38 1.55 1.55 1.55 0 0 1-.52.28c-1.08.25-1.36 1.2-1.74 2a21.07 21.07 0 0 0-1.25 14.45c-.15-1.4-.18-2.81-.38-4.2-.53-3.78.55-7.25 2.05-10.64a1.32 1.32 0 0 1 1-.88c.36-.01.61.13.48.55ZM388.64 233.87c.9-.44 1.83-.84 2.7-1.34a9.81 9.81 0 0 0 4.88-6.34 2 2 0 0 1 .8-1.32 6.9 6.9 0 0 0 2-2.21.9.9 0 0 1 1.19-.42c1.35.4 2.69.8 4 1.23.5.15.6.49.27.91-1.11 1.43-2.24 2.83-3.35 4.26a23.84 23.84 0 0 0-1.64 2.28 1.77 1.77 0 0 0 .67 2.74 6.68 6.68 0 0 0 2.82 1 80.34 80.34 0 0 0 8.2.76 39.12 39.12 0 0 1 4.6.42c1.92.3 3.85.53 5.76.85a42.65 42.65 0 0 0 7.23.24 1.79 1.79 0 0 0 1.72-1.16c1.57-3.45 2.81-7 2.34-10.85-.11-.93-.3-1.85-.48-2.77a1.45 1.45 0 0 0-.65-1 .46.46 0 0 0-.37-.06.73.73 0 0 0-.4 1c1.3 3.76.75 7.39-.7 11-.08.19-.14.38-.23.56-1 2-.37 1.84-2.71 1.89a42.1 42.1 0 0 1-8-.54 73.38 73.38 0 0 0-9.59-1c-2-.07-4-.35-6-.55a10.7 10.7 0 0 1-1.37-.27c-2.09-.55-2.26-1-1-2.62 1.83-2.4 3.71-4.75 5.55-7.13a20.5 20.5 0 0 0 3.51-7 17.36 17.36 0 0 0 .51-6.77 33.42 33.42 0 0 0-3.73-11.38c-.18-.36-.47-.66-.44-1.11.31-.36.61-.05.89 0 .76.25 1.5.57 2.27.79a10 10 0 0 0 4.37.37 2.16 2.16 0 0 1 2 .66c.14.14.3.26.45.4a5.37 5.37 0 0 0 5.2 1.35 18.55 18.55 0 0 1 2.37-.36 1.21 1.21 0 0 1 1.32.71c.51 1 1 2 1.47 3.09a108 108 0 0 0 5.47 11.18c1.63 2.92 3.3 5.82 4.78 8.82a77.37 77.37 0 0 1 6.35 16.66 87 87 0 0 1 2.13 15.9c.16 3.55.52 7.09.84 10.63.35 4 .84 8 1.11 12 .2 2.87.58 5.73 1 8.58.43 3.32.87 6.65 1.45 9.94.64 3.63.95 7.31 1.87 10.89.06.25.1.52.14.79a.65.65 0 0 1-.4.81c-4.17 1.64-8.32 3.31-12.84 3.86-2.92.35-5.85.64-8.78.92a26.46 26.46 0 0 1-9.94-.88 50.07 50.07 0 0 1-6.5-2.07 1.75 1.75 0 0 1-1.15-1.44c-.17-1-.42-2-.59-3-.81-4.89-1.58-9.79-2.41-14.67s-1.74-9.76-2.54-14.65c-1-6-2.59-11.9-4-17.83a133.25 133.25 0 0 0-4.06-13.77c-1.64-4.61-4.27-8.49-8.65-10.95-.82-.46-1.66-.87-2.49-1.3-.21-.76.6-.41.78-.73ZM327.88 144.48a3.32 3.32 0 0 0-1.32 1.72c-.38 1-.74 2-1.12 3a2.92 2.92 0 0 1-.77 1.54c-.13-.88-.29-1.67-.35-2.46a8.42 8.42 0 0 0-.88-2.86 3.69 3.69 0 0 0-.41-.69 1.13 1.13 0 0 0-2 0 4.28 4.28 0 0 0-.79 1.83c-.28 1.65-.57 3.3-.85 4.95-.4 2.44-.54 4.92-1.08 7.35a31.46 31.46 0 0 1-1.85 5.71c-.26.62-.47 1.26-.73 1.87a13.85 13.85 0 0 0-.75 6.72 4.73 4.73 0 0 0 .14 1c.73 2.72 1.49 5.42 2.2 8.14.84 3.18 2 6.24 3.11 9.33 1.57 4.56 3.29 9.06 4.9 13.6 1.51 4.23 3.22 8.37 5 12.51a46.7 46.7 0 0 0 3.33 6.63 1.43 1.43 0 0 1 0 1.83c-.37.48-.7 1-1 1.48a5.16 5.16 0 0 1-3.08 2.06c-6.39 1.76-12.74 3.66-19.12 5.44-4.25 1.18-8.5 2.39-12.85 3.23-2.62.51-5.22 1.18-7.83 1.78a12.79 12.79 0 0 1-1.37.28 22.43 22.43 0 0 1-3.54.54c.08-1.3 1-2.24 1.5-3.34a75.26 75.26 0 0 0 3.39-8.15 119.77 119.77 0 0 0 4.8-20.52 168.73 168.73 0 0 0 1.82-30.45 119.93 119.93 0 0 0-.93-14c-.23-1.59-.29-3.2-.51-4.8a158.36 158.36 0 0 0-4.18-21.25 96.88 96.88 0 0 0-6.37-17.1 58.75 58.75 0 0 0-2.95-5.25c-.29-.45-.6-.89-.86-1.35a.85.85 0 0 1-.09-.56c.05-.23.3-.23.49-.21 1.2.12 2.4.21 3.59.38 2.39.35 4.77.74 7.15 1.12 4.24.66 8.41 1.63 12.56 2.68a213.41 213.41 0 0 1 18.07 5.44c2.15.74 4.24 1.67 6.37 2.47a3.1 3.1 0 0 1 2 2.09c.68 2 1.47 4 2.11 6.07.89 2.87 1.69 5.77 2.53 8.66a4.7 4.7 0 0 1 .26 1.82 3.2 3.2 0 0 0-2.53 1.69 26.87 26.87 0 0 0-2.11 4.1c-.44-.18-.24-.56-.29-.83a4.26 4.26 0 0 1 0-.8 6.36 6.36 0 0 0-.36-2.77 2.89 2.89 0 0 1-.63-.72l-.29-.39c-.48-.37-.89-.77-1.53-.56Z" class="colorf38704 svgShape"></path><path fill="#0c0802" d="M339.82 198.74a22.11 22.11 0 0 1-2.19-4 68.6 68.6 0 0 1-4.18-11.46 23 23 0 0 1-.57-2.74 5.6 5.6 0 0 1 1-4.37 3.81 3.81 0 0 1 .24-.32l5.69-6.21a20.73 20.73 0 0 1 .49 3.55c.06 2.27.21 4.53.35 6.8a111.07 111.07 0 0 1-.09 13q-.12 2.1-.27 4.2c-.02.53.07 1.1-.47 1.55Z" class="colorf28704 svgShape"></path><path fill="#0a0827" d="M275.36 144.29a37.9 37.9 0 0 0-13.53-16.58c-7.41-5.15-15.63-7.77-27.08-7.85-3.71-.07-9.56 1.17-15.1 3.76a35.87 35.87 0 0 0-13.47 10.54 33 33 0 0 0-3.24 35.75 38.54 38.54 0 0 0 16.35 16.65 42.59 42.59 0 0 0 26.55 5.05 38.94 38.94 0 0 0 17.28-6.55A33.33 33.33 0 0 0 277.56 163a32.33 32.33 0 0 0-2.2-18.71Zm-19.12 30.55a21 21 0 0 1-11.6 6.35 23.74 23.74 0 0 1-15.22-2.06 28.88 28.88 0 0 1-16-25.07 23.91 23.91 0 0 1 6.49-17.43 21.19 21.19 0 0 1 12.72-6.63c7.49-1 14 1.19 19.76 5.89a29.35 29.35 0 0 1 9 13.06 27.36 27.36 0 0 1 1.4 8.89 23.89 23.89 0 0 1-6.55 17Z" class="colorf38704 svgShape"></path><path fill="#0c0802" d="M408.5 173.67a1.27 1.27 0 0 0-1.29-1 2.32 2.32 0 0 0-2.25 2.49 1.67 1.67 0 0 0 1.58 1.51c.13 0 .26 0 .39-.08a2.73 2.73 0 0 0 1.57-2.92Zm-1.63 2.11c-.06 0-.07-.18-.11-.28 0-.2 0-.35.25-.29.06 0 .07.19.11.29s-.03.34-.25.28Zm.19-1.36c-.18.2-.44.33-.66.13a.59.59 0 0 1 0-.85.55.55 0 0 1 .82-.09 1 1 0 0 1 .14.36 3.12 3.12 0 0 1-.3.45ZM417.5 179.67a1.27 1.27 0 0 0-1.29-1 2.32 2.32 0 0 0-2.25 2.49 1.67 1.67 0 0 0 1.58 1.51c.13 0 .26 0 .39-.08a2.73 2.73 0 0 0 1.57-2.92Zm-1.63 2.11c-.06 0-.07-.18-.11-.28 0-.2 0-.35.25-.29.06 0 .07.19.11.29s-.03.34-.25.28Zm.19-1.36c-.18.2-.44.33-.66.13a.59.59 0 0 1 0-.85.55.55 0 0 1 .82-.09 1 1 0 0 1 .14.36 3.12 3.12 0 0 1-.3.45ZM372.25 208.85a1.27 1.27 0 0 0-1.35-.93 2.34 2.34 0 0 0-2.09 2.64 1.67 1.67 0 0 0 1.68 1.4l.38-.1a2.73 2.73 0 0 0 1.38-3.01Zm-1.49 2.21c-.06 0-.08-.18-.13-.27 0-.2 0-.35.24-.31.05 0 .08.18.12.28s.01.34-.23.3Zm.11-1.36c-.17.21-.42.34-.65.16a.58.58 0 0 1-.07-.85.56.56 0 0 1 .82-.14 1.39 1.39 0 0 1 .15.36 3.09 3.09 0 0 1-.25.47ZM381.61 214.27a1.27 1.27 0 0 0-1.35-.93 2.33 2.33 0 0 0-2.09 2.63 1.67 1.67 0 0 0 1.68 1.41l.38-.1a2.73 2.73 0 0 0 1.38-3.01Zm-1.49 2.21c-.06 0-.08-.18-.13-.27 0-.2 0-.35.24-.31 0 0 .08.18.12.28s0 .34-.23.3Zm.11-1.37c-.17.22-.42.35-.65.17a.59.59 0 0 1-.07-.85.56.56 0 0 1 .82-.14 1.46 1.46 0 0 1 .15.35 2.37 2.37 0 0 1-.25.47ZM187.75 191.06a1.3 1.3 0 0 0-.95-1.35 2.34 2.34 0 0 0-2.87 1.76 1.67 1.67 0 0 0 1.09 1.89 2.58 2.58 0 0 0 .39 0 2.76 2.76 0 0 0 2.34-2.3Zm-2.17 1.55c-.05 0 0-.19 0-.3 0-.2.12-.32.32-.21s0 .21 0 .31-.12.32-.32.2Zm.57-1.24a.46.46 0 0 1-.67-.07.59.59 0 0 1 .23-.82.56.56 0 0 1 .82.15 1.1 1.1 0 0 1 0 .38 3.64 3.64 0 0 1-.38.36ZM196.67 199.37a1.28 1.28 0 0 0-.95-1.35 2.32 2.32 0 0 0-2.86 1.76 1.65 1.65 0 0 0 1.08 1.89h.4a2.75 2.75 0 0 0 2.33-2.3Zm-2.16 1.55v-.3c0-.2.12-.33.33-.21.05 0 0 .21 0 .31s-.13.28-.33.2Zm.57-1.24c-.23.14-.52.18-.67-.07a.59.59 0 0 1 .23-.82.56.56 0 0 1 .82.15 1.47 1.47 0 0 1 0 .38 3.51 3.51 0 0 1-.38.36Z" class="color181515 svgShape"></path><path fill="#0a0909" d="M187.72 208.07a14.31 14.31 0 0 0-.68-2.29 7.38 7.38 0 0 0-5.53-4.42 2.41 2.41 0 0 0-2.76 1.49 5.47 5.47 0 0 0-.53 2.32c0 .8.05 1.6.07 2.4a5.22 5.22 0 0 0 .28.93.48.48 0 0 1 .08.35 7.09 7.09 0 0 1 1.13 2.05l2.05 2a7.07 7.07 0 0 0 .92.37 3.76 3.76 0 0 0 4.85-2.66 4.36 4.36 0 0 0 .12-2.54Zm-1.39 2a1.42 1.42 0 0 1 0 .2 2.35 2.35 0 0 1-3.47 1.51 5.59 5.59 0 0 1-1.25-1 7.26 7.26 0 0 1-2.1-5 5.32 5.32 0 0 1 .4-2.16 1.39 1.39 0 0 1 1.77-.85 6 6 0 0 1 3.72 2.53 6.92 6.92 0 0 1 .93 4.76Z" class="color0a0909 svgShape"></path><path d="M195.32 252.76a4.33 4.33 0 0 0-3.29.46c1.06-.39 2.24 0 3.29-.46Z" fill="#000000" class="color000 svgShape"></path><path fill="#020101" d="M251.94 65.48c4.49.12 8.95.62 13.42 1 4.2.38 8.37 1 12.52 1.76a97.11 97.11 0 0 1 32.63 12.89c4.12 2.49 8.16 5.12 12.05 8a38.24 38.24 0 0 1 6.82 6.2 16 16 0 0 1 1.28 1.78.55.55 0 0 1-.17.72.67.67 0 0 1-.75.06 1.51 1.51 0 0 1-.47-.36 41.28 41.28 0 0 0-9.27-8.24 149.93 149.93 0 0 0-19-11.49 88 88 0 0 0-20.14-7.21 136.6 136.6 0 0 0-22.06-2.94l-11.8-.73c-.89 0-1.34-.38-1.28-.92s.46-.72 1.25-.7c1.62.04 3.3.12 4.97.18Z" class="color020101 svgShape"></path><path fill="#020202" d="M36 244.72a.6.6 0 0 1-.62-.47 2.42 2.42 0 0 1 .4-1.53 61.44 61.44 0 0 1 3.68-7.12 185.43 185.43 0 0 1 11.4-16.51c4.08-5.39 8.27-10.71 12.83-15.71A127.11 127.11 0 0 1 99.61 176c.36-.18.73-.33 1.1-.5.75-.33 1.17-.29 1.38.15s0 .67-.69 1c-2.58 1.28-5.07 2.72-7.54 4.19A125.1 125.1 0 0 0 61.61 208 277 277 0 0 0 44 231.19a93.12 93.12 0 0 0-7.08 12.34 5.4 5.4 0 0 1-.45.9c-.08.14-.3.21-.47.29Z" class="color020202 svgShape"></path><path fill="#020101" d="M296.62 300.9c-.73-.09-1.47-.14-2.2-.27a228.66 228.66 0 0 1-23.23-5.4 130.16 130.16 0 0 1-32.84-15.13 68.13 68.13 0 0 1-8.73-6.4 30 30 0 0 1-5.26-6 4.11 4.11 0 0 1-.77-1.62 1.58 1.58 0 0 1 .1-.77.45.45 0 0 1 .67-.21 1 1 0 0 1 .43.4c2.07 3.79 5.2 6.59 8.57 9.17a103.1 103.1 0 0 0 12.83 8.22 123.18 123.18 0 0 0 12.95 6.35c3.89 1.6 7.86 3 11.88 4.24 4.22 1.29 8.49 2.4 12.79 3.39 3.06.71 6.16 1.23 9.25 1.81 1.32.24 2.65.41 4 .63.54.08.76.33.74.75s-.36.69-.76.81a2.44 2.44 0 0 1-.42.03Z" class="color020101 svgShape"></path><path fill="#030202" d="M72.41 106a20.51 20.51 0 0 1 .36-4.83 4.51 4.51 0 0 1 .28-1c.13-.3.32-.63.75-.45a.72.72 0 0 1 .47.8c-.1.8-.22 1.59-.33 2.39a24.87 24.87 0 0 0 .09 6.62 80.48 80.48 0 0 0 6.18 21.95 49.58 49.58 0 0 0 25.66 25.68c1.4.63 2.89 1 4.32 1.58.36.14.81.27.74.8 0 .37-.58.56-1.16.44a28.59 28.59 0 0 1-7.1-2.73A50.79 50.79 0 0 1 80.85 136a70.37 70.37 0 0 1-5.31-13.19 89.29 89.29 0 0 1-2.63-10.91 27.35 27.35 0 0 1-.5-5.9Z" class="color030202 svgShape"></path><path fill="#050303" d="M91.4 167.08a84.58 84.58 0 0 1-11-.68c-2.92-.37-5.86-.59-8.78-1-4-.56-8.06-1.22-12.09-1.86-1.71-.28-3.43-.58-5.13-.92-1.24-.26-2.47-.59-3.7-.92a1.73 1.73 0 0 1-.68-.39.57.57 0 0 1-.11-.73.72.72 0 0 1 .45-.31 5.27 5.27 0 0 1 1.18.18c3.31.82 6.66 1.45 10 2 4.36.65 8.74 1.25 13.11 1.81 3.26.42 6.51.86 9.78 1.08s6.56.23 9.84.24c1.93 0 3.87-.17 5.81-.26.46 0 1-.07 1.19.47s-.23.75-1.07.87a59.11 59.11 0 0 1-8.8.42ZM53.76 184.89c0 .1-.09.33-.23.43a7.12 7.12 0 0 1-1 .62 194.14 194.14 0 0 0-25.07 15.79 48.77 48.77 0 0 0-6.56 5.88c-.58.63-1.07.74-1.33.37s0-.88.32-1.23a35 35 0 0 1 6.27-5.89A178.37 178.37 0 0 1 51.39 185a14.1 14.1 0 0 1 1.66-.68.62.62 0 0 1 .71.57Z" class="color050303 svgShape"></path><path fill="#050404" d="M336.26 85.46a2 2 0 0 1-.41.5.63.63 0 0 1-.55 0 4.67 4.67 0 0 1-.74-.67A78 78 0 0 0 315 70a43.17 43.17 0 0 0-6.78-3.44l-.19-.08c-.47-.24-.71-.63-.55-.92a1 1 0 0 1 1-.57 8.05 8.05 0 0 1 2.44.89c3.45 1.79 6.81 3.72 10.08 5.82a75.13 75.13 0 0 1 13.79 11.62 15.53 15.53 0 0 1 1.21 1.43 2.92 2.92 0 0 1 .26.71Z" class="color050404 svgShape"></path><path fill="#020202" d="M87.47 200h-1.2a1 1 0 0 1-.94-1.41 7.64 7.64 0 0 1 .56-1.28 6.59 6.59 0 0 0 .91-3.83c-.1-1.08.33-1.36 1.29-1a12.15 12.15 0 0 0 2.65.89 2.3 2.3 0 0 0 1.73-.19.65.65 0 0 1 .9.07.76.76 0 0 1 0 1.07 4.09 4.09 0 0 0-.38 4 10.3 10.3 0 0 0 1.26 2c.53.74.45 1.11.11 1.41s-.88 0-1.27-.15a16 16 0 0 1-1.41-.76 7.79 7.79 0 0 0-4.21-.82Z" class="color020202 svgShape"></path><path fill="#020101" d="M103 122a1 1 0 0 1 .85.3 17 17 0 0 0 1.48 1.34 6 6 0 0 0 3.4 1.54c.75 0 1.08.75.56 1.25-1.39 1.34-1.31 3-1.11 4.65.07.53.13 1.06.15 1.59a.55.55 0 0 1-.43.59.71.71 0 0 1-.73-.18c-.19-.18-.32-.42-.5-.62a7.17 7.17 0 0 0-5.09-2.44 2.22 2.22 0 0 1-1.14-.26c-.63-.37-.74-.72-.26-1.25.23-.24.49-.46.72-.7a5.37 5.37 0 0 0 1.67-3.94 13.1 13.1 0 0 1 0-1.4c.06-.27.22-.47.43-.47Z" class="color020101 svgShape"></path><path fill="#050303" d="M203.49 332.07a13.1 13.1 0 0 1 5.08 1.59 53.92 53.92 0 0 1 5.82 3.87 97.72 97.72 0 0 1 11 9.31 19.65 19.65 0 0 1 2.31 2.76 5 5 0 0 1 .92 2.41.72.72 0 0 1-.41.82.62.62 0 0 1-.83-.37c-1.27-3.17-3.86-5.25-6.28-7.42a96.48 96.48 0 0 0-11.23-8.7 19.62 19.62 0 0 0-3.49-2 6.55 6.55 0 0 0-3.09-.67c-.65.06-.95-.24-.94-.73a.9.9 0 0 1 .89-.89Z" class="color050303 svgShape"></path><path fill="#050404" d="M298.88 309.91a70.31 70.31 0 0 1-14.88-2.17c-2.71-.71-5.41-1.45-8.06-2.37a13.35 13.35 0 0 1-2-.89 2.51 2.51 0 0 1-1.15-1.08.83.83 0 0 1 .05-.94.62.62 0 0 1 .9-.09c1.9 1.51 4.24 1.91 6.46 2.6a63.69 63.69 0 0 0 9.53 2.33 54 54 0 0 0 12 1c.46 0 1-.13 1.15.49s-.26.93-1 1c-1.13.07-2.27.08-3 .12ZM194.79 340.32a8.31 8.31 0 0 1 2.13.58 26 26 0 0 1 9.76 7.51 63 63 0 0 1 8.17 12.59 3 3 0 0 1 .49 1.51.68.68 0 0 1-.38.64.62.62 0 0 1-.74-.16 14 14 0 0 1-1-1.71 60.59 60.59 0 0 0-7.67-11.71 26.53 26.53 0 0 0-8.67-7c-.85-.41-1.77-.6-2.64-.93a.66.66 0 0 1-.39-.82.69.69 0 0 1 .58-.49 1.61 1.61 0 0 1 .36-.01Z" class="color050404 svgShape"></path><path fill="#060505" d="M26.16 129.49a1.66 1.66 0 0 1 1.32.29c1.41.77 2.79 1.58 4.18 2.36l17 9.48a29.5 29.5 0 0 0 5.61 2.61 1 1 0 0 1 .48.33.76.76 0 0 1 .15.54.56.56 0 0 1-.55.49 4.6 4.6 0 0 1-1.17-.25 33.42 33.42 0 0 1-5.11-2.34q-10.23-5.7-20.44-11.43a3.86 3.86 0 0 1-1.63-1.18.81.81 0 0 1-.08-.55.89.89 0 0 1 .24-.35Z" class="color060505 svgShape"></path><path fill="#050404" d="M98.09 249.42c0 .65 0 1.06-.35 1.36a.82.82 0 0 1-.74.22.54.54 0 0 1-.48-.55c.08-2.67-1.15-4.91-2.35-7.15a65.74 65.74 0 0 0-8.73-12.94c-.69-.78-1.28-1.72-2.5-1.85-.41 0-.57-.53-.64-.94a.87.87 0 0 1 1.1-1 2.26 2.26 0 0 1 1 .57 19.88 19.88 0 0 1 3.08 3.14A70.43 70.43 0 0 1 94 239.7a49.09 49.09 0 0 1 2.75 5.35 19.56 19.56 0 0 1 1.34 4.37Z" class="color050404 svgShape"></path><path fill="#030202" d="M56.88 191.57c.1.06.32.12.4.27a1.77 1.77 0 0 1 .22.75 4.75 4.75 0 0 0 2.33 4.15 2.42 2.42 0 0 1 .31.25.67.67 0 0 1-.27 1.12 7.18 7.18 0 0 1-1.38.2 3.62 3.62 0 0 0-3.31 1.87.93.93 0 0 1-1 .51 1 1 0 0 1-.92-.9 7.6 7.6 0 0 0-2.38-4.92c-.56-.59-.26-1.3.56-1.43.52-.09 1.06-.09 1.59-.19a5.76 5.76 0 0 0 3.07-1.31 1 1 0 0 1 .78-.37Z" class="color030202 svgShape"></path><path fill="#050404" d="M95.29 257.31c-.1.39-.24.63-.52.67a.7.7 0 0 1-.55-.11 5.54 5.54 0 0 1-.75-1.17 87.57 87.57 0 0 0-7.86-12.54c-1.42-2-3.08-3.86-4.69-5.73a3.92 3.92 0 0 0-1.23-1 1.73 1.73 0 0 1-1-1.63.7.7 0 0 1 1-.65 5.22 5.22 0 0 1 1.53 1.27 77.35 77.35 0 0 1 8.4 10.69 65.08 65.08 0 0 1 5.1 8.83c.28.47.41.97.57 1.37Z" class="color050404 svgShape"></path><path fill="#060505" d="M445.89 107.81a1 1 0 0 1-.37-.13.93.93 0 0 1-.35-1.06 15 15 0 0 1 .68-1.88c2.77-5.51 6.32-10.36 11.45-13.94a17.41 17.41 0 0 0 3.92-3.09 1 1 0 0 1 1.55.17.79.79 0 0 1-.09.94 9.2 9.2 0 0 1-1.24 1c-2.05 1.5-4.14 3-6.06 4.61a36.19 36.19 0 0 0-7.55 9.79 10.43 10.43 0 0 0-1.38 3.1.69.69 0 0 1-.56.49ZM475.09 101.84a.83.83 0 0 1-.47.82 7.66 7.66 0 0 1-1.34.4c-2.73.61-5.46 1.22-8.14 2.06a27.64 27.64 0 0 0-7 3.33 10.91 10.91 0 0 0-4.06 4.06.64.64 0 0 1-.86.31.75.75 0 0 1-.38-1 5.49 5.49 0 0 1 1-1.7 18.66 18.66 0 0 1 5-4 28.46 28.46 0 0 1 7.76-3.13c2.53-.62 5-1.28 7.56-1.91a.82.82 0 0 1 .93.76Z" class="color060505 svgShape"></path><path fill="#020101" d="M3.72 193.66c.1 0 .35.12.6.18.65.15 1.3.32 2 .43a2.63 2.63 0 0 0 2.28-.44.74.74 0 0 1 .92-.15.92.92 0 0 1 .21 1.1c-.07.19-.14.38-.2.57A4.06 4.06 0 0 0 10 199c.07.11.16.21.24.32.3.44.66.92.24 1.43s-.91.25-1.31 0a5.76 5.76 0 0 0-4.27-.54A1.12 1.12 0 0 1 3.51 199a7.49 7.49 0 0 0-.63-4.3c-.22-.42.25-1.03.84-1.04Z" class="color020101 svgShape"></path><path fill="#030202" d="M51.59 106.8c-.5 0-.75-.1-.82-.39a4.62 4.62 0 0 1-.09-1 4.07 4.07 0 0 0-1.8-3.78 1.29 1.29 0 0 1-.28-.29.75.75 0 0 1 .2-1 2.76 2.76 0 0 1 .58-.16 4 4 0 0 0 2.55-1.79 5.8 5.8 0 0 1 .62-.77.74.74 0 0 1 1.17.26 2.28 2.28 0 0 1 .15.57 9.37 9.37 0 0 0 1.39 3.93c.48.77.33 1.24-.53 1.53a4.53 4.53 0 0 0-2.61 2.34c-.12.27-.33.56-.53.55Z" class="color030202 svgShape"></path><path fill="#080606" d="M470 235.21a2 2 0 0 1 .4.16.7.7 0 0 1 .26.28c2.48 5.37 6.92 8.7 11.91 11.45 1.05.57 2.14 1.07 3.21 1.61a2.11 2.11 0 0 1 .64.45.6.6 0 0 1 .1.74.61.61 0 0 1-.64.36 3.51 3.51 0 0 1-.95-.3 48.65 48.65 0 0 1-7.46-4.25 26.51 26.51 0 0 1-6.31-6.37 27.76 27.76 0 0 1-1.49-2.6 1.32 1.32 0 0 1-.08-1.16c.05-.16.27-.25.41-.37Z" class="color080606 svgShape"></path><path fill="#030303" d="M16.24 142.19a1.22 1.22 0 0 1 .85.45 6.1 6.1 0 0 0 2.85 1.78.85.85 0 0 1 .58 1.26 2.4 2.4 0 0 1-.27.53 4.08 4.08 0 0 0-.89 3.39 1.72 1.72 0 0 1-.08.59.57.57 0 0 1-.82.3 5.79 5.79 0 0 1-.72-.68A3.88 3.88 0 0 0 15 148.4c-.5 0-1 0-1.14-.59a1.44 1.44 0 0 1 .21-1.52c.09-.09.15-.22.24-.31a4.52 4.52 0 0 0 1.41-3 .9.9 0 0 1 .52-.79Z" class="color030303 svgShape"></path><path fill="#070606" d="M320.32 282.88a40.28 40.28 0 0 1 1.94-10.72 17.22 17.22 0 0 1 3.31-5.45 1.32 1.32 0 0 1 .51-.28c.28-.11.68.22.7.52a1.83 1.83 0 0 1-.55 1.25 14.62 14.62 0 0 0-1.93 3 26.54 26.54 0 0 0-2 7.92 24.5 24.5 0 0 0-.24 5.61.68.68 0 0 1-.54.74.85.85 0 0 1-.95-.55 5.4 5.4 0 0 1-.25-2.04Z" class="color070606 svgShape"></path><path fill="#080808" d="M328.75 284.1a22.39 22.39 0 0 1 1.09-7.31 22.66 22.66 0 0 1 1.35-2.91 1.88 1.88 0 0 1 .57-.55.6.6 0 0 1 .74-.05.59.59 0 0 1 .25.7 2.61 2.61 0 0 1-.24.54c-2.16 3.85-2.48 8-2 12.27.15 1.46.39 2.91.58 4.37a1.78 1.78 0 0 1 0 .4.68.68 0 0 1-.46.6.67.67 0 0 1-.85-.35 5.1 5.1 0 0 1-.43-1.32 45.68 45.68 0 0 1-.6-6.39Z" class="color080808 svgShape"></path><path fill="#0b0808" d="M488.56 238.72c-4.81.25-8.86-1.6-12.52-4.53a13.18 13.18 0 0 1-1-1 1.31 1.31 0 0 1-.37-.9.71.71 0 0 1 .33-.68.51.51 0 0 1 .71.14 7.18 7.18 0 0 0 2.34 2.15 17.09 17.09 0 0 0 11.32 3.23 55.9 55.9 0 0 1 2.6-.11.57.57 0 0 1 .56.48c.06.35 0 .68-.39.81a5.23 5.23 0 0 1-1.16.25c-.81.1-1.62.12-2.42.16Z" class="color0b0808 svgShape"></path><path fill="#0a0827" d="M409.7 446.6h-6.23a21.73 21.73 0 0 1-5.56-.7 7.5 7.5 0 0 1-1-.3c-1.38-.61-1.75-1.24-1.34-2.69a26.1 26.1 0 0 1 5.4-10.2 5 5 0 0 1 3.38-1.95 20.39 20.39 0 0 0 2.92-.72 8.74 8.74 0 0 1 4.16 0 44.2 44.2 0 0 1 6.06 2.08 5.33 5.33 0 0 0 .74.32c3.45.83 5.57 3.3 7.42 6.07a8.7 8.7 0 0 1 1.69 4.86v.8c0 .77-.28 1.07-1.1 1.17-1.46.19-2.92.34-4.39.46-3.4.26-6.8.49-10.21.72-.66.05-1.34 0-2 0ZM330.92 435.91a16.92 16.92 0 0 1-5.07-.5 8.72 8.72 0 0 1-2.93-1.28 4.27 4.27 0 0 1-2-3.91 6.74 6.74 0 0 1 5.34-6.47 21.71 21.71 0 0 1 3.55-.65 85.24 85.24 0 0 1 11.85-.28.84.84 0 0 1 .88.66c.1.39.21.78.27 1.17.26 1.59.55 3.17.75 4.76a10.39 10.39 0 0 1-.58 4.94c-.24.63-.53 1-1.28 1h-1.81c-2.84.02-5.64.33-8.97.56Z" class="colorf38704 svgShape"></path><path fill="#080400" d="M380.16 331.26c-.25 0-.59.05-.47.43s.41 1 .61 1.47a120.67 120.67 0 0 1 4.31 12.09 48.17 48.17 0 0 1 1.46 9.5 2.28 2.28 0 0 1-.18 1c-.05.15-.28.26-.45.32a.37.37 0 0 1-.45-.3 6.32 6.32 0 0 1-.28-1.36 48.72 48.72 0 0 0-3.22-14.43c-.71-1.87-1.38-3.76-2.07-5.64a1.42 1.42 0 0 0-.62-.89 3 3 0 0 0-.57 1.31c-.14.44-.27.89-.41 1.34-.27.92-.56 1.26-.89 1.05-.57-.38-.44-1-.28-1.44.57-1.63.8-3.39 1.83-4.85.07-.1 0-.26.06-.39a1.78 1.78 0 0 1 1.62.79Z" class="color080400 svgShape"></path><path fill="#0c0802" d="M334.77 166.79c.71-1.7 1.44-3.39 2.14-5.1.4-1 .76-2 1.15-3a.51.51 0 0 1 .32-.19c.16-.05.23.05.26.21.22 1.58.45 3.16.67 4.74 0 .27 0 .57-.25.7-1.52.74-2.73 1.91-4.29 2.64Z" class="colore98104 svgShape"></path><path fill="#0c0802" d="M335.38 151.76a16 16 0 0 0 .63-4c.45 0 .58.16.65.43a2.72 2.72 0 0 0 .13.58c.68 1.28.18 2.23-.85 3a.37.37 0 0 1-.56-.01Z" class="colorb66703 svgShape"></path><path fill="#0c0802" d="m388.64 233.87-.78.73a6.92 6.92 0 0 1-2.19-.87.54.54 0 0 1-.14-.5.65.65 0 0 1 .52-.21 1.75 1.75 0 0 1 .71.32 4.28 4.28 0 0 0 1.88.53Z" class="colorc57003 svgShape"></path><path fill="#2f1d17" d="M329.51 149.35v-3.81c0-.07.23-.34.48-.31a.85.85 0 0 1 .28.9c-.53.45-.31 1.06-.37 1.62s.1 1.16-.39 1.6Z" class="color2f1d17 svgShape"></path><path fill="#2f1d17" d="M329.47 145.74c-.35-.31-.43-1-1.14-.83l-.45-.43c1.06-.64 1.35-.57 2 .44a1.51 1.51 0 0 0-.24.65 1.29 1.29 0 0 1-.17.17Z" class="color2f1d17 svgShape"></path><path fill="#a15d03" d="M472.28 400a.84.84 0 0 0-.82.43 2.06 2.06 0 0 1-.85-1.25.44.44 0 0 1 .61-.08c.37.31.83.49 1.06.9Z" class="colora15d03 svgShape"></path><path fill="#a66603" d="m420.8 341.69-.72.4a1.57 1.57 0 0 1 .56-1.31 1.1 1.1 0 0 1 .16.91Z" class="colora66603 svgShape"></path><path fill="#b65f03" d="M177.42 358.16h.39a2.31 2.31 0 0 1-.36 1.66l-.45-.46a.92.92 0 0 1 .42-1.2Z" class="colorb65f03 svgShape"></path><path fill="#633101" d="M335.51 152.55c-.05.13-.05.29-.14.36s-.13.78-.56.45c-.24-.18-.06-.59.23-.81s.31-.22.47 0Z" class="color633101 svgShape"></path><path fill="#6d4c02" d="m471.22 399.13-.61.08c-.18-.11-.31-.3-.2-.46.21-.32.4 0 .58.09a1.73 1.73 0 0 1 .23.29Z" class="color6d4c02 svgShape"></path><path fill="#904902" d="M335.51 152.55H335c.06-.29.06-.6.34-.79h.56Z" class="color904902 svgShape"></path><path fill="#080400" d="M381 331.71a.88.88 0 0 1-.79-.46c.32-.03.63.03.79.46Z" class="color080400 svgShape"></path><path fill="#030202" d="M442.85 195.67h-1.57c-.57 0-1.08-.32-1.14-.88s.29-.9 1-1c.34 0 .67-.06 1-.07a45.67 45.67 0 0 0 8.16-1 69.22 69.22 0 0 0 14.79-4.36c1.22-.54 2.39-1.21 3.59-1.79.68-.34 1.22-.3 1.47.06a1.12 1.12 0 0 1-.47 1.54 25.7 25.7 0 0 1-4.41 2.38 73.59 73.59 0 0 1-12.85 3.83 67 67 0 0 1-9.57 1.29Z" class="color030202 svgShape"></path><path fill="#080606" d="M437 339.22a5 5 0 0 0 3.27-1.64 7.73 7.73 0 0 0 2.23-3.51.43.43 0 0 1 .43-.35c.32 0 .47.2.6.44a1 1 0 0 1 0 1 9.47 9.47 0 0 1-5.23 5.27 3.84 3.84 0 0 1-1.18.19c-.83.05-1.19-.22-1.45-1.07a26.48 26.48 0 0 1-.8-2.9 20.4 20.4 0 0 0-4-8.64 39.26 39.26 0 0 0-3.12-3.93 1.3 1.3 0 0 1-.21-.34.51.51 0 0 1 .16-.7.7.7 0 0 1 .55-.09 2.52 2.52 0 0 1 .78.62 50.84 50.84 0 0 1 5.06 7 21.55 21.55 0 0 1 2 5.24c.23 1.1.59 2.24.91 3.41Z" class="color080606 svgShape"></path><path fill="#151010" d="M432.49 318.41a4.06 4.06 0 0 1 1.53.53 46.3 46.3 0 0 1 5 3.33 2.74 2.74 0 0 1 .64.75.62.62 0 0 1-.19.87.53.53 0 0 1-.72 0c-.73-.57-1.43-1.19-2.19-1.72a14.54 14.54 0 0 0-4.48-2.55.58.58 0 0 1-.42-.6c-.04-.32.34-.64.83-.61Z" class="color151010 svgShape"></path><path fill="#040303" d="M228 213.69a2.34 2.34 0 0 1 .32-1.15.83.83 0 0 1 1.35 0 1.65 1.65 0 0 1 .23.55c.36 2.93 1.83 5.43 3.12 8a50.76 50.76 0 0 0 6.44 9.87 1.71 1.71 0 0 1 .47 1.07.79.79 0 0 1-1.11.73 3.09 3.09 0 0 1-.77-.62 51.76 51.76 0 0 1-6.62-9.76c-1-1.89-1.93-3.81-2.73-5.79a9.12 9.12 0 0 1-.7-2.9Z" class="color040303 svgShape"></path><path fill="#040404" d="M208.68 208.58c0-.15 0-.35.07-.55s.29-.44.53-.55a.71.71 0 0 1 .89.23 2.05 2.05 0 0 1 .45.88c.68 3.33 2.32 6.26 3.85 9.22a37.23 37.23 0 0 0 5.64 8.27 1.5 1.5 0 0 1 .47.86.86.86 0 0 1-.25.73.79.79 0 0 1-.75.14 2.44 2.44 0 0 1-1.12-.81 34.46 34.46 0 0 1-4.1-5.44 55.14 55.14 0 0 1-5.06-10.21 8.23 8.23 0 0 1-.62-2.77Z" class="color040404 svgShape"></path><path fill="#050505" d="M236 212.94a1 1 0 0 1 .9.77 17 17 0 0 0 .43 1.74 39.44 39.44 0 0 0 9.18 14.4 7.4 7.4 0 0 1 .56.56.85.85 0 0 1-1.07 1.29 7.9 7.9 0 0 1-1.39-1.13 33.57 33.57 0 0 1-5.16-6.36 36.78 36.78 0 0 1-4.09-8.44 10.81 10.81 0 0 1-.34-1.36 1.25 1.25 0 0 1 .5-1.24 2.08 2.08 0 0 1 .48-.23ZM217.61 210.8a2.93 2.93 0 0 1 .17-.64.91.91 0 0 1 1-.56.76.76 0 0 1 .71.61 20.25 20.25 0 0 0 .88 3.29 49.12 49.12 0 0 0 7.44 13.44 2.48 2.48 0 0 1 .55 1.05.85.85 0 0 1-1.07.86 2.79 2.79 0 0 1-1.2-1 40.7 40.7 0 0 1-4.05-6 45 45 0 0 1-4-9.15 7.06 7.06 0 0 1-.43-1.9Z" class="color050505 svgShape"></path><path fill="#050404" d="M251.7 218a5 5 0 0 1 .25-.89.89.89 0 0 1 1.37-.05 3.21 3.21 0 0 1 .24.76 33.72 33.72 0 0 0 7 13.62 5.82 5.82 0 0 1 .48.63.89.89 0 0 1-.19 1.25.8.8 0 0 1-1.09-.06 15.36 15.36 0 0 1-1.24-1.31 35 35 0 0 1-5.45-9.29c-.36-.86-.64-1.75-1-2.63a6.9 6.9 0 0 1-.37-2.03Z" class="color050404 svgShape"></path><path fill="#050505" d="M244.47 216.49a.81.81 0 0 1 .72.28 1.83 1.83 0 0 1 .27.52 43.39 43.39 0 0 0 7.11 12.45 7.13 7.13 0 0 1 .65 1 .7.7 0 0 1-.18.9.72.72 0 0 1-.92.12 4.36 4.36 0 0 1-1.05-.91c-.76-.93-1.52-1.87-2.2-2.85a59.77 59.77 0 0 1-4.16-7.07 15.39 15.39 0 0 1-1-2.64 2.77 2.77 0 0 1 0-1.18.75.75 0 0 1 .76-.62Z" class="color050505 svgShape"></path><path fill="#060606" d="M260.94 219.48a3 3 0 0 1 .7.46 2.27 2.27 0 0 1 .31.73 29.86 29.86 0 0 0 6.84 11.87 1.16 1.16 0 0 1 .32.49 1.22 1.22 0 0 1-.1.76.76.76 0 0 1-.87.34 2.92 2.92 0 0 1-1.3-.89 20.53 20.53 0 0 1-2.71-3.47A32 32 0 0 1 261 224c-.34-.87-.58-1.77-.87-2.66a1.43 1.43 0 0 1 .2-1.33 2.7 2.7 0 0 1 .61-.53Z" class="color060606 svgShape"></path><path fill="#0b0a0a" d="M273.18 231.27a.91.91 0 0 1-1.11.82 2.63 2.63 0 0 1-.86-.5 17.39 17.39 0 0 1-4.25-6.67 2.07 2.07 0 0 1-.15-.58.92.92 0 0 1 .57-1 .8.8 0 0 1 1 .37 8.3 8.3 0 0 1 .55 1.07 17.16 17.16 0 0 0 3.75 5.61 1.23 1.23 0 0 1 .5.88Z" class="color0b0a0a svgShape"></path><path fill="#0e0d0d" d="M273.42 227.56a.93.93 0 0 1 .44-.62.79.79 0 0 1 .76.05 2.44 2.44 0 0 1 .56.55c.53.75 1.05 1.52 1.56 2.28a1.28 1.28 0 0 1 .14.37.78.78 0 0 1-.27.88.72.72 0 0 1-.74.14 5.51 5.51 0 0 1-2.45-3.65Z" class="color0e0d0d svgShape"></path><path fill="#0f0800" d="M437.75 379.06c.1 1.7.19 3.57.35 5.44.1 1.18.5 1.49 1.68 1.48a4.23 4.23 0 0 0 1.57-.28 3.27 3.27 0 0 1 1-.19c.26 0 .57.07.59.41a1.4 1.4 0 0 1-.14.54.32.32 0 0 1-.13.15 5.41 5.41 0 0 1-4.44.49 1.9 1.9 0 0 1-1.25-1.46 12.58 12.58 0 0 1-.31-2.18v-6.83a9.52 9.52 0 0 1 .32-2c0-.13.29-.29.45-.29a.62.62 0 0 1 .43.33 2 2 0 0 1 .08.78c-.08 1.16-.14 2.3-.2 3.61Z" class="color0f0800 svgShape"></path><path fill="#080400" d="M130.45 325.75c-.09.31-.1.59-.45.64a.58.58 0 0 1-.65-.35 14.18 14.18 0 0 1-.58-1.7 28.17 28.17 0 0 0-4.36-9.41c-2.31-3.11-4.5-6.33-7.37-9a1 1 0 0 1-.33-.48.9.9 0 0 1 .11-.55.4.4 0 0 1 .52-.17 1.48 1.48 0 0 1 .52.29 7.76 7.76 0 0 1 1 .93 70.52 70.52 0 0 1 8.14 10.5 34.81 34.81 0 0 1 3.36 8.56 5.94 5.94 0 0 1 .09.74Z" class="color080400 svgShape"></path><path fill="#0d0700" d="m177.42 358.16-.42 1.2a18.32 18.32 0 0 0-2.62 10.35 25.08 25.08 0 0 0 .51 4.8 11.9 11.9 0 0 1 .18 1.59.48.48 0 0 1-.43.56.62.62 0 0 1-.66-.35 4 4 0 0 1-.29-.95 26.6 26.6 0 0 1-.35-9.78 22.79 22.79 0 0 1 2.06-6.07 8.26 8.26 0 0 1 1-1.49c.35-.41.72-.2 1.02.14Z" class="color0d0700 svgShape"></path><path fill="#0b0600" d="M119.62 322.62a5.52 5.52 0 0 1-.16.62.69.69 0 0 1-.28.25.45.45 0 0 1-.54-.14 1.88 1.88 0 0 1-.44-1.09 29.63 29.63 0 0 0-4.4-10.05 10.66 10.66 0 0 0-2.83-3.08c-.31-.21-.5-.46-.32-.83s.61-.42 1-.12a8.82 8.82 0 0 1 1.4 1.12 19.76 19.76 0 0 1 3.27 4.55 30.67 30.67 0 0 1 3 7.43c.15.45.22.91.3 1.34ZM162.53 386.46a.54.54 0 0 1 .58.43 10.92 10.92 0 0 0 1 2.39 12.55 12.55 0 0 0 3.21 3.81c1.69 1.32 3.37 2.64 5.07 4a3.16 3.16 0 0 1 1.08 1.16.67.67 0 0 1 0 .55.53.53 0 0 1-.7.21 3.64 3.64 0 0 1-.67-.43c-1.59-1.23-3.16-2.47-4.76-3.69a15.75 15.75 0 0 1-4.58-5.51 3.68 3.68 0 0 1-.58-2.48c0-.24.08-.44.35-.44Z" class="color0b0600 svgShape"></path><path fill="#0c0700" d="M161.26 323.55c-.07.08-.16.29-.31.37a6.63 6.63 0 0 1-1.14.38 35.2 35.2 0 0 0-8.58 3.25 10 10 0 0 0-3.46 2.67.55.55 0 0 1-.91-.6 3.32 3.32 0 0 1 .53-.84 10.06 10.06 0 0 1 2.32-1.89 37.2 37.2 0 0 1 9.4-3.9 3.24 3.24 0 0 1 1.77-.14c.26.08.43.29.38.7Z" class="color0c0700 svgShape"></path><path fill="#0d0700" d="M68.5 351.39a.69.69 0 0 1 .63.41 12.29 12.29 0 0 0 2.07 2.69 12.57 12.57 0 0 0 4 2.95c1.28.58 2.58 1.1 3.86 1.67a4.34 4.34 0 0 1 1.72 1 .57.57 0 0 1 0 .74 1 1 0 0 1-.51.23.78.78 0 0 1-.39-.08c-1.84-.79-3.71-1.53-5.51-2.4a15.64 15.64 0 0 1-6-5.51A1.75 1.75 0 0 1 68 352a.6.6 0 0 1 .5-.61Z" class="color0d0700 svgShape"></path><path fill="#0b0600" d="M76.76 340.47a31.89 31.89 0 0 1 .43-4.83 2.35 2.35 0 0 1 .39-1.12.56.56 0 0 1 .5-.25.46.46 0 0 1 .41.37 5.62 5.62 0 0 1-.14 2.38 26.62 26.62 0 0 0-.33 4 12.81 12.81 0 0 0 2.25 7.54 4.06 4.06 0 0 1 .49.85.58.58 0 0 1-.2.51.53.53 0 0 1-.53 0 4 4 0 0 1-1.2-1.32 13.6 13.6 0 0 1-2.07-8.13Z" class="color0b0600 svgShape"></path><path fill="#0c0700" d="M161.17 317.81a.67.67 0 0 1-.34.68c-.55.25-1.11.44-1.67.66a28.93 28.93 0 0 0-5.09 2.34 7.83 7.83 0 0 0-2.94 2.66 1.4 1.4 0 0 1-.45.38c-.18.13-.56-.09-.61-.32a1.35 1.35 0 0 1 .27-1.13 8.23 8.23 0 0 1 2-2 28.19 28.19 0 0 1 7.92-3.79.86.86 0 0 1 .39 0 .79.79 0 0 1 .52.52Z" class="color0c0700 svgShape"></path><path fill="#0d0700" d="M72.1 400.81c-.08.29-.08.58-.41.67a.5.5 0 0 1-.63-.34 12.86 12.86 0 0 1-.61-1.91 21.17 21.17 0 0 0-.87-2.88 37.05 37.05 0 0 0-2.39-5.3c-.35-.61-.28-1.09.09-1.21s.74.21.93.55a34.84 34.84 0 0 1 3.79 9.47 6.53 6.53 0 0 1 .1.95Z" class="color0d0700 svgShape"></path><path fill="#080707" d="M389 287.52a.89.89 0 0 1-1.45-.27 26.51 26.51 0 0 1-2.52-3.61c-3.77-6.15-7.09-12.55-10.53-18.88a2.42 2.42 0 0 1-.24-.55.64.64 0 0 1 .27-.69.49.49 0 0 1 .71.1 11.33 11.33 0 0 1 1 1.49c1.87 3.46 3.7 6.95 5.6 10.4 1.51 2.74 3.1 5.45 4.68 8.16a16.43 16.43 0 0 0 2.24 3.07.73.73 0 0 1 .24.78Z" class="color080707 svgShape"></path><path fill="#090707" d="M360.52 294.92a.79.79 0 0 1 .67.32c.52.61 1 1.25 1.57 1.82 1.39 1.45 2.8 2.86 4.21 4.29a35.82 35.82 0 0 0 9.19 6.69c.71.37 1.45.7 2.13 1.11a5 5 0 0 1 1 .91.63.63 0 0 1 0 .56.79.79 0 0 1-.49.29c-.11 0-.25-.07-.37-.13-3.49-1.83-7-3.61-10-6.24a88.58 88.58 0 0 1-7.84-8 1.9 1.9 0 0 1-.54-1c-.05-.32.22-.65.47-.62Z" class="color090707 svgShape"></path><path fill="#0c0a0a" d="M377.22 244.81c1.23-1.32 2.32-2.49 3.42-3.65a2.89 2.89 0 0 1 .62-.47c.19-.11.55.15.59.38a1.2 1.2 0 0 1-.37 1.09q-2 2.16-3.91 4.3c-.39.42-.84.34-1.11-.21a30.07 30.07 0 0 0-6.25-8.27 1.6 1.6 0 0 1-.64-1 .74.74 0 0 1 .19-.52.6.6 0 0 1 .53-.11 12.88 12.88 0 0 1 1.71 1.45 32 32 0 0 1 4.69 6.22c.1.23.31.44.53.79Z" class="color0c0a0a svgShape"></path><path fill="#0b0a0a" d="M392 242.73a7.57 7.57 0 0 1-.29 1.16 52 52 0 0 1-4.41 9.18 16.05 16.05 0 0 1-2.57 3.06 3.41 3.41 0 0 1-.82.56.52.52 0 0 1-.69-.24.7.7 0 0 1 0-.55 2 2 0 0 1 .48-.63 20.19 20.19 0 0 0 4.54-6.54 53.1 53.1 0 0 0 2.49-5.68 1.81 1.81 0 0 1 .42-.67.67.67 0 0 1 .54-.11.46.46 0 0 1 .31.46Z" class="color0b0a0a svgShape"></path><path fill="#080808" d="M134.19 260.43a.51.51 0 0 1 .4.73 36.62 36.62 0 0 0-3.14 6 23.5 23.5 0 0 0-2 8.93 40.94 40.94 0 0 0 .94 9.75c.41 1.76.76 3.53 1.11 5.29a1.26 1.26 0 0 1-.13.76.67.67 0 0 1-.46.32.66.66 0 0 1-.51-.24 1.9 1.9 0 0 1-.28-.74c-.55-2.89-1.19-5.76-1.63-8.66a29.16 29.16 0 0 1 .25-11.36 34.22 34.22 0 0 1 4.63-10.38.81.81 0 0 1 .82-.4Z" class="color080808 svgShape"></path><path fill="#090808" d="M159.24 301.54a.51.51 0 0 1-.43-.55 2.3 2.3 0 0 1 .55-1.48c1.11-1.58 2.2-3.19 3.36-4.74 1.32-1.76 2.7-3.49 4.08-5.21a5.71 5.71 0 0 0 1.46-4.42 5.6 5.6 0 0 1 1.17-4 18.4 18.4 0 0 1 2.69-3 2.36 2.36 0 0 1 .67-.42.56.56 0 0 1 .7.22.39.39 0 0 1 0 .53c-.36.39-.75.76-1.12 1.14a17.11 17.11 0 0 0-1.94 2.3 4.57 4.57 0 0 0-.86 3.22 6.35 6.35 0 0 1-1.58 5c-1.26 1.56-2.48 3.15-3.71 4.74A50 50 0 0 0 160 301a.81.81 0 0 1-.76.54Z" class="color090808 svgShape"></path><path fill="#090707" d="M157.57 291.15a5.14 5.14 0 0 1 .65-2.66c3.6-6.89 8.66-12.33 15.76-15.71l.35-.2a.66.66 0 0 1 .9.1c.24.26.09.72-.35 1s-1.07.57-1.59.87a34.07 34.07 0 0 0-13.69 14.25 6.18 6.18 0 0 0-.79 2.46.7.7 0 0 1-.73.73.38.38 0 0 1-.3-.21c-.11-.27-.17-.53-.21-.63Z" class="color090707 svgShape"></path><path fill="#131010" d="M137.4 232.58c-.27-.09-.53-.25-.51-.54a2 2 0 0 1 .26-.93 18.94 18.94 0 0 1 5.94-6.33 1 1 0 0 1 .37-.15c.19 0 .42 0 .5.19a1.35 1.35 0 0 1 .1.56c0 .29-.26.45-.48.59a18.39 18.39 0 0 0-5.31 5.86 3.24 3.24 0 0 1-.51.6c-.09.09-.24.1-.36.15Z" class="color131010 svgShape"></path><path fill="#050300" d="M411 237.51a1.35 1.35 0 0 1 .43.17 3.67 3.67 0 0 1 .5.62c3.85 5.31 7.83 10.52 11.5 16 2.47 3.66 4.8 7.41 7.08 11.19.61 1 1.28 2 1.9 3.07a.53.53 0 0 1-.11.72.53.53 0 0 1-.73 0 5.21 5.21 0 0 1-1.24-1.55c-1.57-2.57-3.13-5.14-4.73-7.69-3.33-5.34-7-10.41-10.74-15.5l-3.63-5a11.86 11.86 0 0 1-.79-1.39c-.12-.26.2-.64.56-.64Z" class="color050300 svgShape"></path><path fill="#070400" d="M431 309.92a44.6 44.6 0 0 1-15.37-3.64c-.72-.35-1.06-.73-.77-1.13s.84-.21 1.25 0a48.6 48.6 0 0 0 10 3 24.77 24.77 0 0 0 15.11-1.75c1.16-.51 2.31-1.07 3.47-1.59a10 10 0 0 1 1.49-.58.48.48 0 0 1 .6.38.7.7 0 0 1-.11.55 3.09 3.09 0 0 1-.8.58 38.79 38.79 0 0 1-11.09 4 22.66 22.66 0 0 1-3.78.18Z" class="color070400 svgShape"></path><path fill="#0a0600" d="M429.38 303a26.15 26.15 0 0 1-8.33-1.73 24.93 24.93 0 0 1-2.75-1.21 3.54 3.54 0 0 1-.94-.74.63.63 0 0 1-.05-.9.47.47 0 0 1 .71 0 18.09 18.09 0 0 0 5.73 2.32 18.57 18.57 0 0 0 4.92.83 15.11 15.11 0 0 0 7.68-1.92 5.89 5.89 0 0 1 2-1 .75.75 0 0 1 .53.19.57.57 0 0 1 .05.73.72.72 0 0 1-.25.3 18.33 18.33 0 0 1-9.3 3.13Z" class="color0a0600 svgShape"></path><path fill="#0f0800" d="M422.82 210.39a1.58 1.58 0 0 1-.34.43.48.48 0 0 1-.68-.19 10.91 10.91 0 0 1-.8-1.63 17.46 17.46 0 0 0-4.13-6.52c-.3-.29-.57-.58-.28-1s.62-.3 1.19.21A12.59 12.59 0 0 1 419 203a21.84 21.84 0 0 1 3.7 6.8 2.75 2.75 0 0 1 .12.59Z" class="color0f0800 svgShape"></path><path d="M329.63 145.57a.47.47 0 0 1 .24-.65.4.4 0 0 1 .13.31Z" fill="#000000" class="color000 svgShape"></path><path fill="#080707" d="M370.56 131.74a2.64 2.64 0 0 1 .41.29 3 3 0 0 1 .67 1.44 33.14 33.14 0 0 0 3.26 8.38 2.2 2.2 0 0 1 .2.56.8.8 0 0 1-.24.91.89.89 0 0 1-1.11 0 1.74 1.74 0 0 1-.49-.61 36.88 36.88 0 0 1-3.53-8.69 2.1 2.1 0 0 1 0-1.75.84.84 0 0 1 .83-.53Z" class="color080707 svgShape"></path><path fill="#090808" d="M373.36 131.83a1.6 1.6 0 0 1 .71-1.55.8.8 0 0 1 1.17.34 3 3 0 0 1 .12.78 24.24 24.24 0 0 0 1.87 7.73c.17.44.38.86.53 1.3a2.25 2.25 0 0 1 .12.77.81.81 0 0 1-.54.77.7.7 0 0 1-.87-.31 12.86 12.86 0 0 1-1-1.75 37.65 37.65 0 0 1-2.1-7.28 7 7 0 0 1-.01-.8ZM378.6 132v-1.21a1.19 1.19 0 0 1 .9-1c.41 0 .95.51 1 1v.4a31.18 31.18 0 0 0 1.29 8.31 6 6 0 0 1 .22 1.18.88.88 0 0 1-.69.87.76.76 0 0 1-.8-.47 7 7 0 0 1-.54-1.3 34.54 34.54 0 0 1-1.38-7.78ZM371.7 143.7a.86.86 0 0 1-1.14.85 1.62 1.62 0 0 1-.62-.48 9.87 9.87 0 0 1-.94-1.52c-1-2.1-2-4.21-2.94-6.32a2.74 2.74 0 0 1-.36-1.34.89.89 0 0 1 .49-.8.91.91 0 0 1 1.1.18 2.19 2.19 0 0 1 .39.68 49.7 49.7 0 0 0 3.87 8.3 1.79 1.79 0 0 1 .15.45Z" class="color090808 svgShape"></path><path fill="#070606" d="M382.83 134.26v-2.23a2.92 2.92 0 0 1 .16-.78.94.94 0 0 1 .88-.68c.31 0 .76.41.82.75a1.8 1.8 0 0 1 0 .4 48.39 48.39 0 0 0 .35 6.37 3.51 3.51 0 0 1-.08 1.58.81.81 0 0 1-1.44.07 1.94 1.94 0 0 1-.19-.76c-.15-1.58-.33-3.17-.5-4.72Z" class="color070606 svgShape"></path><path fill="#0b0b0b" d="M388.91 132.9a21.81 21.81 0 0 0-.18 4.57 5.29 5.29 0 0 1-.15 2 .92.92 0 0 1-.94.57.78.78 0 0 1-.63-.7 54.18 54.18 0 0 1 .05-7c.08-.65.56-1.07 1-1s.92.61.86 1.35ZM390.23 136.47v-2.19a3.55 3.55 0 0 1 .09-.79c.15-.69.51-1 1-1s.94.52.81 1.33a37.61 37.61 0 0 0-.32 4.36 3 3 0 0 1-.12.78.88.88 0 0 1-.85.7.77.77 0 0 1-.74-.79c-.05-.8 0-1.59 0-2.38Z" class="color0b0b0b svgShape"></path><path fill="#111010" d="M395.89 135.72c-.12.91-.23 1.83-.37 2.74a2.44 2.44 0 0 1-.27.74.86.86 0 0 1-1 .51.77.77 0 0 1-.64-.87c.09-1.25.24-2.5.39-3.74a1.73 1.73 0 0 1 .29-.73.83.83 0 0 1 .87-.34.66.66 0 0 1 .56.5 9 9 0 0 1 .17 1.19Z" class="color111010 svgShape"></path><path fill="#181818" d="M397.52 139.31c.18-.89.33-1.81.54-2.72a.89.89 0 0 1 1.06-.68.86.86 0 0 1 .74 1c-.19 1-.43 1.95-.66 2.92a.77.77 0 0 1-.86.66 1 1 0 0 1-.82-1Z" class="color181818 svgShape"></path><path fill="#151313" d="M402.82 139.12c-.19.64-.37 1.35-.61 2a.81.81 0 0 1-1 .44c-.4-.16-.74-.48-.65-.89a18 18 0 0 1 .75-2.47.67.67 0 0 1 .67-.36.83.83 0 0 1 .74.57 4.38 4.38 0 0 1 .1.71Z" class="color151313 svgShape"></path><path fill="#110f0f" d="M197.7 193.46a4.33 4.33 0 0 1 3.64 1.69 5.72 5.72 0 0 1 1.16 4.85 2.41 2.41 0 0 1-.41.89.51.51 0 0 1-.7.18.74.74 0 0 1-.29-.46 2.67 2.67 0 0 1 .09-.79 4.69 4.69 0 0 0 0-1.79c-.4-2.52-2.09-3.66-4.58-3-.39.1-.63.1-.79-.29a.73.73 0 0 1 .3-.87 2.39 2.39 0 0 1 1.58-.41Z" class="color110f0f svgShape"></path><path fill="#141010" d="M192.31 188.51a3.94 3.94 0 0 1-.2.92.69.69 0 0 1-.66.36c-.36 0-.44-.29-.46-.53a11.82 11.82 0 0 1 0-1.19 3.89 3.89 0 0 0-.49-1.92 2.49 2.49 0 0 0-2.86-1.27c-.45.12-.87.34-1.31.48a.53.53 0 0 1-.65-.31.54.54 0 0 1 .18-.71 4 4 0 0 1 5.63.88 5.4 5.4 0 0 1 .82 3.29Z" class="color141010 svgShape"></path><path fill="#1b1818" d="M196.34 245.46a1.71 1.71 0 0 1-.12.51 6.21 6.21 0 0 1-.74.95 25.73 25.73 0 0 0-3.81 4.64.48.48 0 0 1-.68.22.64.64 0 0 1-.29-.86 8.18 8.18 0 0 1 1-1.72c1.06-1.3 2.18-2.54 3.3-3.78a1.35 1.35 0 0 1 .68-.38.56.56 0 0 1 .66.42Z" class="color1b1818 svgShape"></path><path fill="#282020" d="M191.55 253.54c-.16-.42-.13-.89.3-1a7.47 7.47 0 0 1 4.51-.19.57.57 0 0 1 .3.22.94.94 0 0 1 .11.56c0 .16-.26.42-.35.4-1.64-.33-3.29.33-4.92 0Z" class="color282020 svgShape"></path><path fill="#191616" d="M187.2 196.81a2 2 0 0 1 .48.37 1 1 0 0 1 .15.57 2.12 2.12 0 0 0 1.85 2.26.71.71 0 0 1 .18.08.56.56 0 0 1 .34.65.64.64 0 0 1-.74.52 3.08 3.08 0 0 1-2.72-2.32 2.54 2.54 0 0 1 0-1.76c.08-.18.26-.24.46-.37Z" class="color191616 svgShape"></path><path fill="#292727" d="M202.69 215.71a1.12 1.12 0 0 1 0 .36 2.39 2.39 0 0 1-2.31 1.25.7.7 0 0 1-.58-.5.46.46 0 0 1 .31-.63c.76-.1 1.3-.66 2-.87a.48.48 0 0 1 .58.39Z" class="color292727 svgShape"></path><path fill="#0f0c0c" d="M403.86 408.79a9.86 9.86 0 0 1 5.18 1.47 17.65 17.65 0 0 1 3.7 3 2.64 2.64 0 0 1 .81 1.34.81.81 0 0 1-.17.54.49.49 0 0 1-.71 0 2.7 2.7 0 0 1-.56-.56 17.45 17.45 0 0 0-2.8-2.56 9.45 9.45 0 0 0-5.93-2 2.43 2.43 0 0 1-.77-.08.69.69 0 0 1-.3-.46.46.46 0 0 1 .25-.5 2.81 2.81 0 0 1 1.3-.19Z" class="color0f0c0c svgShape"></path><path fill="#241c1c" d="M380.7 211.22a1.69 1.69 0 0 1-.39-.08c-.24-.11-.48-.27-.45-.57a.72.72 0 0 1 .28-.48 1.76 1.76 0 0 1 .73-.28c1.38-.15 2.77-.27 4.16-.4a1.36 1.36 0 0 1 .94.22.55.55 0 0 1 0 .85 1.63 1.63 0 0 1-.54.24c-1.57.18-3.15.34-4.73.5Z" class="color241c1c svgShape"></path><path fill="#1d1515" d="m376.81 222.89-4.52-.73a.59.59 0 0 1-.56-.67.61.61 0 0 1 .7-.56c1.64.17 3.28.37 4.92.58a1.74 1.74 0 0 1 .69.35c.25.17.17.68-.09.85a1.72 1.72 0 0 1-1.14.18Z" class="color1d1515 svgShape"></path><path fill="#1a1616" d="M375.15 208.08a1.51 1.51 0 0 1-.26.14.53.53 0 0 1-.37 0 2.42 2.42 0 0 1-.58-.52q-1.35-2-2.68-4c0-.05-.05-.12-.08-.18a.53.53 0 0 1 .24-.68.52.52 0 0 1 .72.09c.53.68 1 1.39 1.53 2.1s.92 1.3 1.36 2a1.06 1.06 0 0 1 .12 1.05Z" class="color1a1616 svgShape"></path><path fill="#1b1414" d="M371.29 215.4a2.94 2.94 0 0 1 .08-.54c.09-.34.29-.64.66-.65a.52.52 0 0 1 .54.67c-.27 1 .46 1.44 1 2a.5.5 0 0 1 .05.71.65.65 0 0 1-.74.16 2.51 2.51 0 0 1-1.59-2.35Z" class="color1b1414 svgShape"></path><path fill="#221b1b" d="M390.14 228.81a.53.53 0 0 1-.46-.58 2.05 2.05 0 0 1 1.74-1.64.61.61 0 0 1 .49.23.58.58 0 0 1 0 .56c-.51.5-1.06 1-1.6 1.43-.04.03-.13 0-.17 0Z" class="color221b1b svgShape"></path><path fill="#2b2c2c" d="M358.34 208.23v.39c0 .7-.3 1.08-.65 1s-.63-.48-.62-1.11a3.93 3.93 0 0 1 .16-1 .55.55 0 0 1 .6-.39.52.52 0 0 1 .53.48 5.81 5.81 0 0 1 0 .59Z" class="color2b2c2c svgShape"></path><path fill="#3b2626" d="M375.25 223.4a2.35 2.35 0 0 1 .58.11.6.6 0 0 1 .39.61.5.5 0 0 1-.47.51 5.24 5.24 0 0 1-1 0c-.35 0-.62-.24-.59-.63s.33-.52.68-.58c.09-.03.16-.02.41-.02Z" class="color3b2626 svgShape"></path><path fill="#171111" d="M411.54 170.5c.08.38-.34.82-.59.78a2.63 2.63 0 0 1-1.07-.5 4.67 4.67 0 0 0-5.58-.25.56.56 0 0 1-.85-.16.72.72 0 0 1 .19-.89.93.93 0 0 1 .15-.13 5.53 5.53 0 0 1 4.75-.76 8.48 8.48 0 0 1 2.77 1.54 1.28 1.28 0 0 1 .23.37Z" class="color171111 svgShape"></path><path fill="#120e0e" d="M417.28 174.23a2.8 2.8 0 0 1 1.84.6 7.51 7.51 0 0 1 2.94 5 1.6 1.6 0 0 1-.08.78.65.65 0 0 1-.47.31.58.58 0 0 1-.49-.27 4.93 4.93 0 0 1-.26-.95 6.87 6.87 0 0 0-1.22-2.71 3 3 0 0 0-2.45-1.52.58.58 0 0 1-.36-.12.6.6 0 0 1-.25-.7.82.82 0 0 1 .39-.39.89.89 0 0 1 .41-.03Z" class="color120e0e svgShape"></path><path fill="#1a1313" d="M403.9 186c.13 0 .3 0 .38.1a19.58 19.58 0 0 0 3.26 2.23 3 3 0 0 1 .7.68.57.57 0 0 1 0 .73.52.52 0 0 1-.7.19 38.25 38.25 0 0 1-3.75-2.57 1.29 1.29 0 0 1-.42-.86c0-.19.35-.5.53-.5Z" class="color1a1313 svgShape"></path><path fill="#1e1b1b" d="M406.45 182.58a7.1 7.1 0 0 1 .46-.92.58.58 0 0 1 .71-.21.46.46 0 0 1 .33.62 1.5 1.5 0 0 0 .5 2.09c.23.19.13.48-.06.71a.55.55 0 0 1-.71.17 2.3 2.3 0 0 1-1.23-2.46Z" class="color1e1b1b svgShape"></path><path fill="#2c2020" d="M423.12 194a.59.59 0 0 1-.42-.76 2.56 2.56 0 0 1 1.48-1.22c.13-.05.37.09.51.19a.45.45 0 0 1 .15.35 2.17 2.17 0 0 1-1.72 1.44Z" class="color2c2020 svgShape"></path><path fill="#322d2d" d="M391.63 174.54a2.09 2.09 0 0 1 .8-1.56.48.48 0 0 1 .56 0c.23.16.41.36.33.65a2.78 2.78 0 0 1-.81 1.34.41.41 0 0 1-.54 0 2.36 2.36 0 0 1-.34-.43Z" class="color322d2d svgShape"></path><path fill="#252121" d="M405.53 190.06a.57.57 0 0 1-.58.53 1.88 1.88 0 0 1-1.18-.62c-.42-.39-.52-.95-.19-1.19s.72 0 1 .21a5.71 5.71 0 0 1 .74.63 1.2 1.2 0 0 1 .21.44Z" class="color252121 svgShape"></path><path fill="#1c1818" d="M470.83 441.82a4.18 4.18 0 0 1-2.36-1.33.57.57 0 0 1 0-.54.5.5 0 0 1 .66-.28c.79.35 1.59.67 2.35 1.05a.49.49 0 0 1 .19.69c-.15.25-.33.42-.84.41Z" class="color1c1818 svgShape"></path><path fill="#050300" d="M268.54 145.75a3.35 3.35 0 0 1 3 2.74 3 3 0 0 1-2.2 3.15h-.19c-1.43.22-3-1.28-3.15-3a2.66 2.66 0 0 1 2.54-2.89Z" class="color050300 svgShape"></path><path fill="#040200" d="M272.36 167.58a2.73 2.73 0 0 1-2.83 2.76 3 3 0 0 1-2.79-3.09 2.58 2.58 0 0 1 2.71-2.62 2.91 2.91 0 0 1 2.91 2.95ZM257.66 128.42a2.8 2.8 0 0 1 2.67 2.9 2.84 2.84 0 0 1-2.87 2.72 3 3 0 0 1-2.79-2.85c.02-1.76 1.04-2.58 2.99-2.77ZM210.86 170a3 3 0 0 1-.64 2 2.13 2.13 0 0 1-3.17.42 3.06 3.06 0 0 1-.73-4 2.61 2.61 0 0 1 3-1 2.36 2.36 0 0 1 1.54 2.58Z" class="color040200 svgShape"></path><path fill="#050300" d="M255.35 181.55a1.85 1.85 0 0 1 1.24.41 3.1 3.1 0 0 1 1.17 3 3.37 3.37 0 0 1-2.44 2.12 2.08 2.08 0 0 1-1.92-.84 2.78 2.78 0 0 1-.28-3.18 2.39 2.39 0 0 1 2.23-1.51Z" class="color050300 svgShape"></path><path fill="#060300" d="M218 130.89a2.81 2.81 0 0 1-1.24 2.31 2.17 2.17 0 0 1-2.9-.32 2.6 2.6 0 0 1-.35-3 3.68 3.68 0 0 1 .49-.63 2.41 2.41 0 0 1 2.69-.76 2.53 2.53 0 0 1 1.31 2.4Z" class="color060300 svgShape"></path><path fill="#070400" d="M226.85 185.7a2.36 2.36 0 0 1 1.68-2.61c1.73-.46 3 1.54 2.69 3a3.9 3.9 0 0 1-.81 1.58 1.88 1.88 0 0 1-2 .66 1.85 1.85 0 0 1-1.48-1.65c-.03-.32-.05-.68-.08-.98ZM239 123.74a2.74 2.74 0 0 1-2.69 2.89 2.23 2.23 0 0 1-2-2.32 2.71 2.71 0 0 1 2.84-2.71 2 2 0 0 1 1.85 2.14Z" class="color070400 svgShape"></path><path fill="#050300" d="M204 148.18a2.31 2.31 0 0 1 4.59-.49 2.67 2.67 0 0 1-2.2 2.87 2.26 2.26 0 0 1-2.39-2.38Z" class="color050300 svgShape"></path><path fill="#010000" d="M261.31 143.87a29.59 29.59 0 0 0-13.49-13.34 25 25 0 0 0-19.5-1.56c-7.67 2.58-12.7 7.95-15.4 15.53a28.06 28.06 0 0 0-1.51 8.67v.8a30.77 30.77 0 0 0 5.59 17.12 28.56 28.56 0 0 0 18.6 12.29 23.47 23.47 0 0 0 20-5.07c5.59-4.54 8.41-10.67 9.12-17.73a29.38 29.38 0 0 0-3.41-16.71Zm-5.07 31a21 21 0 0 1-11.6 6.35 23.74 23.74 0 0 1-15.22-2.06 28.88 28.88 0 0 1-16-25.07 23.91 23.91 0 0 1 6.49-17.43 21.19 21.19 0 0 1 12.72-6.66c7.49-1 14 1.19 19.76 5.89a29.35 29.35 0 0 1 9 13.06 27.36 27.36 0 0 1 1.4 8.89 23.89 23.89 0 0 1-6.55 17Z" class="color010000 svgShape"></path><path fill="#030202" d="M220.87 165c-.86 0-1.29-.3-1.32-.84a.93.93 0 0 1 .54-1 7 7 0 0 1 1.35-.39 134.53 134.53 0 0 0 13.95-3.57l14.29-4a79.17 79.17 0 0 0 8-2.62 9 9 0 0 1 1.34-.42.75.75 0 0 1 .83.42.88.88 0 0 1-.15 1.1 10.57 10.57 0 0 1-1.43.71 100 100 0 0 1-11.21 3.7c-4.82 1.36-9.63 2.73-14.46 4.06-3.47.95-6.94 2-10.49 2.62Z" class="color030202 svgShape"></path><path fill="#040303" d="M255.08 163.2a.84.84 0 0 1-.51.8c-.43.17-.87.34-1.32.48-5.52 1.74-11.05 3.49-16.59 5.2-1.59.49-3.22.85-4.84 1.27a1.28 1.28 0 0 1-1.31-.23.93.93 0 0 1 .12-1.52 6.56 6.56 0 0 1 1.14-.36c6.8-1.7 13.4-4.05 20.13-6 .7-.2 1.4-.42 2.12-.57a.89.89 0 0 1 1.06.93ZM231.32 153.23a1.22 1.22 0 0 1-1.29-.73 1 1 0 0 1 .73-1.23 3.42 3.42 0 0 1 .77-.23c2.64-.43 5.19-1.28 7.78-1.93 3.69-.92 7.37-1.91 11.06-2.87a4.66 4.66 0 0 1 1-.16.74.74 0 0 1 .77.53.83.83 0 0 1-.33 1 3.34 3.34 0 0 1-.91.39c-3.22.92-6.43 1.85-9.65 2.73-2.38.66-4.78 1.25-7.18 1.85-.99.29-1.98.48-2.75.65Z" class="color040303 svgShape"></path><path fill="#050404" d="M232.92 145a1.13 1.13 0 0 1-1.1-.62.88.88 0 0 1 .51-1.15 28.43 28.43 0 0 1 2.78-1.07c4.5-1.44 9-2.85 13.51-4.29a2.55 2.55 0 0 1 1.36-.18.77.77 0 0 1 .58.5.73.73 0 0 1-.21.9 3.74 3.74 0 0 1-1 .56q-7.58 2.55-15.16 5.07a10.27 10.27 0 0 1-1.27.28Z" class="color050404 svgShape"></path></g></svg></g></svg>