<svg xmlns="http://www.w3.org/2000/svg" viewBox="0 0 64 64" id="vision"><path d="M25.9 19.8c.1 0 1.7-.3 2.3-.5.5-.1.9-.6.8-1.1-.1-.5-.6-.9-1.1-.8-.7.1-1.5.3-2.2.5-.5.1-.9.7-.7 1.2.1.4.5.7.9.7z"></path><path d="M62.7 31.2C62 30.7 46.2 17 32 17c-.6 0-1 .4-1 1s.4 1 1 1c11.6 0 24.9 10.1 28.4 13-3.5 2.9-16.8 13-28.4 13C20.4 45 7.1 34.9 3.6 32c2.6-2.1 10.3-8 18.8-11.1.5-.2.8-.8.6-1.3-.2-.5-.8-.8-1.3-.6C11 22.9 1.7 30.9 1.3 31.2c-.2.2-.3.5-.3.8 0 .3.1.6.3.8C2 33.3 17.8 47 32 47s30-13.7 30.7-14.2c.2-.2.3-.5.3-.8 0-.3-.1-.6-.3-.8z"></path><path d="M32 43c.6 0 1-.4 1-1s-.4-1-1-1c-5 0-9-4-9-9s4-9 9-9 9 4 9 9c0 3.4-1.9 6.5-5 8.1-.5.2-.7.8-.5 1.3.2.5.8.7 1.3.5C40.7 40 43 36.2 43 32c0-6.1-4.9-11-11-11s-11 4.9-11 11 4.9 11 11 11zm0-36c.6 0 1-.4 1-1V2c0-.6-.4-1-1-1s-1 .4-1 1v4c0 .6.4 1 1 1zm-18.9 5.4c.2.4.8.8 1.3.4.5-.3.7-.8.4-1.3l-2-4c-.2-.5-.8-.7-1.3-.4-.5.2-.7.8-.4 1.3l2 4zm36.5.5c.5.3 1.2-.1 1.3-.4l2-4c.2-.5 0-1.1-.4-1.3-.5-.2-1.1 0-1.3.4l-2 4c-.3.4-.1 1 .4 1.3zM32 57c-.6 0-1 .4-1 1v4c0 .6.4 1 1 1s1-.4 1-1v-4c0-.6-.4-1-1-1zm-17.6-5.9c-.5-.2-1.1 0-1.3.4l-2 4c-.2.5 0 1.1.4 1.3.5.3 1.2-.1 1.3-.4l2-4c.3-.4.1-1-.4-1.3zm36.5.5c-.2-.5-.8-.7-1.3-.4-.5.2-.7.8-.4 1.3l2 4c.2.4.7.8 1.3.4.5-.2.7-.8.4-1.3l-2-4z"></path><path d="M37 32c0 .6.4 1 1 1s1-.4 1-1c0-3.9-3.1-7-7-7-.6 0-1 .4-1 1s.4 1 1 1c2.8 0 5 2.2 5 5zm-9.8 1.6c-.2-.5-.8-.8-1.3-.6-.5.2-.8.8-.6 1.3 1.1 2.8 3.8 4.6 6.6 4.6.6 0 1-.4 1-1s-.4-1-1-1c-2 .1-3.9-1.3-4.7-3.3zm-12.3-5.9c-.3-.5-.9-.6-1.4-.3-3.1 1.9-6 3.8-6 3.8-.3.1-.5.5-.5.8s.2.6.4.8l3 2c.2.1.9.4 1.4-.3.3-.5.2-1.1-.3-1.4L9.8 32c1.1-.7 2.9-1.8 4.7-3 .5-.2.6-.9.4-1.3z"></path></svg>