<svg xmlns="http://www.w3.org/2000/svg" data-name="Layer 1" viewBox="0 0 128 128" id="vision"><path d="M113 37a8 8 0 1 0-8-8 8.01 8.01 0 0 0 8 8Zm0-12a4 4 0 1 1-4 4 4.004 4.004 0 0 1 4-4Z"></path><circle cx="120" cy="17" r="2"></circle><path d="M7 29a8 8 0 1 0 8-8 8.01 8.01 0 0 0-8 8Zm8-4a4 4 0 1 1-4 4 4.004 4.004 0 0 1 4-4Z"></path><circle cx="8" cy="17" r="2"></circle><path d="M121 99a8 8 0 1 0-8 8 8.01 8.01 0 0 0 8-8Zm-8 4a4 4 0 1 1 4-4 4.004 4.004 0 0 1-4 4Z"></path><circle cx="120" cy="111" r="2"></circle><path d="M15 91a8 8 0 1 0 8 8 8.01 8.01 0 0 0-8-8Zm0 12a4 4 0 1 1 4-4 4.004 4.004 0 0 1-4 4Z"></path><circle cx="8" cy="111" r="2"></circle><path d="M127.515 62.413c-21.075-24.43-43.32-36.32-66.173-35.36C25.397 28.578 1.385 61.16.38 62.547a2 2 0 0 0 3.238 2.349c.235-.325 23.921-32.421 57.92-33.846 21.549-.876 42.72 10.53 62.946 33.977a2 2 0 0 0 3.03-2.613zM34.59 89.38a2.004 2.004 0 0 0-1.86 3.55 2.093 2.093 0 0 0 .93.23 1.98 1.98 0 0 0 1.77-1.08 2.008 2.008 0 0 0-.84-2.7zm6.18 2.88a2 2 0 1 0 1.09 2.61 1.995 1.995 0 0 0-1.09-2.61zm-12.1-6.29a1.992 1.992 0 1 0 .62 2.76 1.985 1.985 0 0 0-.62-2.76zm-12.32-4.66a2 2 0 0 0 1.31-3.52 2 2 0 1 0-2.6 3.04 1.971 1.971 0 0 0 1.29.48zm-8.68-10.3a1.991 1.991 0 1 0-1.33.51 2.006 2.006 0 0 0 1.33-.51zm3.52 5.57a1.991 1.991 0 0 0 1.43-.6 2.001 2.001 0 1 0-2.83.03 1.99 1.99 0 0 0 1.4.57zm11.83 5.5a1.998 1.998 0 1 0-2.38 3.21h-.01a2 2 0 0 0 2.39-3.21zm70.04 7.25A2 2 0 0 0 94 93.1a2.002 2.002 0 1 0-.94-3.77zm19.46-8.65a2.009 2.009 0 1 0-1.3.48 1.942 1.942 0 0 0 1.3-.48zm-13.57 5.19a2.001 2.001 0 1 0 2.76.6 2.004 2.004 0 0 0-2.76-.6zm8.02-.72a2 2 0 1 0-2.8-.4 2 2 0 0 0 2.8.4zm10.81-9.25a2.016 2.016 0 1 0-1.38.55 2.005 2.005 0 0 0 1.38-.55zm2.08-7.79a1.995 1.995 0 0 0 1.46 3.37 1.97 1.97 0 0 0 1.45-.63 1.999 1.999 0 1 0-2.91-2.74zM60.47 96.9a1.999 1.999 0 1 0-.24 3.99h.12a1.997 1.997 0 0 0 .12-3.99zm-13.3-2.38a2.001 2.001 0 0 0-1.13 3.84 2.187 2.187 0 0 0 .56.08 2.001 2.001 0 0 0 .57-3.92zm6.59 1.57a2.001 2.001 0 1 0-.7 3.94 2.123 2.123 0 0 0 .35.03 2 2 0 0 0 .35-3.97zm20.18.01a2 2 0 0 0 .35 3.97 2.212 2.212 0 0 0 .35-.03 2.001 2.001 0 0 0-.7-3.94zm-6.72.8a2.002 2.002 0 0 0 .12 4 .5.5 0 0 0 .12-.01 1.999 1.999 0 1 0-.24-3.99zm19.69-4.66a2.001 2.001 0 0 0 .77 3.85 2.044 2.044 0 0 0 .76-.15 2.001 2.001 0 0 0-1.53-3.7zm-6.39 2.29a1.996 1.996 0 0 0 .57 3.91 1.855 1.855 0 0 0 .57-.08 1.998 1.998 0 1 0-1.14-3.83z"></path><path d="M64 52a12 12 0 1 0 12 12 12.013 12.013 0 0 0-12-12Zm0 20a8 8 0 1 1 8-8 8.01 8.01 0 0 1-8 8Z"></path><path d="M87.392 57.734a5.495 5.495 0 0 0 .547-6.27l-1.113-1.928a5.482 5.482 0 0 0-5.704-2.658 5.494 5.494 0 0 0-2.658-5.704l-1.928-1.113a5.478 5.478 0 0 0-6.268.552A5.493 5.493 0 0 0 65.113 37h-2.226a5.493 5.493 0 0 0-5.155 3.613 5.478 5.478 0 0 0-6.268-.552l-1.928 1.113a5.494 5.494 0 0 0-2.658 5.704 5.482 5.482 0 0 0-5.704 2.658l-1.113 1.928a5.495 5.495 0 0 0 .547 6.27A5.493 5.493 0 0 0 37 62.887v2.226a5.494 5.494 0 0 0 3.608 5.153 5.495 5.495 0 0 0-.547 6.27l1.113 1.928a5.482 5.482 0 0 0 5.704 2.658 5.494 5.494 0 0 0 2.658 5.704l1.928 1.113a5.478 5.478 0 0 0 6.268-.552A5.493 5.493 0 0 0 62.887 91h2.226a5.493 5.493 0 0 0 5.155-3.613 5.478 5.478 0 0 0 6.268.552l1.928-1.113a5.493 5.493 0 0 0 2.658-5.704 5.482 5.482 0 0 0 5.704-2.658l1.113-1.928a5.495 5.495 0 0 0-.547-6.27A5.493 5.493 0 0 0 91 65.113v-2.226a5.493 5.493 0 0 0-3.608-5.153ZM87 65.113a1.484 1.484 0 0 1-1.484 1.484h-2.779a18.784 18.784 0 0 1-1.209 4.524l2.404 1.388a1.484 1.484 0 0 1 .543 2.027l-1.113 1.928a1.483 1.483 0 0 1-2.027.543l-2.408-1.39a19.022 19.022 0 0 1-3.31 3.31l1.39 2.408a1.484 1.484 0 0 1-.543 2.027l-1.928 1.113a1.483 1.483 0 0 1-2.027-.543l-1.388-2.404a18.785 18.785 0 0 1-4.524 1.21v2.778A1.484 1.484 0 0 1 65.113 87h-2.226a1.484 1.484 0 0 1-1.484-1.484v-2.779a18.785 18.785 0 0 1-4.524-1.209l-1.388 2.404a1.483 1.483 0 0 1-2.027.543l-1.928-1.113a1.484 1.484 0 0 1-.543-2.027l1.39-2.408a19.022 19.022 0 0 1-3.31-3.31l-2.408 1.39a1.483 1.483 0 0 1-2.027-.543l-1.113-1.928a1.484 1.484 0 0 1 .543-2.027l2.404-1.388a18.784 18.784 0 0 1-1.21-4.524h-2.778A1.484 1.484 0 0 1 41 65.113v-2.226a1.484 1.484 0 0 1 1.484-1.484h2.779a18.785 18.785 0 0 1 1.209-4.525l-2.404-1.387a1.484 1.484 0 0 1-.543-2.027l1.113-1.928a1.483 1.483 0 0 1 2.027-.543l2.408 1.39a19.021 19.021 0 0 1 3.31-3.31l-1.39-2.408a1.484 1.484 0 0 1 .543-2.027l1.928-1.113a1.483 1.483 0 0 1 2.027.543l1.387 2.404a18.785 18.785 0 0 1 4.525-1.21v-2.778A1.484 1.484 0 0 1 62.887 41h2.226a1.484 1.484 0 0 1 1.484 1.484v2.779a18.785 18.785 0 0 1 4.524 1.209l1.388-2.404a1.483 1.483 0 0 1 2.027-.543l1.928 1.113a1.484 1.484 0 0 1 .543 2.027l-1.39 2.408a19.021 19.021 0 0 1 3.31 3.31l2.408-1.39a1.483 1.483 0 0 1 2.027.543l1.113 1.928a1.484 1.484 0 0 1-.543 2.027l-2.404 1.388a18.785 18.785 0 0 1 1.21 4.524h2.778A1.484 1.484 0 0 1 87 62.887Z"></path></svg>